<svg xmlns="http://www.w3.org/2000/svg" width="151" height="151" viewBox="0 0 151 151">
  <g id="Grupo_9857" data-name="Grupo 9857" transform="translate(-390 -2566)">
    <g id="Elipse_590" data-name="Elipse 590" transform="translate(390 2566)" fill="#f0f0f0" stroke="#5f3bbf" stroke-width="2">
      <circle cx="75.5" cy="75.5" r="75.5" stroke="none"/>
      <circle cx="75.5" cy="75.5" r="74.5" fill="none"/>
    </g>
    <g id="Grupo_9565" data-name="Grupo 9565" transform="translate(105.62 2483)">
      <g id="Grupo_9549" data-name="Grupo 9549" transform="translate(326.637 133.912)">
        <path id="Trazado_19361" data-name="Trazado 19361" d="M364.462,182.556H325V129h33.825v2.819H327.819v47.918h33.825V150.062h2.819Z" transform="translate(-325 -129)" fill="#5f3bbf"/>
      </g>
      <g id="Grupo_9550" data-name="Grupo 9550" transform="translate(321 117)">
        <path id="Trazado_19362" data-name="Trazado 19362" d="M364.69,204.38H328.047A7.055,7.055,0,0,1,321,197.334V124.047A7.055,7.055,0,0,1,328.047,117H364.69a7.055,7.055,0,0,1,7.047,7.047h-2.819a4.233,4.233,0,0,0-4.228-4.228H328.047a4.233,4.233,0,0,0-4.228,4.228v73.287a4.233,4.233,0,0,0,4.228,4.228H364.69a4.233,4.233,0,0,0,4.228-4.228v-15.5h2.819v15.5A7.055,7.055,0,0,1,364.69,204.38Z" transform="translate(-321 -117)" fill="#5f3bbf"/>
      </g>
      <g id="Grupo_9551" data-name="Grupo 9551" transform="translate(360.462 122.637)">
        <path id="Trazado_19363" data-name="Trazado 19363" d="M392.69,121H353.228A4.228,4.228,0,0,0,349,125.228V150.6a4.228,4.228,0,0,0,4.228,4.228h15.5V142.14a2.818,2.818,0,0,1,2.819-2.819h0a2.818,2.818,0,0,1,2.819,2.819v12.684H392.69a4.228,4.228,0,0,0,4.228-4.228V125.228A4.228,4.228,0,0,0,392.69,121Z" transform="translate(-349 -121)" fill="#00f4cb"/>
      </g>
      <g id="Grupo_9552" data-name="Grupo 9552" transform="translate(384.421 159.281)">
        <path id="Trazado_19364" data-name="Trazado 19364" d="M374.456,170.959h-2.819V151.228a1.409,1.409,0,1,0-2.819,0v19.731H366V151.228a4.228,4.228,0,1,1,8.456,0Z" transform="translate(-366 -147)" fill="#5f3bbf"/>
      </g>
      <g id="Grupo_9553" data-name="Grupo 9553" transform="translate(390.059 162.1)">
        <path id="Trazado_19365" data-name="Trazado 19365" d="M378.456,170.14h-2.819V153.228a1.409,1.409,0,1,0-2.819,0V170.14H370V153.228a4.228,4.228,0,1,1,8.456,0Z" transform="translate(-370 -149)" fill="#5f3bbf"/>
      </g>
      <g id="Grupo_9554" data-name="Grupo 9554" transform="translate(367.509 139.55)">
        <path id="Trazado_19366" data-name="Trazado 19366" d="M385.006,197.831h-22.55v-5.069a4.24,4.24,0,0,0-.927-2.641l-3.485-4.355a7.066,7.066,0,0,1-1.446-3.244l-2.537-15.214a4.62,4.62,0,0,1-.061-.737v-.9a4.482,4.482,0,0,1,8.892-.8l2.151,11.823h.233V137.228a4.228,4.228,0,1,1,8.456,0v33.825h-2.819V137.228a1.409,1.409,0,1,0-2.819,0v42.281h-5.4l-2.569-14.137a1.664,1.664,0,0,0-3.3.3v.9a1.651,1.651,0,0,0,.023.276l2.535,15.213a4.223,4.223,0,0,0,.868,1.945l3.485,4.355a7.085,7.085,0,0,1,1.545,4.4v2.251h16.912v-2.251a7.085,7.085,0,0,1,1.545-4.4L386.9,184.4a4.24,4.24,0,0,0,.927-2.641V162.6a1.409,1.409,0,1,0-2.819,0V176.69h-2.819V162.6a4.228,4.228,0,0,1,8.456,0V181.76a7.085,7.085,0,0,1-1.545,4.4l-3.165,3.958a4.24,4.24,0,0,0-.927,2.641Z" transform="translate(-354 -133)" fill="#5f3bbf"/>
      </g>
      <g id="Grupo_9555" data-name="Grupo 9555" transform="translate(368.918 156.462)">
        <rect id="Rectángulo_2401" data-name="Rectángulo 2401" width="2.819" height="13.18" fill="#5f3bbf"/>
      </g>
      <g id="Grupo_9556" data-name="Grupo 9556" transform="translate(335.068 122.807)">
        <rect id="Rectángulo_2402" data-name="Rectángulo 2402" width="3" height="3" transform="translate(0.313 0.193)" fill="#5f3bbf"/>
      </g>
      <g id="Grupo_9557" data-name="Grupo 9557" transform="translate(340.875 122.807)">
        <rect id="Rectángulo_2403" data-name="Rectángulo 2403" width="11" height="3" transform="translate(-0.494 0.193)" fill="#5f3bbf"/>
      </g>
      <g id="Grupo_9558" data-name="Grupo 9558" transform="translate(354.666 122.807)">
        <rect id="Rectángulo_2404" data-name="Rectángulo 2404" width="3" height="3" transform="translate(-0.286 0.193)" fill="#5f3bbf"/>
      </g>
      <g id="Grupo_9559" data-name="Grupo 9559" transform="translate(322.728 128.614)">
        <rect id="Rectángulo_2405" data-name="Rectángulo 2405" width="38" height="2" transform="translate(-0.348 0.386)" fill="#5f3bbf"/>
      </g>
      <g id="Grupo_9560" data-name="Grupo 9560" transform="translate(342.326 196.12)">
        <rect id="Rectángulo_2406" data-name="Rectángulo 2406" width="8" height="3" transform="translate(0.054 -0.12)" fill="#5f3bbf"/>
      </g>
      <g id="Grupo_9561" data-name="Grupo 9561" transform="translate(322.728 190.313)">
        <rect id="Rectángulo_2407" data-name="Rectángulo 2407" width="48" height="3" transform="translate(-0.348 -0.313)" fill="#5f3bbf"/>
      </g>
      <g id="Grupo_9562" data-name="Grupo 9562" transform="translate(373.146 127.23)">
        <path id="Trazado_19367" data-name="Trazado 19367" d="M358,148.9V124.259l21.118,12.32-7.862,4.586-1.42-2.433,3.689-2.152-12.706-7.412V143.99l3.518-2.052,1.42,2.436Z" transform="translate(-358 -124.259)" fill="#5f3bbf"/>
      </g>
      <g id="Grupo_9563" data-name="Grupo 9563" transform="translate(335.094 166.328)">
        <path id="Trazado_19368" data-name="Trazado 19368" d="M335.228,160.456a4.228,4.228,0,1,1,4.228-4.228A4.233,4.233,0,0,1,335.228,160.456Zm0-5.637a1.409,1.409,0,1,0,1.409,1.409A1.41,1.41,0,0,0,335.228,154.819Z" transform="translate(-331 -152)" fill="#5f3bbf"/>
      </g>
      <g id="Grupo_9564" data-name="Grupo 9564" transform="translate(340.731 146.409)">
        <path id="Trazado_19369" data-name="Trazado 19369" d="M337.819,162.014H335V137.867l12.859,1.608-.349,2.8-9.691-1.211Z" transform="translate(-335 -137.867)" fill="#5f3bbf"/>
      </g>
    </g>
  </g>
</svg>
