<svg xmlns="http://www.w3.org/2000/svg" width="151" height="151" viewBox="0 0 151 151">
  <g id="Grupo_9840" data-name="Grupo 9840" transform="translate(-390 -1744)">
    <g id="Elipse_556" data-name="Elipse 556" transform="translate(390 1744)" fill="#f0f0f0" stroke="#5f3bbf" stroke-width="2">
      <circle cx="75.5" cy="75.5" r="75.5" stroke="none"/>
      <circle cx="75.5" cy="75.5" r="74.5" fill="none"/>
    </g>
    <g id="Grupo_9533" data-name="Grupo 9533" transform="translate(292 1361)">
      <g id="Grupo_9519" data-name="Grupo 9519" transform="translate(158.554 453.346)">
        <path id="Trazado_19344" data-name="Trazado 19344" d="M159.918,454.84l-12.4-10.331,9.216-9.216,2.257,2.257-6.744,6.744L159,449.921l6.5-11.7,2.79,1.549Z" transform="translate(-147.519 -435.293)" fill="#5f3bbf"/>
      </g>
      <g id="Grupo_9520" data-name="Grupo 9520" transform="translate(142.516 453.346)">
        <path id="Trazado_19345" data-name="Trazado 19345" d="M145.836,454.84l-8.368-15.065,2.79-1.549,6.5,11.7,6.752-5.628-6.744-6.744,2.257-2.257,9.216,9.216Z" transform="translate(-137.469 -435.293)" fill="#5f3bbf"/>
      </g>
      <g id="Grupo_9521" data-name="Grupo 9521" transform="translate(131.194 405)">
        <path id="Trazado_19346" data-name="Trazado 19346" d="M142.228,457.3l9.892-2.826v-5.993h.018a12.79,12.79,0,0,1-4.387-6.775h-.418a6.384,6.384,0,0,1-6.353-7.011,6.538,6.538,0,0,1,6.353-5.731v-.115l2.8.011a16.354,16.354,0,0,0,9.965-4.71,16.344,16.344,0,0,0,11.467,4.783l1.3,0v.026a6.539,6.539,0,0,1,6.353,5.731,6.384,6.384,0,0,1-6.353,7.011h-.418a12.8,12.8,0,0,1-4.387,6.775h.018v5.993l10.022,2.863a21.014,21.014,0,0,0,10.251-4.919l1.463-1.446-1.763-1.058a14.914,14.914,0,0,1-7.206-12.726V425.747a20.747,20.747,0,0,0-41.494,0v11.441a14.917,14.917,0,0,1-7.206,12.726l-1.771,1.063,1.478,1.446A20.934,20.934,0,0,0,142.228,457.3Z" transform="translate(-130.375 -405)" fill="#3bdcf0"/>
      </g>
      <g id="Grupo_9522" data-name="Grupo 9522" transform="translate(167.302 448.481)">
        <path id="Trazado_19347" data-name="Trazado 19347" d="M174.052,447.493a7.978,7.978,0,0,0-4.5-3.32L153,439.441v-7.2h3.192v4.789l14.241,4.068a11.169,11.169,0,0,1,6.3,4.651Z" transform="translate(-153 -432.245)" fill="#5f3bbf"/>
      </g>
      <g id="Grupo_9523" data-name="Grupo 9523" transform="translate(129 448.481)">
        <path id="Trazado_19348" data-name="Trazado 19348" d="M181.894,468.561H129V451.843a11.216,11.216,0,0,1,8.1-10.741l14.241-4.068v-4.789h3.192v7.2l-16.556,4.732a8.01,8.01,0,0,0-5.787,7.67v13.526h49.7Z" transform="translate(-129 -432.245)" fill="#5f3bbf"/>
      </g>
      <g id="Grupo_9524" data-name="Grupo 9524" transform="translate(146.555 428.85)">
        <path id="Trazado_19349" data-name="Trazado 19349" d="M154.363,443.972A14.379,14.379,0,0,1,140,429.609v-9.665h3.192v9.665a11.172,11.172,0,0,0,22.343,0v-9.576h3.192v9.576A14.379,14.379,0,0,1,154.363,443.972Z" transform="translate(-140 -419.944)" fill="#5f3bbf"/>
      </g>
      <g id="Grupo_9525" data-name="Grupo 9525" transform="translate(140.172 421.895)">
        <path id="Trazado_19350" data-name="Trazado 19350" d="M169.514,436.994V433.8a4.787,4.787,0,0,0,4.765-5.263,4.975,4.975,0,0,0-5.04-4.312H168.3a17.8,17.8,0,0,1-11.558-4.218,17.8,17.8,0,0,1-11.558,4.218h-.935a4.975,4.975,0,0,0-5.04,4.312,4.787,4.787,0,0,0,4.765,5.263v3.192a7.981,7.981,0,0,1-7.943-8.757,8.181,8.181,0,0,1,7.943-7.2v0h1.21a14.65,14.65,0,0,0,10.429-4.32l1.128-1.128,1.128,1.128a14.65,14.65,0,0,0,10.429,4.32h.935a8.191,8.191,0,0,1,8.217,7.2,7.981,7.981,0,0,1-7.943,8.757Z" transform="translate(-136 -415.586)" fill="#5f3bbf"/>
      </g>
      <g id="Grupo_9526" data-name="Grupo 9526" transform="translate(141.767 472.029)">
        <rect id="Rectángulo_2390" data-name="Rectángulo 2390" width="3" height="11" transform="translate(0.233 -0.029)" fill="#5f3bbf"/>
      </g>
      <g id="Grupo_9527" data-name="Grupo 9527" transform="translate(159.323 462.454)">
        <rect id="Rectángulo_2391" data-name="Rectángulo 2391" width="4" height="21" transform="translate(-0.323 -0.454)" fill="#5f3bbf"/>
      </g>
      <g id="Grupo_9528" data-name="Grupo 9528" transform="translate(180.07 456.07)">
        <path id="Trazado_19351" data-name="Trazado 19351" d="M184.939,437a23.939,23.939,0,1,0,23.939,23.939A23.964,23.964,0,0,0,184.939,437Zm9.576,36.706a3.191,3.191,0,0,1-3.192,3.192H178.555a3.191,3.191,0,0,1-3.192-3.192V460.939a3.191,3.191,0,0,1,3.192-3.192h12.767a3.191,3.191,0,0,1,3.192,3.192Z" transform="translate(-161 -437)" fill="#3bdcf0"/>
      </g>
      <g id="Grupo_9529" data-name="Grupo 9529" transform="translate(192.837 475.221)">
        <path id="Trazado_19352" data-name="Trazado 19352" d="M186.555,471.343H173.788A4.794,4.794,0,0,1,169,466.555V453.788A4.794,4.794,0,0,1,173.788,449h12.767a4.794,4.794,0,0,1,4.788,4.788v12.767A4.794,4.794,0,0,1,186.555,471.343Zm-12.767-19.151a1.6,1.6,0,0,0-1.6,1.6v12.767a1.6,1.6,0,0,0,1.6,1.6h12.767a1.6,1.6,0,0,0,1.6-1.6V453.788a1.6,1.6,0,0,0-1.6-1.6Z" transform="translate(-169 -449)" fill="#5f3bbf"/>
      </g>
      <g id="Grupo_9530" data-name="Grupo 9530" transform="translate(199.221 480.009)">
        <path id="Trazado_19353" data-name="Trazado 19353" d="M177.788,461.576a4.788,4.788,0,1,1,4.788-4.788A4.794,4.794,0,0,1,177.788,461.576Zm0-6.384a1.6,1.6,0,1,0,1.6,1.6A1.6,1.6,0,0,0,177.788,455.192Z" transform="translate(-173 -452)" fill="#5f3bbf"/>
      </g>
      <g id="Grupo_9531" data-name="Grupo 9531" transform="translate(202.413 487.989)">
        <rect id="Rectángulo_2392" data-name="Rectángulo 2392" width="4" height="5" transform="translate(-0.413 0.011)" fill="#5f3bbf"/>
      </g>
      <g id="Grupo_9532" data-name="Grupo 9532" transform="translate(196.029 462.454)">
        <path id="Trazado_19354" data-name="Trazado 19354" d="M186.959,455.363h-3.192V448.98a4.788,4.788,0,1,0-9.576,0v6.384H171V448.98a7.98,7.98,0,1,1,15.959,0Z" transform="translate(-171 -441)" fill="#5f3bbf"/>
      </g>
    </g>
  </g>
</svg>
