<svg xmlns="http://www.w3.org/2000/svg" width="829" height="350.118" viewBox="0 0 829 350.118">
  <g id="Grupo_9858" data-name="Grupo 9858" transform="translate(-701 -1112.188)">
    <g id="Grupo_9330" data-name="Grupo 9330">
      <path id="Trazado_18847" data-name="Trazado 18847" d="M271.862,381.179l3-1.351,4.219,7.7A12.922,12.922,0,0,1,271.862,381.179Z" transform="translate(1131.888 1015.586)" fill="#ffebca"/>
      <g id="Grupo_9329" data-name="Grupo 9329" transform="translate(-83.146 85.874)">
        <path id="Trazado_18832" data-name="Trazado 18832" d="M341.546,302.083l-4.708,9.292-11.2-6.4-3.984,6.779c-4.977-5.248-6.3-7.823-11.2-15.464-6.311-9.839-12.482-19.828-17.119-30.558-3.821-8.84-6.685-18.322-12.752-25.8-4.112-5.068-9.5-8.949-15.084-12.328-12.155-7.353-25.987-12.688-40.189-12.339a46.568,46.568,0,0,0-24.915,7.851L192.546,211.1a8.706,8.706,0,0,0-10.271-3.389l-3.282-5.029a82.571,82.571,0,1,0-6.181,4.034l3.282,5.029a8.705,8.705,0,0,0-1.033,10.766l11.723,17.963a62.13,62.13,0,0,0-2.337,7.905,40.915,40.915,0,0,0-2.116,12.9,18.382,18.382,0,0,0,.418,4.811,11.963,11.963,0,0,0,3.587,6.162h0c1.94,2.024,10.112,5.986,16.742-6.813l.937,1.435c-4.4,9.069-2.272,20.606,3.217,29.26a16.826,16.826,0,0,0,5.866,6.536,13.256,13.256,0,0,0,2.629,1.443c.3.122.617.224.933.317h0a10.576,10.576,0,0,0,2.454.411h0c4.376.4,6.795-.74,8.087-2.439l5.573,8.541a8.7,8.7,0,0,0,11.834,2.624,54.575,54.575,0,0,0,10.021,13.823c6.417,6.25,14.565,10.36,22.574,14.372l20.713,10.378-4.571,7.778,15.212,7.267-3.645,7.193,6.025,2.32,61.231-.508v-68.24ZM237.871,244.151q-2.957.895-5.838,2.021a41.81,41.81,0,0,1-3.552-3.893,18.686,18.686,0,0,1,4.411.181A17.759,17.759,0,0,1,237.871,244.151Z" transform="translate(1238.283 999.731)" fill="#313944" opacity="0.15"/>
        <path id="Trazado_18833" data-name="Trazado 18833" d="M380.512,370.718c-8.358-8.2-9.03-10.007-14.983-19.288-6.311-9.839-12.482-19.828-17.119-30.558-3.821-8.84-6.685-18.322-12.752-25.8-4.112-5.068-9.5-8.949-15.084-12.328-12.155-7.353-25.987-12.688-40.189-12.339s-28.738,7.157-35.831,19.466c-3.457,6-5,12.884-6.265,19.69-.716,3.857-1.354,7.852-.458,11.672s3.7,7.454,7.559,8.145c3.547.635,7.132-1.335,9.522-4.031s3.856-6.062,5.525-9.255c3.155-6.038,7.3-11.78,13.094-15.37s13.459-4.674,19.455-1.442a80.745,80.745,0,0,0-23.306,11.409,34.572,34.572,0,0,0-9.22,8.909c-6.124,9.356-4.135,22.235,1.854,31.679,2.115,3.335,4.833,6.5,8.5,7.979s8.414.8,10.728-2.4c3.246-4.49.359-10.628-.171-16.143a18.739,18.739,0,0,1,13.5-19.285,61.093,61.093,0,0,0-9.155,23.808c-.669,4.257-.866,8.722.594,12.776s4.869,7.624,9.132,8.251a4.055,4.055,0,0,0,3.608-.906,5.087,5.087,0,0,0,.971-3.065l1.371-15.1c-1.554,14.484,7.507,28.224,18.73,37.511s24.7,15.413,36.624,23.776l23.77-37.763" transform="translate(1185.894 939.53)" fill="#f0bd88"/>
        <path id="Trazado_18834" data-name="Trazado 18834" d="M318.642,307.292c-30.365-7.23-44.608-18.8-44.608-18.8-15.689,44.825-31.074,43.915-31.074,43.915,2,2.084,10.611,6.229,17.337-8.013,6.712-14.213,17.075-19.739,17.075-19.739,19.008-9.3,29.094,12.515,29.094,12.515-30.731-1.446-31.2,22.412-29.034,32.534S275.738,365,275.738,365c10.249.944,9.788-6.586,9.165-9.9-6.017-31.969,21.564-29.913,21.564-29.913-8.56,12.05-6.863,34.4-7.1,39.945s-4.688,5.5-4.688,5.5c6.427,3.552,8.3-2.24,8.675-8.245,6.255,30.09,54.935,51.11,54.935,51.11l11.689-14.868C319.124,381.518,318.642,307.292,318.642,307.292Z" transform="translate(1184.351 934.515)" fill="#cd996a"/>
        <path id="Trazado_18846" data-name="Trazado 18846" d="M239.546,316.174s-3.759,10.306-1.3,19.126c0,0,4.128-9.254,3.175-18.171Z" transform="translate(1185.888 926.847)" fill="#ffebca"/>
        <g id="Grupo_9326" data-name="Grupo 9326" transform="translate(1258.676 1026.313)">
          <rect id="Rectángulo_2311" data-name="Rectángulo 2311" width="7.381" height="25.94" transform="matrix(0.837, -0.547, 0.547, 0.837, 149.09, 176.379)" fill="#e2ba14"/>
          <circle id="Elipse_591" data-name="Elipse 591" cx="78.143" cy="78.143" r="78.143" transform="translate(0 110.511) rotate(-45)" fill="#fff" opacity="0.33"/>
          <path id="Trazado_18849" data-name="Trazado 18849" d="M179.675,197.773A82.572,82.572,0,1,1,203.7,83.5,82.667,82.667,0,0,1,179.675,197.773ZM94.262,66.891A73.715,73.715,0,1,0,196.28,88.336,73.8,73.8,0,0,0,94.262,66.891Z" transform="translate(-24.037 -18.112)" fill="#3c7b8e"/>
          <g id="Grupo_9325" data-name="Grupo 9325" transform="translate(36.352 36.352)">
            <g id="Grupo_9324" data-name="Grupo 9324">
              <path id="Trazado_18850" data-name="Trazado 18850" d="M178.3,193.959A74.18,74.18,0,1,1,199.884,91.3,74.264,74.264,0,0,1,178.3,193.959ZM101.025,75.544A67.22,67.22,0,1,0,194.056,95.1,67.3,67.3,0,0,0,101.025,75.544Z" transform="translate(-63.604 -57.679)" fill="#62abce"/>
            </g>
          </g>
          <path id="Trazado_18851" data-name="Trazado 18851" d="M299.5,363.589l-2.954,1.927a8.7,8.7,0,0,1-12.007-2.524l-57.713-88.435a8.7,8.7,0,0,1,2.525-12.007l2.953-1.927a8.7,8.7,0,0,1,12.007,2.524l57.713,88.435A8.7,8.7,0,0,1,299.5,363.589Z" transform="translate(-72.08 -77.157)" fill="#3c7b8e"/>
          <path id="Trazado_18852" data-name="Trazado 18852" d="M177.868,192.747a71.513,71.513,0,1,1,20.805-98.971A71.594,71.594,0,0,1,177.868,192.747ZM101.43,75.62A68.349,68.349,0,1,0,196.023,95.5,68.425,68.425,0,0,0,101.43,75.62Z" transform="translate(-28.273 -22.348)" fill="#284c54"/>
          <path id="Trazado_18853" data-name="Trazado 18853" d="M294,366.26h0a2.538,2.538,0,0,1-3.5-.736l-60.338-92.458a2.537,2.537,0,0,1,.736-3.5h0a2.537,2.537,0,0,1,3.5.736l60.339,92.458A2.538,2.538,0,0,1,294,366.26Z" transform="translate(-73.278 -79.909)" fill="#31b4d3"/>
          <circle id="Elipse_592" data-name="Elipse 592" cx="69.931" cy="69.931" r="69.931" transform="translate(40.58 40.58)" fill="#fff" opacity="0.38"/>
        </g>
        <g id="Grupo_9328" data-name="Grupo 9328" transform="translate(1435.282 1219.917)">
          <g id="Grupo_9327" data-name="Grupo 9327">
            <path id="Trazado_18855" data-name="Trazado 18855" d="M378.286,388.822c-12.085-14.95-26.358-30.108-38.443-45.058-4.31-5.333-8.655-10.7-13.879-15.142-11.976-10.182-28.241-15.241-37.977-27.583-4.41-5.592-7.614-12.758-14.1-15.689a14.527,14.527,0,0,0-18.072,6.064c-3.766,6.906-1.138,15.564,2.757,22.4a67.431,67.431,0,0,0,14.918,17.976c6.675,5.663,14.569,10.141,19.673,17.253,3.687,5.137,5.638,11.276,8.1,17.1,3.143,7.439,7.265,14.587,13.051,20.221,6.417,6.25,14.564,10.36,22.574,14.372l27.007,13.531a218.7,218.7,0,0,1,14.4-25.445" transform="translate(-253.985 -284.218)" fill="#fcd6a9"/>
            <path id="Trazado_18856" data-name="Trazado 18856" d="M423.262,394.494l-32.287,54.947,16.144,7.712,29.645-54.947Z" transform="translate(-291.934 -314.766)" fill="#fff"/>
            <path id="Trazado_18857" data-name="Trazado 18857" d="M443.605,390.494l-36.631,72.3,17.849,6.872H474.23v-73.3Z" transform="translate(-296.366 -313.658)" fill="#3e4756"/>
            <path id="Trazado_18858" data-name="Trazado 18858" d="M260.307,297.652l13.824-9.158s15.351,13.789,9.311,18.8C266.784,321.106,260.307,297.652,260.307,297.652Z" transform="translate(-255.736 -285.402)" fill="#ffebca"/>
          </g>
          <path id="Trazado_18859" data-name="Trazado 18859" d="M419.787,413.991l10.7,10.515,14.261-22.3-13.5-7.712Z" transform="translate(-299.915 -314.766)" fill="#dfe4ea"/>
          <path id="Trazado_18860" data-name="Trazado 18860" d="M451.253,390.494l-16.671,32.9,47.3,22.653V396.364l-30.625-5.87" transform="translate(-304.014 -313.658)" fill="#313944"/>
        </g>
      </g>
      <path id="Trazado_18861" data-name="Trazado 18861" d="M118.867,305.581s9.383,5.972,20.471,37.1h12.581s9.6-45.205,52.242-79.323c0,0,.427-5.331-4.265-3.2,0,0-20.471,13.007-54.589,60.773,0,0-10.021-26.655-15.14-23.883Z" transform="translate(1122.133 924.359)" fill="#56c330"/>
    </g>
    <g id="Grupo_9436" data-name="Grupo 9436" transform="translate(634.531 1120.774)">
      <g id="Grupo_9335" data-name="Grupo 9335" transform="translate(140.986 130.387)">
        <path id="Trazado_18863" data-name="Trazado 18863" d="M243.008,172.726H228.066a2.366,2.366,0,0,0-2.366,2.366v.256h19.675v-.256A2.366,2.366,0,0,0,243.008,172.726Z" transform="translate(-220.351 -172.726)" fill="#c1c1c1"/>
        <rect id="Rectángulo_2312" data-name="Rectángulo 2312" width="29.415" height="98.313" transform="translate(0 2.622)" fill="#f2f2f2"/>
        <rect id="Rectángulo_2313" data-name="Rectángulo 2313" width="29.415" height="98.313" transform="translate(29.415 2.622)" fill="#e2e2e2"/>
        <rect id="Rectángulo_2314" data-name="Rectángulo 2314" width="29.415" height="30.149" transform="translate(0 17.041)" fill="#005dba"/>
        <rect id="Rectángulo_2315" data-name="Rectángulo 2315" width="29.415" height="30.149" transform="translate(29.415 17.041)" fill="#0050a0"/>
        <g id="Grupo_9334" data-name="Grupo 9334" transform="translate(13.283 23.775)">
          <path id="Trazado_18864" data-name="Trazado 18864" d="M244.529,224.423l1.736-11.506h3.542v16.206H247.4V217.5l-1.76,11.622h-2.408l-1.9-11.46v11.46h-2.223V212.917h3.542Z" transform="translate(-239.111 -212.917)" fill="#fff"/>
          <path id="Trazado_18865" data-name="Trazado 18865" d="M260.322,212.917h2.547v16.206h-2.547Z" transform="translate(-247.774 -212.917)" fill="#fff"/>
          <path id="Trazado_18866" data-name="Trazado 18866" d="M267.757,212.917H270.3v13.891h4.191v2.315h-6.737Z" transform="translate(-250.811 -212.917)" fill="#fff"/>
          <path id="Trazado_18867" data-name="Trazado 18867" d="M284.358,222.664l-.787,1.481v4.978h-2.547V212.917h2.547v7.061l3.333-7.061h2.547l-3.542,7.224,3.542,8.983h-2.616Z" transform="translate(-256.23 -212.917)" fill="#fff"/>
        </g>
      </g>
      <g id="Grupo_9336" data-name="Grupo 9336" transform="translate(232.361 69.065)">
        <path id="Trazado_18868" data-name="Trazado 18868" d="M436.594,120.2h0V105.9H412.268v14.3h0a38.678,38.678,0,0,0-16.159,7.523h56.645A38.684,38.684,0,0,0,436.594,120.2Z" transform="translate(-381.328 -84.111)" fill="#f2f2f2"/>
        <path id="Trazado_18869" data-name="Trazado 18869" d="M457.329,188.547v-7.384a2.528,2.528,0,0,0-2.133-2.5v-5.415a2.07,2.07,0,0,0,2.072-2.175,38.78,38.78,0,0,0-14.721-28.288H385.9a38.78,38.78,0,0,0-14.721,28.288,2.07,2.07,0,0,0,2.072,2.175v5.415a2.528,2.528,0,0,0-2.133,2.5v7.384a2.529,2.529,0,0,0,2.133,2.5v7.368a2.529,2.529,0,0,0-2.133,2.5v7.384a2.529,2.529,0,0,0,2.133,2.5v7.368a2.529,2.529,0,0,0-2.133,2.5v7.384a2.528,2.528,0,0,0,2.133,2.5V237.9a2.528,2.528,0,0,0-2.133,2.5v7.384a2.528,2.528,0,0,0,2.133,2.5v7.369a2.528,2.528,0,0,0-2.133,2.5v7.384a2.529,2.529,0,0,0,2.133,2.5v5.437a1.978,1.978,0,0,0-1.957,2.277,14.727,14.727,0,0,0,14.548,12.446h56.761a14.727,14.727,0,0,0,14.548-12.446,1.979,1.979,0,0,0-1.958-2.277v-5.437a2.529,2.529,0,0,0,2.133-2.5v-7.384a2.528,2.528,0,0,0-2.133-2.5v-7.369a2.528,2.528,0,0,0,2.133-2.5V240.4a2.528,2.528,0,0,0-2.133-2.5v-7.369a2.528,2.528,0,0,0,2.133-2.5v-7.384a2.529,2.529,0,0,0-2.133-2.5v-7.368a2.529,2.529,0,0,0,2.133-2.5v-7.384a2.529,2.529,0,0,0-2.133-2.5v-7.368A2.529,2.529,0,0,0,457.329,188.547Z" transform="translate(-371.122 -99.177)" fill="#fcea04"/>
        <path id="Trazado_18870" data-name="Trazado 18870" d="M456.161,120.2h0V105.9H444.016v21.82h28.3A38.684,38.684,0,0,0,456.161,120.2Z" transform="translate(-400.895 -84.111)" fill="#e2e2e2"/>
        <path id="Trazado_18871" data-name="Trazado 18871" d="M487.1,188.547v-7.384a2.528,2.528,0,0,0-2.133-2.5v-5.415a2.07,2.07,0,0,0,2.072-2.175,38.78,38.78,0,0,0-14.721-28.288h-28.3V290.183h28.363a14.727,14.727,0,0,0,14.548-12.446,1.979,1.979,0,0,0-1.958-2.277v-5.437a2.529,2.529,0,0,0,2.133-2.5v-7.384a2.528,2.528,0,0,0-2.133-2.5v-7.369a2.528,2.528,0,0,0,2.133-2.5V240.4a2.528,2.528,0,0,0-2.133-2.5v-7.369a2.528,2.528,0,0,0,2.133-2.5v-7.384a2.529,2.529,0,0,0-2.133-2.5v-7.368a2.529,2.529,0,0,0,2.133-2.5v-7.384a2.529,2.529,0,0,0-2.133-2.5v-7.368A2.529,2.529,0,0,0,487.1,188.547Z" transform="translate(-400.895 -99.177)" fill="#fccf02"/>
        <path id="Trazado_18872" data-name="Trazado 18872" d="M441.014,101.5H412.985a5.418,5.418,0,0,1-5.207-3.849L402.828,81.5a9.615,9.615,0,0,1,9.193-12.434h29.958A9.615,9.615,0,0,1,451.172,81.5L446.22,97.65A5.417,5.417,0,0,1,441.014,101.5ZM412.021,72.266a6.415,6.415,0,0,0-6.133,8.295l4.951,16.151a2.234,2.234,0,0,0,2.147,1.587h28.029a2.233,2.233,0,0,0,2.146-1.587l4.951-16.151a6.415,6.415,0,0,0-6.133-8.295Z" transform="translate(-383.896 -69.065)" fill="#fcce08"/>
        <path id="Trazado_18873" data-name="Trazado 18873" d="M466.709,72.964a9.527,9.527,0,0,0-7.732-3.9H444.016v3.2h14.961a6.415,6.415,0,0,1,6.133,8.295l-4.951,16.151a2.233,2.233,0,0,1-2.146,1.587h-14v3.2h14a5.417,5.417,0,0,0,5.206-3.85L468.171,81.5A9.527,9.527,0,0,0,466.709,72.964Z" transform="translate(-400.895 -69.065)" fill="#f6af00"/>
        <path id="Trazado_18874" data-name="Trazado 18874" d="M445.906,90.848H422.619a2.44,2.44,0,0,0-2.44,2.44v11h28.167v-11A2.44,2.44,0,0,0,445.906,90.848Z" transform="translate(-391.159 -77.962)" fill="#fcce08"/>
        <path id="Trazado_18875" data-name="Trazado 18875" d="M455.605,90.848H444.016v13.443h14.066V93.325A2.477,2.477,0,0,0,455.605,90.848Z" transform="translate(-400.895 -77.962)" fill="#f6af00"/>
        <rect id="Rectángulo_2316" data-name="Rectángulo 2316" width="28.167" height="7.272" transform="translate(29.02 29.207)" fill="#fcce08"/>
        <rect id="Rectángulo_2317" data-name="Rectángulo 2317" width="14.066" height="7.272" transform="translate(43.121 29.207)" fill="#f6af00"/>
      </g>
      <g id="Grupo_9338" data-name="Grupo 9338" transform="translate(203.207 111.703)">
        <path id="Trazado_18876" data-name="Trazado 18876" d="M352.169,158.733h0V155.7h1.516a1.138,1.138,0,0,0,0-2.276h-1.516V147H340.221v6.424H338.7a1.138,1.138,0,0,0,0,2.276h1.516v3.034h0a31.72,31.72,0,0,0-8.9,8.665h29.744A31.713,31.713,0,0,0,352.169,158.733Z" transform="translate(-325.712 -143.534)" fill="#f2f2f2"/>
        <path id="Trazado_18877" data-name="Trazado 18877" d="M361.391,239.87V199.486a1.385,1.385,0,0,0,1.38-1.453,31.748,31.748,0,0,0-5.578-16.551H327.449a31.748,31.748,0,0,0-5.578,16.551,1.385,1.385,0,0,0,1.38,1.453V239.87a1.413,1.413,0,0,0-1.413,1.413v64.539a7.022,7.022,0,0,0,6.817,7.067h.118a6.925,6.925,0,0,0,5.755-3.067,1.228,1.228,0,0,1,1.024-.551,1.2,1.2,0,0,1,1.008.542,6.933,6.933,0,0,0,11.522,0,1.206,1.206,0,0,1,1.008-.542,1.228,1.228,0,0,1,1.024.551,6.926,6.926,0,0,0,5.755,3.067h.118a7.022,7.022,0,0,0,6.817-7.067V241.282A1.413,1.413,0,0,0,361.391,239.87Z" transform="translate(-321.838 -157.619)" fill="#e8bc03"/>
        <path id="Trazado_18878" data-name="Trazado 18878" d="M362.433,158.733h0V155.7h1.516a1.138,1.138,0,0,0,0-2.276h-1.516V147h-5.974s0,8.033-.007,20.4H371.33A31.712,31.712,0,0,0,362.433,158.733Z" transform="translate(-335.976 -143.534)" fill="#e2e2e2"/>
        <path id="Trazado_18879" data-name="Trazado 18879" d="M375.516,239.87V199.486a1.385,1.385,0,0,0,1.38-1.453,31.748,31.748,0,0,0-5.578-16.551H356.44c-.012,41.4-.035,131.407.007,131.407a6.924,6.924,0,0,0,5.761-3.076,1.206,1.206,0,0,1,1.008-.542,1.228,1.228,0,0,1,1.024.551,6.926,6.926,0,0,0,5.755,3.067h.118a7.022,7.022,0,0,0,6.817-7.067V241.282A1.413,1.413,0,0,0,375.516,239.87Z" transform="translate(-335.964 -157.619)" fill="#d69f05"/>
        <path id="Trazado_18880" data-name="Trazado 18880" d="M356.587,141.143h-11.3a2.354,2.354,0,0,0-2.354,2.354v7.534h16.01V143.5A2.354,2.354,0,0,0,356.587,141.143Z" transform="translate(-330.453 -141.143)" fill="#388e38"/>
        <path id="Trazado_18881" data-name="Trazado 18881" d="M362.123,141.143h-5.638v9.888h7.992V143.5A2.354,2.354,0,0,0,362.123,141.143Z" transform="translate(-335.989 -141.143)" fill="#227d37"/>
        <rect id="Rectángulo_2318" data-name="Rectángulo 2318" width="4.789" height="115.732" rx="2.395" transform="translate(8.23 31.23)" fill="#fdd900"/>
        <rect id="Rectángulo_2319" data-name="Rectángulo 2319" width="19.07" height="40.384" transform="translate(1.413 41.867)" fill="#388e38"/>
        <rect id="Rectángulo_2320" data-name="Rectángulo 2320" width="19.07" height="40.384" transform="translate(20.483 41.867)" fill="#227d37"/>
        <g id="Grupo_9337" data-name="Grupo 9337" transform="translate(9.212 52.427)">
          <path id="Trazado_18882" data-name="Trazado 18882" d="M337.41,234.366a4.777,4.777,0,0,1,1.123-3.409,5.008,5.008,0,0,1,6.478,0,4.779,4.779,0,0,1,1.123,3.409v9.508a4.776,4.776,0,0,1-1.123,3.409,5.008,5.008,0,0,1-6.478,0,4.773,4.773,0,0,1-1.123-3.409Zm2.874,9.69a1.941,1.941,0,0,0,.4,1.4,1.654,1.654,0,0,0,2.168,0,1.943,1.943,0,0,0,.4-1.4v-9.874a1.944,1.944,0,0,0-.4-1.4,1.655,1.655,0,0,0-2.168,0,1.941,1.941,0,0,0-.4,1.4Z" transform="translate(-337.41 -229.768)" fill="#fff"/>
          <path id="Trazado_18883" data-name="Trazado 18883" d="M355.293,230.122h2.873v18.284h-2.873Z" transform="translate(-344.714 -229.913)" fill="#fff"/>
          <path id="Trazado_18884" data-name="Trazado 18884" d="M363.682,230.122h2.874v15.672h4.727v2.612h-7.6Z" transform="translate(-348.141 -229.913)" fill="#fff"/>
        </g>
      </g>
      <g id="Grupo_9341" data-name="Grupo 9341" transform="translate(96.14 184.207)">
        <g id="Grupo_9339" data-name="Grupo 9339">
          <path id="Trazado_18885" data-name="Trazado 18885" d="M200.822,263.707H167.294c-12.588,0-23.171,6.192-26.219,14.586a3.692,3.692,0,0,0,3.252,4.959v40.373A5.274,5.274,0,0,0,149.6,328.9h51.22Z" transform="translate(-140.848 -263.707)" fill="#ea9d49"/>
          <path id="Trazado_18886" data-name="Trazado 18886" d="M197.751,278.293A3.693,3.693,0,0,0,201,283.252v40.665a4.983,4.983,0,0,0,4.983,4.982H223.97V263.707C211.383,263.707,200.8,269.9,197.751,278.293Z" transform="translate(-163.997 -263.707)" fill="#f4c376"/>
          <path id="Trazado_18887" data-name="Trazado 18887" d="M268.449,278.293c-3.048-8.394-13.631-14.586-26.219-14.586V328.9h17.984a4.983,4.983,0,0,0,4.983-4.982V283.252A3.692,3.692,0,0,0,268.449,278.293Z" transform="translate(-182.257 -263.707)" fill="#f4ae58"/>
        </g>
        <g id="Grupo_9340" data-name="Grupo 9340" transform="translate(55.967)">
          <path id="Trazado_18888" data-name="Trazado 18888" d="M288.123,278.293c-3.048-8.394-13.631-14.586-26.219-14.586s-23.171,6.192-26.219,14.586a3.692,3.692,0,0,0,3.252,4.959v40.373a5.275,5.275,0,0,0,5.275,5.274H279.6a5.275,5.275,0,0,0,5.275-5.274V283.252A3.692,3.692,0,0,0,288.123,278.293Z" transform="translate(-235.458 -263.707)" fill="#ea9d49"/>
          <path id="Trazado_18889" data-name="Trazado 18889" d="M245.131,278.293a3.693,3.693,0,0,0,3.252,4.959v40.665a4.983,4.983,0,0,0,4.983,4.982H271.35V263.707C258.763,263.707,248.18,269.9,245.131,278.293Z" transform="translate(-239.316 -263.707)" fill="#f4c376"/>
          <path id="Trazado_18890" data-name="Trazado 18890" d="M315.829,278.293c-3.048-8.394-13.631-14.586-26.219-14.586V328.9h17.984a4.983,4.983,0,0,0,4.983-4.982V283.252A3.692,3.692,0,0,0,315.829,278.293Z" transform="translate(-257.576 -263.707)" fill="#f4ae58"/>
        </g>
      </g>
      <g id="Grupo_9342" data-name="Grupo 9342" transform="translate(466.883 107.607)">
        <path id="Trazado_18891" data-name="Trazado 18891" d="M801.774,154.055h0v-3.422h1.71a1.283,1.283,0,1,0,0-2.567h-1.71v-7.245H788.3v7.245h-1.71a1.283,1.283,0,0,0,0,2.567h1.71v3.422h0a35.764,35.764,0,0,0-10.035,9.773h33.544A35.773,35.773,0,0,0,801.774,154.055Z" transform="translate(-771.937 -136.915)" fill="#f2f2f2"/>
        <path id="Trazado_18892" data-name="Trazado 18892" d="M812.174,245.559V200.016a1.561,1.561,0,0,0,1.556-1.639,35.79,35.79,0,0,0-6.29-18.665H773.9a35.8,35.8,0,0,0-6.291,18.665,1.562,1.562,0,0,0,1.556,1.639v45.544a1.593,1.593,0,0,0-1.593,1.593v72.784a7.919,7.919,0,0,0,7.687,7.97h.133a7.81,7.81,0,0,0,6.491-3.459,1.385,1.385,0,0,1,1.154-.622,1.36,1.36,0,0,1,1.138.612,7.819,7.819,0,0,0,12.994,0,1.36,1.36,0,0,1,1.137-.612,1.386,1.386,0,0,1,1.155.622,7.81,7.81,0,0,0,6.491,3.459h.133a7.919,7.919,0,0,0,7.687-7.97V247.152A1.593,1.593,0,0,0,812.174,245.559Z" transform="translate(-767.568 -152.8)" fill="#63332e"/>
        <path id="Trazado_18893" data-name="Trazado 18893" d="M813.349,154.055h0v-3.422h1.71a1.283,1.283,0,1,0,0-2.567h-1.71v-7.245h-6.737s0,9.06-.008,23.006h16.78A35.772,35.772,0,0,0,813.349,154.055Z" transform="translate(-783.512 -136.915)" fill="#e2e2e2"/>
        <path id="Trazado_18894" data-name="Trazado 18894" d="M828.1,245.559V200.016a1.561,1.561,0,0,0,1.556-1.639,35.79,35.79,0,0,0-6.29-18.665H806.59c-.014,46.692-.04,148.2.008,148.2a7.81,7.81,0,0,0,6.5-3.469,1.36,1.36,0,0,1,1.137-.612,1.386,1.386,0,0,1,1.155.622,7.81,7.81,0,0,0,6.491,3.459h.133a7.919,7.919,0,0,0,7.687-7.97V247.152A1.593,1.593,0,0,0,828.1,245.559Z" transform="translate(-783.498 -152.8)" fill="#4c241e"/>
        <path id="Trazado_18895" data-name="Trazado 18895" d="M806.756,134.218H794.012a2.655,2.655,0,0,0-2.655,2.655v8.5h18.054v-8.5A2.655,2.655,0,0,0,806.756,134.218Z" transform="translate(-777.284 -134.218)" fill="#e3312f"/>
        <path id="Trazado_18896" data-name="Trazado 18896" d="M813,134.218h-6.357V145.37h9.012v-8.5A2.655,2.655,0,0,0,813,134.218Z" transform="translate(-783.527 -134.218)" fill="#c92828"/>
        <rect id="Rectángulo_2321" data-name="Rectángulo 2321" width="5.401" height="130.519" rx="2.701" transform="translate(9.281 35.22)" fill="#774643"/>
        <rect id="Rectángulo_2322" data-name="Rectángulo 2322" width="21.506" height="45.543" transform="translate(1.593 47.216)" fill="#e3312f"/>
        <rect id="Rectángulo_2323" data-name="Rectángulo 2323" width="21.506" height="45.543" transform="translate(23.1 47.216)" fill="#c92828"/>
      </g>
      <g id="Grupo_9367" data-name="Grupo 9367" transform="translate(302.837 105.509)">
        <rect id="Rectángulo_2324" data-name="Rectángulo 2324" width="49.781" height="156.535" transform="translate(0 0)" fill="#e3312f"/>
        <rect id="Rectángulo_2325" data-name="Rectángulo 2325" width="49.781" height="156.535" transform="translate(49.781 0)" fill="#c92828"/>
        <rect id="Rectángulo_2326" data-name="Rectángulo 2326" width="49.781" height="12.689" transform="translate(0 0)" fill="#ff9c39"/>
        <rect id="Rectángulo_2327" data-name="Rectángulo 2327" width="49.781" height="12.689" transform="translate(49.781 0)" fill="#f27900"/>
        <g id="Grupo_9366" data-name="Grupo 9366" transform="translate(6.38 43.991)">
          <g id="Grupo_9343" data-name="Grupo 9343" transform="translate(13.395 11.049)">
            <path id="Trazado_18897" data-name="Trazado 18897" d="M534.576,223.714v4.373a2.068,2.068,0,1,1,0,4.137V236.6a6.442,6.442,0,1,0,0-12.884Z" transform="translate(-528.135 -223.714)" fill="#e8ac34"/>
            <path id="Trazado_18898" data-name="Trazado 18898" d="M528.06,230.156a2.068,2.068,0,0,1,2.068-2.069v-4.373a6.442,6.442,0,0,0,0,12.884v-4.373A2.068,2.068,0,0,1,528.06,230.156Z" transform="translate(-523.687 -223.714)" fill="#ffcd5f"/>
          </g>
          <g id="Grupo_9344" data-name="Grupo 9344" transform="translate(24.551 18.308)">
            <path id="Trazado_18899" data-name="Trazado 18899" d="M553.435,235.984v4.373a2.068,2.068,0,0,1,0,4.137v4.373a6.442,6.442,0,0,0,0-12.884Z" transform="translate(-546.994 -235.984)" fill="#5e2f45"/>
            <path id="Trazado_18900" data-name="Trazado 18900" d="M546.919,242.426a2.068,2.068,0,0,1,2.068-2.068v-4.373a6.442,6.442,0,0,0,0,12.884v-4.373A2.068,2.068,0,0,1,546.919,242.426Z" transform="translate(-542.546 -235.984)" fill="#713d53"/>
          </g>
          <g id="Grupo_9345" data-name="Grupo 9345" transform="translate(24.567 3.89)">
            <path id="Trazado_18901" data-name="Trazado 18901" d="M553.462,211.611v4.373a2.068,2.068,0,1,1,0,4.137v4.373a6.441,6.441,0,1,0,0-12.883Z" transform="translate(-547.021 -211.611)" fill="#e86003"/>
            <path id="Trazado_18902" data-name="Trazado 18902" d="M546.946,218.052a2.068,2.068,0,0,1,2.068-2.069v-4.373a6.441,6.441,0,1,0,0,12.883v-4.373A2.068,2.068,0,0,1,546.946,218.052Z" transform="translate(-542.573 -211.611)" fill="#f27900"/>
          </g>
          <g id="Grupo_9346" data-name="Grupo 9346" transform="translate(60.304 24.187)">
            <path id="Trazado_18903" data-name="Trazado 18903" d="M613.874,245.922V250.3a2.068,2.068,0,1,1,0,4.136V258.8a6.441,6.441,0,1,0,0-12.883Z" transform="translate(-607.432 -245.922)" fill="#e86003"/>
            <path id="Trazado_18904" data-name="Trazado 18904" d="M607.357,252.363a2.068,2.068,0,0,1,2.069-2.068v-4.373a6.441,6.441,0,1,0,0,12.883v-4.373A2.068,2.068,0,0,1,607.357,252.363Z" transform="translate(-602.984 -245.922)" fill="#f27900"/>
          </g>
          <g id="Grupo_9347" data-name="Grupo 9347" transform="translate(0 34.487)">
            <path id="Trazado_18905" data-name="Trazado 18905" d="M511.933,263.335v4.373a2.068,2.068,0,0,1,0,4.137v4.373a6.442,6.442,0,0,0,0-12.884Z" transform="translate(-505.492 -263.335)" fill="#e86003"/>
            <path id="Trazado_18906" data-name="Trazado 18906" d="M505.417,269.777a2.068,2.068,0,0,1,2.068-2.069v-4.373a6.442,6.442,0,0,0,0,12.884v-4.373A2.068,2.068,0,0,1,505.417,269.777Z" transform="translate(-501.044 -263.335)" fill="#f27900"/>
          </g>
          <g id="Grupo_9348" data-name="Grupo 9348" transform="translate(37.758)">
            <path id="Trazado_18907" data-name="Trazado 18907" d="M575.761,205.036v4.373a2.068,2.068,0,1,1,0,4.137v4.373a6.441,6.441,0,1,0,0-12.883Z" transform="translate(-569.32 -205.036)" fill="#737826"/>
            <path id="Trazado_18908" data-name="Trazado 18908" d="M569.245,211.478a2.068,2.068,0,0,1,2.068-2.068v-4.373a6.441,6.441,0,0,0,0,12.883v-4.373A2.068,2.068,0,0,1,569.245,211.478Z" transform="translate(-564.872 -205.036)" fill="#909c48"/>
          </g>
          <g id="Grupo_9349" data-name="Grupo 9349" transform="translate(56.571 40.697)">
            <path id="Trazado_18909" data-name="Trazado 18909" d="M607.564,273.832v4.373a2.068,2.068,0,0,1,0,4.136v4.373a6.441,6.441,0,0,0,0-12.883Z" transform="translate(-601.122 -273.832)" fill="#737826"/>
            <path id="Trazado_18910" data-name="Trazado 18910" d="M601.048,280.273a2.068,2.068,0,0,1,2.068-2.068v-4.373a6.441,6.441,0,1,0,0,12.883v-4.373A2.068,2.068,0,0,1,601.048,280.273Z" transform="translate(-596.675 -273.832)" fill="#909c48"/>
          </g>
          <g id="Grupo_9350" data-name="Grupo 9350" transform="translate(35.553 56.296)">
            <path id="Trazado_18911" data-name="Trazado 18911" d="M572.034,300.2v4.373a2.068,2.068,0,0,1,0,4.137v4.373a6.441,6.441,0,0,0,0-12.883Z" transform="translate(-565.593 -300.201)" fill="#737826"/>
            <path id="Trazado_18912" data-name="Trazado 18912" d="M565.518,306.642a2.068,2.068,0,0,1,2.068-2.068V300.2a6.441,6.441,0,0,0,0,12.883v-4.373A2.068,2.068,0,0,1,565.518,306.642Z" transform="translate(-561.145 -300.201)" fill="#909c48"/>
          </g>
          <g id="Grupo_9351" data-name="Grupo 9351" transform="translate(4.619 21.679)">
            <path id="Trazado_18913" data-name="Trazado 18913" d="M519.743,241.683v4.373a2.068,2.068,0,1,1,0,4.136v4.373a6.441,6.441,0,1,0,0-12.883Z" transform="translate(-513.301 -241.683)" fill="#547a91"/>
            <path id="Trazado_18914" data-name="Trazado 18914" d="M513.226,248.125a2.068,2.068,0,0,1,2.069-2.068v-4.373a6.441,6.441,0,1,0,0,12.883v-4.373A2.068,2.068,0,0,1,513.226,248.125Z" transform="translate(-508.853 -241.683)" fill="#698ea8"/>
          </g>
          <g id="Grupo_9352" data-name="Grupo 9352" transform="translate(50.642 4.861)">
            <path id="Trazado_18915" data-name="Trazado 18915" d="M597.54,213.254v4.373a2.068,2.068,0,0,1,0,4.137v4.373a6.442,6.442,0,0,0,0-12.884Z" transform="translate(-591.099 -213.254)" fill="#e8ac34"/>
            <path id="Trazado_18916" data-name="Trazado 18916" d="M591.024,219.7a2.068,2.068,0,0,1,2.069-2.068v-4.373a6.442,6.442,0,0,0,0,12.884v-4.373A2.069,2.069,0,0,1,591.024,219.7Z" transform="translate(-586.651 -213.254)" fill="#ffcd5f"/>
          </g>
          <g id="Grupo_9353" data-name="Grupo 9353" transform="translate(13.62 42.465)">
            <path id="Trazado_18917" data-name="Trazado 18917" d="M534.957,276.82v4.373a2.068,2.068,0,1,1,0,4.137V289.7a6.441,6.441,0,1,0,0-12.883Z" transform="translate(-528.516 -276.82)" fill="#e8ac34"/>
            <path id="Trazado_18918" data-name="Trazado 18918" d="M528.441,283.262a2.068,2.068,0,0,1,2.068-2.068V276.82a6.441,6.441,0,0,0,0,12.883V285.33A2.068,2.068,0,0,1,528.441,283.262Z" transform="translate(-524.068 -276.82)" fill="#ffcd5f"/>
          </g>
          <g id="Grupo_9354" data-name="Grupo 9354" transform="translate(69.454 34.487)">
            <path id="Trazado_18919" data-name="Trazado 18919" d="M629.342,263.335v4.373a2.068,2.068,0,1,1,0,4.137v4.373a6.442,6.442,0,0,0,0-12.884Z" transform="translate(-622.901 -263.335)" fill="#e8ac34"/>
            <path id="Trazado_18920" data-name="Trazado 18920" d="M622.826,269.777a2.068,2.068,0,0,1,2.068-2.069v-4.373a6.442,6.442,0,0,0,0,12.884v-4.373A2.068,2.068,0,0,1,622.826,269.777Z" transform="translate(-618.453 -263.335)" fill="#ffcd5f"/>
          </g>
          <g id="Grupo_9355" data-name="Grupo 9355" transform="translate(41.491 42.999)">
            <path id="Trazado_18921" data-name="Trazado 18921" d="M582.071,277.724V282.1a2.068,2.068,0,0,1,0,4.137v4.373a6.442,6.442,0,0,0,0-12.884Z" transform="translate(-575.63 -277.724)" fill="#e8ac34"/>
            <path id="Trazado_18922" data-name="Trazado 18922" d="M575.555,284.165a2.068,2.068,0,0,1,2.068-2.068v-4.373a6.442,6.442,0,0,0,0,12.884v-4.373A2.068,2.068,0,0,1,575.555,284.165Z" transform="translate(-571.182 -277.724)" fill="#ffcd5f"/>
          </g>
          <g id="Grupo_9356" data-name="Grupo 9356" transform="translate(34.204 28.046)">
            <path id="Trazado_18923" data-name="Trazado 18923" d="M569.753,252.446v4.373a2.068,2.068,0,0,1,0,4.137v4.373a6.442,6.442,0,0,0,0-12.884Z" transform="translate(-563.312 -252.446)" fill="#e8ac34"/>
            <path id="Trazado_18924" data-name="Trazado 18924" d="M563.237,258.887a2.068,2.068,0,0,1,2.069-2.068v-4.373a6.442,6.442,0,0,0,0,12.884v-4.373A2.069,2.069,0,0,1,563.237,258.887Z" transform="translate(-558.864 -252.446)" fill="#ffcd5f"/>
          </g>
          <g id="Grupo_9357" data-name="Grupo 9357" transform="translate(36.401 12.883)">
            <path id="Trazado_18925" data-name="Trazado 18925" d="M573.467,226.814v4.373a2.068,2.068,0,0,1,0,4.137V239.7a6.442,6.442,0,0,0,0-12.884Z" transform="translate(-567.026 -226.814)" fill="#e86003"/>
            <path id="Trazado_18926" data-name="Trazado 18926" d="M566.951,233.255a2.068,2.068,0,0,1,2.068-2.068v-4.373a6.442,6.442,0,0,0,0,12.884v-4.373A2.068,2.068,0,0,1,566.951,233.255Z" transform="translate(-562.578 -226.814)" fill="#f27900"/>
          </g>
          <g id="Grupo_9358" data-name="Grupo 9358" transform="translate(27.771 41.441)">
            <path id="Trazado_18927" data-name="Trazado 18927" d="M558.88,275.09v4.373a2.068,2.068,0,1,1,0,4.136v4.373a6.441,6.441,0,1,0,0-12.883Z" transform="translate(-552.438 -275.09)" fill="#e86003"/>
            <path id="Trazado_18928" data-name="Trazado 18928" d="M552.363,281.531a2.068,2.068,0,0,1,2.069-2.068V275.09a6.441,6.441,0,1,0,0,12.883V283.6A2.068,2.068,0,0,1,552.363,281.531Z" transform="translate(-547.99 -275.09)" fill="#f27900"/>
          </g>
          <g id="Grupo_9359" data-name="Grupo 9359" transform="translate(48.824 17.745)">
            <path id="Trazado_18929" data-name="Trazado 18929" d="M594.467,235.033v4.373a2.068,2.068,0,1,1,0,4.136v4.373a6.441,6.441,0,1,0,0-12.883Z" transform="translate(-588.026 -235.033)" fill="#547a91"/>
            <path id="Trazado_18930" data-name="Trazado 18930" d="M587.951,241.474a2.068,2.068,0,0,1,2.068-2.068v-4.373a6.441,6.441,0,0,0,0,12.883v-4.373A2.068,2.068,0,0,1,587.951,241.474Z" transform="translate(-583.578 -235.033)" fill="#698ea8"/>
          </g>
          <g id="Grupo_9360" data-name="Grupo 9360" transform="translate(20.062 30.628)">
            <path id="Trazado_18931" data-name="Trazado 18931" d="M545.847,256.811v4.373a2.068,2.068,0,0,1,0,4.137v4.373a6.441,6.441,0,1,0,0-12.883Z" transform="translate(-539.405 -256.811)" fill="#737826"/>
            <path id="Trazado_18932" data-name="Trazado 18932" d="M539.33,263.253a2.068,2.068,0,0,1,2.069-2.068v-4.373a6.441,6.441,0,1,0,0,12.883v-4.373A2.069,2.069,0,0,1,539.33,263.253Z" transform="translate(-534.957 -256.811)" fill="#909c48"/>
          </g>
          <g id="Grupo_9361" data-name="Grupo 9361" transform="translate(73.187 21.604)">
            <path id="Trazado_18933" data-name="Trazado 18933" d="M635.652,241.557v4.373a2.068,2.068,0,0,1,0,4.137v4.373a6.441,6.441,0,1,0,0-12.883Z" transform="translate(-629.211 -241.557)" fill="#547a91"/>
            <path id="Trazado_18934" data-name="Trazado 18934" d="M629.136,248a2.068,2.068,0,0,1,2.068-2.068v-4.373a6.441,6.441,0,0,0,0,12.883v-4.373A2.068,2.068,0,0,1,629.136,248Z" transform="translate(-624.763 -241.557)" fill="#698ea8"/>
          </g>
          <g id="Grupo_9362" data-name="Grupo 9362" transform="translate(49.918 54.324)">
            <path id="Trazado_18935" data-name="Trazado 18935" d="M596.317,296.868v4.373a2.068,2.068,0,0,1,0,4.137v4.373a6.442,6.442,0,0,0,0-12.884Z" transform="translate(-589.875 -296.868)" fill="#547a91"/>
            <path id="Trazado_18936" data-name="Trazado 18936" d="M589.8,303.31a2.068,2.068,0,0,1,2.068-2.068v-4.373a6.442,6.442,0,0,0,0,12.884v-4.373A2.068,2.068,0,0,1,589.8,303.31Z" transform="translate(-585.428 -296.868)" fill="#698ea8"/>
          </g>
          <g id="Grupo_9363" data-name="Grupo 9363" transform="translate(63.013 11.303)">
            <path id="Trazado_18937" data-name="Trazado 18937" d="M618.453,224.143v4.373a2.068,2.068,0,0,1,0,4.137v4.373a6.442,6.442,0,0,0,0-12.884Z" transform="translate(-612.012 -224.143)" fill="#5e2f45"/>
            <path id="Trazado_18938" data-name="Trazado 18938" d="M611.937,230.585a2.068,2.068,0,0,1,2.068-2.069v-4.373a6.442,6.442,0,0,0,0,12.884v-4.373A2.068,2.068,0,0,1,611.937,230.585Z" transform="translate(-607.564 -224.143)" fill="#713d53"/>
          </g>
          <g id="Grupo_9364" data-name="Grupo 9364" transform="translate(47.421 31.14)">
            <path id="Trazado_18939" data-name="Trazado 18939" d="M592.095,257.676v4.373a2.068,2.068,0,0,1,0,4.137v4.373a6.442,6.442,0,0,0,0-12.884Z" transform="translate(-585.654 -257.676)" fill="#5e2f45"/>
            <path id="Trazado_18940" data-name="Trazado 18940" d="M585.579,264.117a2.068,2.068,0,0,1,2.068-2.068v-4.373a6.442,6.442,0,0,0,0,12.884v-4.373A2.068,2.068,0,0,1,585.579,264.117Z" transform="translate(-581.206 -257.676)" fill="#713d53"/>
          </g>
          <g id="Grupo_9365" data-name="Grupo 9365" transform="translate(21.409 54.324)">
            <path id="Trazado_18941" data-name="Trazado 18941" d="M548.124,296.868v4.373a2.068,2.068,0,0,1,0,4.137v4.373a6.442,6.442,0,0,0,0-12.884Z" transform="translate(-541.682 -296.868)" fill="#5e2f45"/>
            <path id="Trazado_18942" data-name="Trazado 18942" d="M541.607,303.31a2.068,2.068,0,0,1,2.069-2.068v-4.373a6.442,6.442,0,1,0,0,12.884v-4.373A2.069,2.069,0,0,1,541.607,303.31Z" transform="translate(-537.234 -296.868)" fill="#713d53"/>
          </g>
        </g>
      </g>
      <g id="Grupo_9379" data-name="Grupo 9379" transform="translate(302.837 105.509)">
        <rect id="Rectángulo_2328" data-name="Rectángulo 2328" width="49.781" height="156.535" transform="translate(0 0)" fill="#e3312f"/>
        <rect id="Rectángulo_2329" data-name="Rectángulo 2329" width="49.781" height="156.535" transform="translate(49.781 0)" fill="#c92828"/>
        <rect id="Rectángulo_2330" data-name="Rectángulo 2330" width="49.781" height="12.689" transform="translate(0 0)" fill="#ff9c39"/>
        <rect id="Rectángulo_2331" data-name="Rectángulo 2331" width="49.781" height="12.689" transform="translate(49.781 0)" fill="#f27900"/>
        <g id="Grupo_9378" data-name="Grupo 9378" transform="translate(6.38 43.991)">
          <g id="Grupo_9368" data-name="Grupo 9368" transform="translate(13.029 4.861)">
            <path id="Trazado_18943" data-name="Trazado 18943" d="M530.128,236.6a6.442,6.442,0,1,0-6.441-6.441A6.442,6.442,0,0,0,530.128,236.6Zm0-8.51a2.068,2.068,0,1,1-2.068,2.069A2.069,2.069,0,0,1,530.128,228.087Z" transform="translate(-523.321 -217.526)" fill="#ffcd5f"/>
            <path id="Trazado_18944" data-name="Trazado 18944" d="M593.092,213.254a6.442,6.442,0,1,0,6.442,6.441A6.442,6.442,0,0,0,593.092,213.254Zm0,8.51a2.068,2.068,0,1,1,2.068-2.069A2.069,2.069,0,0,1,593.092,221.764Z" transform="translate(-549.038 -213.254)" fill="#ffcd5f"/>
            <path id="Trazado_18945" data-name="Trazado 18945" d="M529.509,276.82a6.441,6.441,0,1,0,6.442,6.441A6.441,6.441,0,0,0,529.509,276.82Zm0,8.51a2.068,2.068,0,1,1,2.069-2.069A2.068,2.068,0,0,1,529.509,285.33Z" transform="translate(-523.068 -239.217)" fill="#ffcd5f"/>
            <path id="Trazado_18946" data-name="Trazado 18946" d="M624.895,263.335a6.442,6.442,0,1,0,6.441,6.442A6.442,6.442,0,0,0,624.895,263.335Zm0,8.51a2.068,2.068,0,1,1,2.069-2.068A2.068,2.068,0,0,1,624.895,271.845Z" transform="translate(-562.027 -233.709)" fill="#ffcd5f"/>
            <path id="Trazado_18947" data-name="Trazado 18947" d="M577.624,277.724a6.442,6.442,0,1,0,6.441,6.441A6.442,6.442,0,0,0,577.624,277.724Zm0,8.51a2.068,2.068,0,1,1,2.068-2.069A2.068,2.068,0,0,1,577.624,286.234Z" transform="translate(-542.72 -239.586)" fill="#ffcd5f"/>
            <path id="Trazado_18948" data-name="Trazado 18948" d="M571.747,258.887a6.441,6.441,0,1,0-6.441,6.442A6.441,6.441,0,0,0,571.747,258.887Zm-6.441,2.069a2.068,2.068,0,1,1,2.068-2.069A2.069,2.069,0,0,1,565.306,260.956Z" transform="translate(-537.689 -229.262)" fill="#ffcd5f"/>
          </g>
          <g id="Grupo_9374" data-name="Grupo 9374" transform="translate(0 3.889)">
            <g id="Grupo_9369" data-name="Grupo 9369" transform="translate(24.567)">
              <path id="Trazado_18949" data-name="Trazado 18949" d="M555.456,218.052a6.441,6.441,0,1,0-6.441,6.441A6.442,6.442,0,0,0,555.456,218.052Zm-8.51,0a2.068,2.068,0,1,1,2.068,2.068A2.068,2.068,0,0,1,546.946,218.052Z" transform="translate(-542.573 -211.61)" fill="#f27900"/>
            </g>
            <g id="Grupo_9370" data-name="Grupo 9370" transform="translate(60.304 20.298)">
              <path id="Trazado_18950" data-name="Trazado 18950" d="M609.426,245.922a6.441,6.441,0,1,0,6.441,6.441A6.442,6.442,0,0,0,609.426,245.922Zm0,8.51a2.068,2.068,0,1,1,2.068-2.068A2.068,2.068,0,0,1,609.426,254.432Z" transform="translate(-602.984 -245.922)" fill="#f27900"/>
            </g>
            <g id="Grupo_9371" data-name="Grupo 9371" transform="translate(0 30.598)">
              <path id="Trazado_18951" data-name="Trazado 18951" d="M507.486,263.335a6.442,6.442,0,1,0,6.441,6.442A6.442,6.442,0,0,0,507.486,263.335Zm0,8.51a2.068,2.068,0,1,1,2.068-2.068A2.068,2.068,0,0,1,507.486,271.845Z" transform="translate(-501.044 -263.335)" fill="#f27900"/>
            </g>
            <g id="Grupo_9372" data-name="Grupo 9372" transform="translate(36.401 8.994)">
              <path id="Trazado_18952" data-name="Trazado 18952" d="M569.019,226.814a6.442,6.442,0,1,0,6.442,6.442A6.442,6.442,0,0,0,569.019,226.814Zm0,8.51a2.068,2.068,0,1,1,2.068-2.068A2.068,2.068,0,0,1,569.019,235.324Z" transform="translate(-562.578 -226.814)" fill="#f27900"/>
            </g>
            <g id="Grupo_9373" data-name="Grupo 9373" transform="translate(27.771 37.552)">
              <path id="Trazado_18953" data-name="Trazado 18953" d="M554.432,275.09a6.441,6.441,0,1,0,6.441,6.441A6.442,6.442,0,0,0,554.432,275.09Zm0,8.51a2.068,2.068,0,1,1,2.068-2.068A2.068,2.068,0,0,1,554.432,283.6Z" transform="translate(-547.99 -275.09)" fill="#f27900"/>
            </g>
          </g>
          <g id="Grupo_9375" data-name="Grupo 9375" transform="translate(20.062)">
            <path id="Trazado_18954" data-name="Trazado 18954" d="M571.313,205.036a6.441,6.441,0,1,0,6.442,6.441A6.441,6.441,0,0,0,571.313,205.036Zm0,8.51a2.068,2.068,0,1,1,2.069-2.068A2.068,2.068,0,0,1,571.313,213.546Z" transform="translate(-547.176 -205.036)" fill="#909c48"/>
            <path id="Trazado_18955" data-name="Trazado 18955" d="M603.117,273.832a6.441,6.441,0,1,0,6.441,6.441A6.441,6.441,0,0,0,603.117,273.832Zm0,8.51a2.068,2.068,0,1,1,2.068-2.068A2.068,2.068,0,0,1,603.117,282.342Z" transform="translate(-560.165 -233.135)" fill="#909c48"/>
            <path id="Trazado_18956" data-name="Trazado 18956" d="M567.586,300.2a6.441,6.441,0,1,0,6.442,6.441A6.441,6.441,0,0,0,567.586,300.2Zm0,8.51a2.068,2.068,0,1,1,2.068-2.068A2.068,2.068,0,0,1,567.586,308.711Z" transform="translate(-545.653 -243.905)" fill="#909c48"/>
            <path id="Trazado_18957" data-name="Trazado 18957" d="M541.4,256.811a6.441,6.441,0,1,0,6.442,6.441A6.442,6.442,0,0,0,541.4,256.811Zm0,8.51a2.068,2.068,0,1,1,2.068-2.069A2.069,2.069,0,0,1,541.4,265.321Z" transform="translate(-534.957 -226.183)" fill="#909c48"/>
          </g>
          <g id="Grupo_9376" data-name="Grupo 9376" transform="translate(4.619 17.745)">
            <path id="Trazado_18958" data-name="Trazado 18958" d="M515.3,241.683a6.441,6.441,0,1,0,6.441,6.441A6.442,6.442,0,0,0,515.3,241.683Zm0,8.51a2.068,2.068,0,1,1,2.068-2.068A2.068,2.068,0,0,1,515.3,250.193Z" transform="translate(-508.853 -237.749)" fill="#698ea8"/>
            <path id="Trazado_18959" data-name="Trazado 18959" d="M590.019,247.916a6.441,6.441,0,1,0-6.441-6.441A6.441,6.441,0,0,0,590.019,247.916Zm0-8.51a2.068,2.068,0,1,1-2.068,2.068A2.068,2.068,0,0,1,590.019,239.406Z" transform="translate(-539.374 -235.033)" fill="#698ea8"/>
            <path id="Trazado_18960" data-name="Trazado 18960" d="M631.2,241.557A6.441,6.441,0,1,0,637.646,248,6.441,6.441,0,0,0,631.2,241.557Zm0,8.51A2.068,2.068,0,1,1,633.273,248,2.068,2.068,0,0,1,631.2,250.067Z" transform="translate(-556.195 -237.698)" fill="#698ea8"/>
            <path id="Trazado_18961" data-name="Trazado 18961" d="M591.87,296.868a6.442,6.442,0,1,0,6.441,6.441A6.441,6.441,0,0,0,591.87,296.868Zm0,8.51a2.068,2.068,0,1,1,2.068-2.069A2.068,2.068,0,0,1,591.87,305.378Z" transform="translate(-540.129 -260.289)" fill="#698ea8"/>
          </g>
          <g id="Grupo_9377" data-name="Grupo 9377" transform="translate(21.409 11.303)">
            <path id="Trazado_18962" data-name="Trazado 18962" d="M548.988,235.984a6.442,6.442,0,1,0,6.441,6.441A6.442,6.442,0,0,0,548.988,235.984Zm0,8.51a2.068,2.068,0,1,1,2.068-2.069A2.068,2.068,0,0,1,548.988,244.494Z" transform="translate(-539.404 -228.979)" fill="#713d53"/>
            <path id="Trazado_18963" data-name="Trazado 18963" d="M614.005,224.143a6.442,6.442,0,1,0,6.442,6.442A6.442,6.442,0,0,0,614.005,224.143Zm0,8.51a2.068,2.068,0,1,1,2.068-2.068A2.068,2.068,0,0,1,614.005,232.653Z" transform="translate(-565.96 -224.143)" fill="#713d53"/>
            <path id="Trazado_18964" data-name="Trazado 18964" d="M587.647,257.676a6.441,6.441,0,1,0,6.442,6.441A6.441,6.441,0,0,0,587.647,257.676Zm0,8.51a2.068,2.068,0,1,1,2.069-2.069A2.068,2.068,0,0,1,587.647,266.186Z" transform="translate(-555.195 -237.839)" fill="#713d53"/>
            <path id="Trazado_18965" data-name="Trazado 18965" d="M543.677,296.868a6.442,6.442,0,1,0,6.441,6.441A6.441,6.441,0,0,0,543.677,296.868Zm0,8.51a2.068,2.068,0,1,1,2.068-2.069A2.069,2.069,0,0,1,543.677,305.378Z" transform="translate(-537.235 -253.847)" fill="#713d53"/>
          </g>
        </g>
      </g>
      <g id="Grupo_9381" data-name="Grupo 9381" transform="translate(253.626 147.39)">
        <path id="Trazado_18966" data-name="Trazado 18966" d="M416.393,223.785l-6.969,18.967a38.376,38.376,0,0,0-2.354,13.236v75.284a8.309,8.309,0,0,0,8.309,8.309h32.714v-115.8Z" transform="translate(-407.069 -210.584)" fill="#42a0d3"/>
        <path id="Trazado_18967" data-name="Trazado 18967" d="M515.086,242.752l-6.969-18.967h-31.7v115.8h32.714a8.309,8.309,0,0,0,8.31-8.309V255.988A38.376,38.376,0,0,0,515.086,242.752Z" transform="translate(-435.393 -210.584)" fill="#1c75bc"/>
        <rect id="Rectángulo_2332" data-name="Rectángulo 2332" width="31.7" height="13.201" transform="translate(9.324 0)" fill="#1c75bc"/>
        <rect id="Rectángulo_2333" data-name="Rectángulo 2333" width="31.7" height="13.201" transform="translate(41.024 0)" fill="#0e649e"/>
        <path id="Trazado_18968" data-name="Trazado 18968" d="M420.812,288.85a3.868,3.868,0,0,0-3.868,3.868v28.3a3.868,3.868,0,0,0,3.868,3.868h31.314V288.85Z" transform="translate(-411.102 -237.159)" fill="#fff"/>
        <path id="Trazado_18969" data-name="Trazado 18969" d="M507.731,288.85H476.417v36.037h31.314a3.869,3.869,0,0,0,3.868-3.868v-28.3A3.868,3.868,0,0,0,507.731,288.85Z" transform="translate(-435.393 -237.159)" fill="#f2f2f2"/>
        <g id="Grupo_9380" data-name="Grupo 9380" transform="translate(14.848 59.573)">
          <path id="Trazado_18970" data-name="Trazado 18970" d="M432.25,306.964a5.17,5.17,0,0,1,1.1-3.551,5.033,5.033,0,0,1,6.612,0,5.17,5.17,0,0,1,1.1,3.551v.6h-2.83v-.789a2.122,2.122,0,0,0-.395-1.456,1.652,1.652,0,0,0-2.2,0,2.122,2.122,0,0,0-.395,1.456,3.374,3.374,0,0,0,.435,1.729,7.174,7.174,0,0,0,1.088,1.414q.653.667,1.4,1.333a13.388,13.388,0,0,1,1.4,1.456,7.432,7.432,0,0,1,1.088,1.8,5.938,5.938,0,0,1,.435,2.367,5.087,5.087,0,0,1-1.129,3.551,5.106,5.106,0,0,1-6.667,0,5.088,5.088,0,0,1-1.129-3.551V315.7H435v1.361a1.972,1.972,0,0,0,.421,1.442,1.766,1.766,0,0,0,2.259,0,1.971,1.971,0,0,0,.422-1.442,3.379,3.379,0,0,0-.435-1.729,7.213,7.213,0,0,0-1.089-1.414q-.653-.666-1.4-1.333a13.171,13.171,0,0,1-1.4-1.456,7.354,7.354,0,0,1-1.089-1.8A5.914,5.914,0,0,1,432.25,306.964Z" transform="translate(-432.168 -302.175)" fill="#594a42"/>
          <path id="Trazado_18971" data-name="Trazado 18971" d="M452.916,302.543v14.694a1.972,1.972,0,0,0,.421,1.442,1.768,1.768,0,0,0,2.259,0,1.972,1.972,0,0,0,.422-1.442V302.543h2.83v14.5a5.09,5.09,0,0,1-1.129,3.551,5.106,5.106,0,0,1-6.667,0,5.09,5.09,0,0,1-1.129-3.551v-14.5Z" transform="translate(-439.419 -302.325)" fill="#594a42"/>
          <path id="Trazado_18972" data-name="Trazado 18972" d="M472.78,310.828h4.191v6.041a5.088,5.088,0,0,1-1.129,3.551,5.106,5.106,0,0,1-6.667,0,5.087,5.087,0,0,1-1.129-3.551v-9.905a5.089,5.089,0,0,1,1.129-3.551,5.106,5.106,0,0,1,6.667,0,5.09,5.09,0,0,1,1.129,3.551v1.85h-2.83v-2.041a2.025,2.025,0,0,0-.422-1.456,1.725,1.725,0,0,0-2.259,0,2.022,2.022,0,0,0-.422,1.456v10.286a1.969,1.969,0,0,0,.422,1.442,1.766,1.766,0,0,0,2.259,0,1.971,1.971,0,0,0,.422-1.442v-3.51H472.78Z" transform="translate(-446.822 -302.175)" fill="#594a42"/>
          <path id="Trazado_18973" data-name="Trazado 18973" d="M495.5,321.59h-3.021l-.517-3.456h-3.674l-.517,3.456h-2.748l3.048-19.047h4.381Zm-6.83-6.04h2.884l-1.442-9.633Z" transform="translate(-453.754 -302.325)" fill="#594a42"/>
          <path id="Trazado_18974" data-name="Trazado 18974" d="M511.333,321.59c-.037-.127-.073-.245-.109-.353a2.65,2.65,0,0,1-.1-.409,5.06,5.06,0,0,1-.055-.625q-.013-.381-.014-.952v-2.993a2.932,2.932,0,0,0-.462-1.878,1.862,1.862,0,0,0-1.5-.544h-1.034v7.755h-2.993V302.543h4.517a4.535,4.535,0,0,1,3.387,1.088,4.583,4.583,0,0,1,1.048,3.292v1.5q0,2.939-1.959,3.864a2.683,2.683,0,0,1,1.565,1.51,6.824,6.824,0,0,1,.422,2.544v2.939a12.375,12.375,0,0,0,.054,1.238,3.956,3.956,0,0,0,.272,1.075Zm-3.265-16.326v5.851h1.17a1.881,1.881,0,0,0,1.319-.435,2.088,2.088,0,0,0,.477-1.578v-1.877a2.417,2.417,0,0,0-.368-1.5,1.387,1.387,0,0,0-1.156-.463Z" transform="translate(-461.946 -302.325)" fill="#594a42"/>
        </g>
      </g>
      <g id="Grupo_9383" data-name="Grupo 9383" transform="translate(444.36 159.476)">
        <rect id="Rectángulo_2334" data-name="Rectángulo 2334" width="30.594" height="98.277" fill="#27aae1"/>
        <rect id="Rectángulo_2335" data-name="Rectángulo 2335" width="30.594" height="98.277" transform="translate(30.594)" fill="#2294c6"/>
        <rect id="Rectángulo_2336" data-name="Rectángulo 2336" width="30.594" height="31.337" transform="translate(0 25.364)" fill="#fff"/>
        <rect id="Rectángulo_2337" data-name="Rectángulo 2337" width="30.594" height="31.337" transform="translate(30.594 25.364)" fill="#f2f2f2"/>
        <g id="Grupo_9382" data-name="Grupo 9382" transform="translate(13.285 30.591)">
          <path id="Trazado_18975" data-name="Trazado 18975" d="M752.027,278.028a4.766,4.766,0,0,1,1.016-3.274,4.641,4.641,0,0,1,6.1,0,4.772,4.772,0,0,1,1.015,3.274v.552h-2.609v-.728a1.956,1.956,0,0,0-.363-1.342,1.521,1.521,0,0,0-2.033,0,1.953,1.953,0,0,0-.363,1.342,3.11,3.11,0,0,0,.4,1.593,6.611,6.611,0,0,0,1,1.3q.6.616,1.293,1.229a12.285,12.285,0,0,1,1.291,1.342,6.838,6.838,0,0,1,1,1.656,5.469,5.469,0,0,1,.4,2.182,4.7,4.7,0,0,1-1.041,3.274,4.707,4.707,0,0,1-6.146,0,4.689,4.689,0,0,1-1.041-3.274v-1.078h2.609v1.254a1.816,1.816,0,0,0,.389,1.329,1.629,1.629,0,0,0,2.082,0,1.816,1.816,0,0,0,.389-1.329,3.112,3.112,0,0,0-.4-1.593,6.651,6.651,0,0,0-1-1.3q-.6-.614-1.291-1.229a12.22,12.22,0,0,1-1.292-1.342,6.818,6.818,0,0,1-1-1.656A5.461,5.461,0,0,1,752.027,278.028Z" transform="translate(-751.952 -273.613)" fill="#594a42"/>
          <path id="Trazado_18976" data-name="Trazado 18976" d="M776.961,291.512h-2.784l-.477-3.186h-3.386l-.477,3.186H767.3l2.809-17.56h4.039Zm-6.3-5.569h2.659l-1.329-8.88Z" transform="translate(-758.222 -273.751)" fill="#594a42"/>
          <path id="Trazado_18977" data-name="Trazado 18977" d="M785.792,273.952h2.76V289h4.54v2.508h-7.3Z" transform="translate(-765.774 -273.751)" fill="#594a42"/>
          <path id="Trazado_18978" data-name="Trazado 18978" d="M796.689,273.952h8.529v2.509h-2.884v15.051h-2.76V276.461h-2.885Z" transform="translate(-770.224 -273.751)" fill="#594a42"/>
        </g>
      </g>
      <g id="Grupo_9391" data-name="Grupo 9391" transform="translate(366.801 129.733)">
        <path id="Trazado_18989" data-name="Trazado 18989" d="M720.068,302.841a75.674,75.674,0,0,1-4.54-25.818V215.3a75.681,75.681,0,0,1,5.267-27.742l2-5.069h-46.24V310.35h46.24Z" transform="translate(-630.312 -176.059)" fill="#fcd200"/>
        <path id="Trazado_18990" data-name="Trazado 18990" d="M598.386,182.485l2,5.069A75.695,75.695,0,0,1,605.65,215.3v61.728a75.689,75.689,0,0,1-4.54,25.818l-2.725,7.509h46.24V182.485Z" transform="translate(-598.386 -176.059)" fill="#fae707"/>
        <rect id="Rectángulo_2342" data-name="Rectángulo 2342" width="46.24" height="6.426" transform="translate(0)" fill="#d0bc0d"/>
        <rect id="Rectángulo_2343" data-name="Rectángulo 2343" width="46.24" height="6.426" transform="translate(46.24)" fill="#cea90f"/>
        <rect id="Rectángulo_2344" data-name="Rectángulo 2344" width="46.24" height="6.426" transform="translate(0 133.846)" fill="#d0bc0d"/>
        <rect id="Rectángulo_2345" data-name="Rectángulo 2345" width="46.24" height="6.426" transform="translate(46.24 133.846)" fill="#cea90f"/>
        <rect id="Rectángulo_2346" data-name="Rectángulo 2346" width="28.498" height="29.057" transform="translate(17.742 28.219)" fill="#e81d23"/>
        <rect id="Rectángulo_2347" data-name="Rectángulo 2347" width="28.498" height="29.057" transform="translate(46.24 28.219)" fill="#ce1320"/>
        <path id="Trazado_18991" data-name="Trazado 18991" d="M684.5,313.92c0,.932-7.6,1.688-16.965,1.688s-16.964-.756-16.964-1.688,7.595-1.688,16.964-1.688S684.5,312.988,684.5,313.92Z" transform="translate(-619.703 -229.053)" fill="#d0bc0d"/>
        <g id="Grupo_9387" data-name="Grupo 9387" transform="translate(24.981 33.781)">
          <path id="Trazado_18992" data-name="Trazado 18992" d="M648.989,240.138v2.375a4.774,4.774,0,0,1-1.06,3.332,4.791,4.791,0,0,1-6.255,0,4.774,4.774,0,0,1-1.06-3.332v-9.293a4.775,4.775,0,0,1,1.06-3.332,4.791,4.791,0,0,1,6.255,0,4.775,4.775,0,0,1,1.06,3.332v1.736h-2.655v-1.915a1.9,1.9,0,0,0-.4-1.366,1.616,1.616,0,0,0-2.119,0,1.9,1.9,0,0,0-.4,1.366v9.651a1.847,1.847,0,0,0,.4,1.353,1.658,1.658,0,0,0,2.119,0,1.85,1.85,0,0,0,.4-1.353v-2.553Z" transform="translate(-640.615 -228.726)" fill="#fff"/>
          <path id="Trazado_18993" data-name="Trazado 18993" d="M660.471,246.943h-2.808V229.071h2.808v7.66h3.192v-7.66h2.859v17.872h-2.859v-7.66h-3.192Z" transform="translate(-647.578 -228.867)" fill="#fff"/>
          <path id="Trazado_18994" data-name="Trazado 18994" d="M676.091,229.071H678.9v17.872h-2.808Z" transform="translate(-655.105 -228.867)" fill="#fff"/>
          <path id="Trazado_18995" data-name="Trazado 18995" d="M688.427,229.071a4.086,4.086,0,0,1,3.154,1.123,4.706,4.706,0,0,1,1.033,3.294v2.323a4.7,4.7,0,0,1-1.033,3.294,4.084,4.084,0,0,1-3.154,1.123H687.1v6.715h-2.808V229.071Zm-1.327,2.553v6.051h1.327a1.383,1.383,0,0,0,1.022-.357,1.882,1.882,0,0,0,.357-1.327V233.31a1.885,1.885,0,0,0-.357-1.328,1.386,1.386,0,0,0-1.022-.357Z" transform="translate(-658.454 -228.867)" fill="#fff"/>
          <path id="Trazado_18996" data-name="Trazado 18996" d="M699.9,233.219a4.853,4.853,0,0,1,1.034-3.332,4.722,4.722,0,0,1,6.2,0,4.85,4.85,0,0,1,1.034,3.332v.561h-2.655v-.74a1.989,1.989,0,0,0-.37-1.366,1.549,1.549,0,0,0-2.068,0,1.989,1.989,0,0,0-.37,1.366,3.165,3.165,0,0,0,.408,1.621,6.743,6.743,0,0,0,1.021,1.328q.613.626,1.316,1.251a12.509,12.509,0,0,1,1.314,1.366,6.949,6.949,0,0,1,1.021,1.685,5.57,5.57,0,0,1,.408,2.221,4.771,4.771,0,0,1-1.06,3.332,4.79,4.79,0,0,1-6.255,0,4.774,4.774,0,0,1-1.06-3.332v-1.1h2.656v1.277a1.85,1.85,0,0,0,.4,1.353,1.658,1.658,0,0,0,2.119,0,1.85,1.85,0,0,0,.4-1.353,3.169,3.169,0,0,0-.408-1.621,6.778,6.778,0,0,0-1.022-1.327q-.612-.625-1.314-1.251a12.346,12.346,0,0,1-1.315-1.366,6.944,6.944,0,0,1-1.022-1.685A5.566,5.566,0,0,1,699.9,233.219Z" transform="translate(-664.8 -228.726)" fill="#fff"/>
        </g>
        <path id="Trazado_18997" data-name="Trazado 18997" d="M665.382,296.953a44.325,44.325,0,0,1-17.108-1.012c.007.073.011.146.02.219.876,7.184,9.081,12.094,18.328,10.968s16.034-7.864,15.158-15.048c-.009-.073-.024-.145-.034-.218A44.319,44.319,0,0,1,665.382,296.953Z" transform="translate(-618.762 -220.732)" fill="#e9c648"/>
        <path id="Trazado_18998" data-name="Trazado 18998" d="M702.452,330.345c0,1.176-7.595,2.129-16.964,2.129s-16.965-.953-16.965-2.129,7.6-2.13,16.965-2.13S702.452,329.169,702.452,330.345Z" transform="translate(-627.033 -235.581)" fill="#d0bc0d"/>
        <path id="Trazado_18999" data-name="Trazado 18999" d="M681.813,303.514A44.329,44.329,0,0,1,664.7,302.5c.008.073.011.146.02.219.875,7.184,9.082,12.094,18.329,10.968s16.033-7.864,15.158-15.048c-.009-.073-.023-.145-.034-.218A44.316,44.316,0,0,1,681.813,303.514Z" transform="translate(-625.473 -223.412)" fill="#f1da74"/>
        <g id="Grupo_9388" data-name="Grupo 9388" transform="translate(39.674 83.18)">
          <path id="Trazado_19000" data-name="Trazado 19000" d="M715.35,312.621s3.284-1.382,4.353,1.064c1.136,2.595-2.367,9.671-14.661,9.341C707.443,320.5,715.35,312.621,715.35,312.621Z" transform="translate(-681.623 -312.232)" fill="#f1da74"/>
          <path id="Trazado_19001" data-name="Trazado 19001" d="M682.32,315.964a44.31,44.31,0,0,1-16.86-3.074c0,.073-.007.146-.007.22,0,7.237,7.552,13.1,16.867,13.1s16.867-5.867,16.867-13.1c0-.074-.006-.147-.007-.22A44.309,44.309,0,0,1,682.32,315.964Z" transform="translate(-665.453 -312.501)" fill="#fcf3ca"/>
        </g>
        <path id="Trazado_19002" data-name="Trazado 19002" d="M702.155,369.285c0,1.176-8.452,2.129-18.878,2.129s-18.878-.953-18.878-2.129,8.452-2.13,18.878-2.13S702.155,368.109,702.155,369.285Z" transform="translate(-625.348 -251.485)" fill="#d0bc0d"/>
        <path id="Trazado_19003" data-name="Trazado 19003" d="M671.3,346.371c0,1.176-8.452,2.13-18.878,2.13s-18.878-.954-18.878-2.13,8.452-2.129,18.878-2.129S671.3,345.2,671.3,346.371Z" transform="translate(-612.745 -242.127)" fill="#d0bc0d"/>
        <g id="Grupo_9389" data-name="Grupo 9389" transform="translate(21.455 88.044)">
          <path id="Trazado_19004" data-name="Trazado 19004" d="M683.406,327.01s3.459-1.273,4.172,1.792c.756,3.252-3.734,11.342-15.895,9.493C674.428,335.539,683.406,327.01,683.406,327.01Z" transform="translate(-649.778 -323.025)" fill="#f1da74"/>
          <path id="Trazado_19005" data-name="Trazado 19005" d="M651.1,326.142a37.637,37.637,0,0,1-16.3-5.687c-.012.088-.028.175-.038.263-1.035,8.7,5.625,16.639,14.875,17.74s17.588-5.057,18.622-13.753c.011-.089.015-.176.024-.265A37.632,37.632,0,0,1,651.1,326.142Z" transform="translate(-634.654 -320.455)" fill="#fcf3ca"/>
        </g>
        <g id="Grupo_9390" data-name="Grupo 9390" transform="translate(39.051 101.365)">
          <path id="Trazado_19006" data-name="Trazado 19006" d="M712.854,351.036s3.49-1.181,4.123,1.9c.671,3.269-4.029,11.232-16.136,9.065C703.656,359.319,712.854,351.036,712.854,351.036Z" transform="translate(-679.283 -346.176)" fill="#f1da74"/>
          <path id="Trazado_19007" data-name="Trazado 19007" d="M680.75,349.082a37.664,37.664,0,0,1-16.148-6.108c-.014.088-.033.173-.045.261-1.262,8.66,5.189,16.77,14.407,18.112s17.714-4.589,18.975-13.25c.013-.088.02-.176.031-.264A37.653,37.653,0,0,1,680.75,349.082Z" transform="translate(-664.4 -342.974)" fill="#fcf3ca"/>
        </g>
      </g>
      <g id="Grupo_9393" data-name="Grupo 9393" transform="translate(430.81 221.078)">
        <path id="Trazado_19008" data-name="Trazado 19008" d="M302.835,326.034v13.038h26.349A33.1,33.1,0,0,0,302.835,326.034Z" transform="translate(-269.68 -326.034)" fill="#3ea8dd"/>
        <path id="Trazado_19009" data-name="Trazado 19009" d="M258.294,339.072h26.349V326.034A33.094,33.094,0,0,0,258.294,339.072Z" transform="translate(-251.488 -326.034)" fill="#4cbced"/>
        <path id="Trazado_19010" data-name="Trazado 19010" d="M247.049,387.433a33.155,33.155,0,0,0,33,29.989V387.433Z" transform="translate(-246.895 -351.112)" fill="#007acc"/>
        <path id="Trazado_19011" data-name="Trazado 19011" d="M302.835,387.433v29.989a33.155,33.155,0,0,0,33-29.989Z" transform="translate(-269.68 -351.112)" fill="#005dba"/>
        <path id="Trazado_19012" data-name="Trazado 19012" d="M253.594,348.074a32.981,32.981,0,0,0-6.546,16.019,33.455,33.455,0,0,0-.261,4.1c0,1.069.056,2.124.154,3.167h33V348.074Z" transform="translate(-246.788 -335.036)" fill="#fff"/>
        <path id="Trazado_19013" data-name="Trazado 19013" d="M335.99,368.191a33.455,33.455,0,0,0-.261-4.1,32.986,32.986,0,0,0-6.545-16.019H302.835v23.283h33C335.935,370.315,335.99,369.26,335.99,368.191Z" transform="translate(-269.68 -335.036)" fill="#f2f2f2"/>
        <g id="Grupo_9392" data-name="Grupo 9392" transform="translate(13.589 18.897)">
          <path id="Trazado_19014" data-name="Trazado 19014" d="M275.58,365.912v1.65a3.318,3.318,0,0,1-.736,2.316,3.329,3.329,0,0,1-4.348,0,3.318,3.318,0,0,1-.736-2.316V361.1a3.321,3.321,0,0,1,.736-2.316,3.33,3.33,0,0,1,4.348,0,3.321,3.321,0,0,1,.736,2.316v1.207h-1.846v-1.331a1.321,1.321,0,0,0-.275-.949,1.124,1.124,0,0,0-1.473,0,1.322,1.322,0,0,0-.275.949v6.708a1.286,1.286,0,0,0,.275.941,1.152,1.152,0,0,0,1.473,0,1.285,1.285,0,0,0,.275-.941v-1.775Z" transform="translate(-269.759 -357.979)" fill="#007acc"/>
          <path id="Trazado_19015" data-name="Trazado 19015" d="M283.561,370.642h-1.952V358.219h1.952v5.324h2.218v-5.324h1.988v12.423h-1.988v-5.324h-2.218Z" transform="translate(-274.599 -358.077)" fill="#007acc"/>
          <path id="Trazado_19016" data-name="Trazado 19016" d="M296.37,363.454h2.68v1.775h-2.68v3.638h3.372v1.775h-5.324V358.219h5.324v1.775H296.37Z" transform="translate(-279.831 -358.077)" fill="#007acc"/>
          <path id="Trazado_19017" data-name="Trazado 19017" d="M307.41,363.454h2.68v1.775h-2.68v3.638h3.371v1.775h-5.323V358.219h5.323v1.775H307.41Z" transform="translate(-284.34 -358.077)" fill="#007acc"/>
          <path id="Trazado_19018" data-name="Trazado 19018" d="M316.041,361.1a3.374,3.374,0,0,1,.719-2.316,3.283,3.283,0,0,1,4.312,0,3.374,3.374,0,0,1,.719,2.316v.39h-1.846v-.515a1.384,1.384,0,0,0-.257-.949,1.077,1.077,0,0,0-1.437,0,1.381,1.381,0,0,0-.257.949,2.2,2.2,0,0,0,.284,1.128,4.686,4.686,0,0,0,.71.922q.426.436.914.87a8.732,8.732,0,0,1,.914.949,4.844,4.844,0,0,1,.71,1.171,3.882,3.882,0,0,1,.284,1.544,3.318,3.318,0,0,1-.737,2.316,3.328,3.328,0,0,1-4.348,0,3.318,3.318,0,0,1-.736-2.316V366.8h1.846v.887a1.285,1.285,0,0,0,.275.941,1.152,1.152,0,0,0,1.473,0,1.285,1.285,0,0,0,.275-.941,2.2,2.2,0,0,0-.284-1.127,4.749,4.749,0,0,0-.71-.923q-.426-.434-.914-.87a8.581,8.581,0,0,1-.914-.949,4.8,4.8,0,0,1-.71-1.171A3.864,3.864,0,0,1,316.041,361.1Z" transform="translate(-288.641 -357.979)" fill="#007acc"/>
          <path id="Trazado_19019" data-name="Trazado 19019" d="M329.67,363.454h2.679v1.775H329.67v3.638h3.371v1.775h-5.323V358.219h5.323v1.775H329.67Z" transform="translate(-293.432 -358.077)" fill="#007acc"/>
        </g>
      </g>
      <g id="Grupo_9394" data-name="Grupo 9394" transform="translate(105.7 227.655)">
        <rect id="Rectángulo_2348" data-name="Rectángulo 2348" width="58.99" height="40.233" fill="#fcad3a"/>
        <rect id="Rectángulo_2349" data-name="Rectángulo 2349" width="14.853" height="40.233" fill="#ea8415"/>
        <circle id="Elipse_594" data-name="Elipse 594" cx="1.758" cy="1.758" r="1.758" transform="translate(19.089 6.147)" fill="#ea8415"/>
        <circle id="Elipse_595" data-name="Elipse 595" cx="5.774" cy="5.774" r="5.774" transform="translate(27.688 11.921) rotate(-45)" fill="#ea8415"/>
        <circle id="Elipse_596" data-name="Elipse 596" cx="4.28" cy="4.28" r="4.28" transform="translate(22.606 22.538)" fill="#ea8415"/>
        <path id="Trazado_19020" data-name="Trazado 19020" d="M236.532,377.392a2.14,2.14,0,1,1-2.14-2.14A2.14,2.14,0,0,1,236.532,377.392Z" transform="translate(-187.74 -352.714)" fill="#ea8415"/>
        <path id="Trazado_19021" data-name="Trazado 19021" d="M248.385,350.17a2.627,2.627,0,1,1-2.627-2.627A2.627,2.627,0,0,1,248.385,350.17Z" transform="translate(-192.184 -341.396)" fill="#ea8415"/>
        <path id="Trazado_19022" data-name="Trazado 19022" d="M252.2,392.037a2.313,2.313,0,1,1-2.313-2.313A2.313,2.313,0,0,1,252.2,392.037Z" transform="translate(-193.998 -358.625)" fill="#ea8415"/>
        <path id="Trazado_19023" data-name="Trazado 19023" d="M221.094,395.192a1.558,1.558,0,1,1-1.558-1.558A1.557,1.557,0,0,1,221.094,395.192Z" transform="translate(-181.911 -360.222)" fill="#ea8415"/>
      </g>
      <g id="Grupo_9397" data-name="Grupo 9397" transform="translate(66.469 238.615)">
        <path id="Trazado_19048" data-name="Trazado 19048" d="M101.909,361.936l.267,4.495h17.035v-4.495Z" transform="translate(-95.272 -358.235)" fill="#e2e2e2"/>
        <path id="Trazado_19049" data-name="Trazado 19049" d="M148.74,361.936H131.158v4.495h17.315Z" transform="translate(-107.219 -358.235)" fill="#c1c1c1"/>
        <path id="Trazado_19050" data-name="Trazado 19050" d="M102.361,369.534l1.484,24.96a8.641,8.641,0,0,0,8.626,8.128H119.4V369.534Z" transform="translate(-95.457 -361.339)" fill="#ffa4c1"/>
        <path id="Trazado_19051" data-name="Trazado 19051" d="M131.158,369.534v33.088h7.2a8.641,8.641,0,0,0,8.626-8.128l1.485-24.96Z" transform="translate(-107.219 -361.339)" fill="#ef8eb1"/>
        <path id="Trazado_19052" data-name="Trazado 19052" d="M92.54,355.68a1.85,1.85,0,0,0,0,3.7h22.089v-3.7Z" transform="translate(-90.69 -355.68)" fill="#f2f2f2"/>
        <path id="Trazado_19053" data-name="Trazado 19053" d="M153.246,355.68H131.158v3.7h22.088a1.85,1.85,0,1,0,0-3.7Z" transform="translate(-107.219 -355.68)" fill="#e2e2e2"/>
      </g>
      <g id="Grupo_9400" data-name="Grupo 9400" transform="translate(94.97 259.261)">
        <rect id="Rectángulo_2350" data-name="Rectángulo 2350" width="73.594" height="27.493" transform="translate(9.944)" fill="#fdd900"/>
        <rect id="Rectángulo_2351" data-name="Rectángulo 2351" width="9.944" height="27.493" fill="#d0bc0d"/>
        <g id="Grupo_9399" data-name="Grupo 9399" transform="translate(24.971 6.821)">
          <path id="Trazado_19058" data-name="Trazado 19058" d="M184.358,402.112a3.293,3.293,0,0,1,2.457.79,3.326,3.326,0,0,1,.76,2.388v.493a4.022,4.022,0,0,1-.336,1.757,2.131,2.131,0,0,1-1.066,1.026,2.171,2.171,0,0,1,1.254,1.095,4.284,4.284,0,0,1,.366,1.866v1.125a2.932,2.932,0,0,1-3.3,3.276h-3.414V402.112Zm-1.106,1.974v3.652h.849a1.363,1.363,0,0,0,.957-.316,1.516,1.516,0,0,0,.345-1.145v-.77a1.756,1.756,0,0,0-.266-1.086,1.006,1.006,0,0,0-.839-.335Zm0,5.625v4.244H184.5a1.113,1.113,0,0,0,.839-.3,1.53,1.53,0,0,0,.286-1.065v-1.2a2,2,0,0,0-.325-1.322,1.4,1.4,0,0,0-1.076-.356Z" transform="translate(-181.081 -402.112)" fill="#fff"/>
          <path id="Trazado_19059" data-name="Trazado 19059" d="M196.632,402.112v10.659a1.427,1.427,0,0,0,.306,1.046,1.282,1.282,0,0,0,1.638,0,1.427,1.427,0,0,0,.306-1.046V402.112h2.053v10.52a3.694,3.694,0,0,1-.819,2.576,3.7,3.7,0,0,1-4.836,0,3.693,3.693,0,0,1-.819-2.576v-10.52Z" transform="translate(-186.546 -402.112)" fill="#fff"/>
          <path id="Trazado_19060" data-name="Trazado 19060" d="M206.839,402.112h6.711v1.974h-2.27v11.842h-2.172V404.086h-2.27Z" transform="translate(-191.602 -402.112)" fill="#fff"/>
          <path id="Trazado_19061" data-name="Trazado 19061" d="M218.717,402.112h6.711v1.974h-2.269v11.842h-2.172V404.086h-2.27Z" transform="translate(-196.453 -402.112)" fill="#fff"/>
          <path id="Trazado_19062" data-name="Trazado 19062" d="M233.833,407.935h2.981v1.973h-2.981v4.047h3.75v1.973h-5.922V402.112h5.922v1.974h-3.75Z" transform="translate(-201.74 -402.112)" fill="#fff"/>
          <path id="Trazado_19063" data-name="Trazado 19063" d="M248.481,415.928c-.027-.092-.053-.177-.079-.256a1.945,1.945,0,0,1-.069-.3,3.552,3.552,0,0,1-.04-.454q-.01-.276-.009-.691V412.06a2.126,2.126,0,0,0-.336-1.362,1.351,1.351,0,0,0-1.086-.4h-.75v5.625h-2.171V402.112h3.277a3.293,3.293,0,0,1,2.457.79,3.326,3.326,0,0,1,.76,2.388v1.086a2.778,2.778,0,0,1-1.421,2.8,1.947,1.947,0,0,1,1.135,1.1,4.959,4.959,0,0,1,.306,1.846v2.131a8.822,8.822,0,0,0,.04.9,2.877,2.877,0,0,0,.2.78Zm-2.369-11.842v4.244h.849a1.363,1.363,0,0,0,.957-.316,1.516,1.516,0,0,0,.345-1.145v-1.362a1.756,1.756,0,0,0-.266-1.086,1.007,1.007,0,0,0-.839-.335Z" transform="translate(-206.756 -402.112)" fill="#fff"/>
        </g>
      </g>
      <g id="Grupo_9401" data-name="Grupo 9401" transform="translate(506.233 157.236)">
        <path id="Trazado_19064" data-name="Trazado 19064" d="M857.079,233.48h-6.7l-1.446,16.362h8.15Z" transform="translate(-840.149 -224.39)" fill="#edefee"/>
        <path id="Trazado_19065" data-name="Trazado 19065" d="M869.409,233.48h-6.7v16.362h8.15Z" transform="translate(-845.776 -224.39)" fill="#cfcfcd"/>
        <path id="Trazado_19066" data-name="Trazado 19066" d="M852.139,218.114a2.878,2.878,0,0,0-2.878,2.879v7.726h7.954v-10.6Z" transform="translate(-840.285 -218.114)" fill="#3a3a3a"/>
        <path id="Trazado_19067" data-name="Trazado 19067" d="M870.66,220.993a2.879,2.879,0,0,0-2.879-2.879h-5.075v10.6h7.953Z" transform="translate(-845.776 -218.114)" fill="#1e201d"/>
        <path id="Trazado_19068" data-name="Trazado 19068" d="M842.867,261.139l-1.38,15.615a18.348,18.348,0,0,1-3.688,9.514,18.118,18.118,0,0,0-3.711,10.987v56.259a7.385,7.385,0,0,0,7.386,7.386h9.544V261.139Z" transform="translate(-834.087 -235.687)" fill="#f58055"/>
        <path id="Trazado_19069" data-name="Trazado 19069" d="M875.924,286.268a18.348,18.348,0,0,1-3.688-9.514l-1.38-15.615h-8.149V360.9h9.544a7.385,7.385,0,0,0,7.385-7.386V297.255A18.118,18.118,0,0,0,875.924,286.268Z" transform="translate(-845.776 -235.687)" fill="#f25c2a"/>
        <rect id="Rectángulo_2352" data-name="Rectángulo 2352" width="13.737" height="42.949" transform="translate(3.192 65.447)" fill="#3a3a3a"/>
        <rect id="Rectángulo_2353" data-name="Rectángulo 2353" width="13.737" height="42.949" transform="translate(16.93 65.447)" fill="#1e201d"/>
      </g>
      <g id="Grupo_9427" data-name="Grupo 9427" transform="translate(525.625 203.002)">
        <g id="Grupo_9426" data-name="Grupo 9426" transform="translate(24.088)">
          <path id="Trazado_19188" data-name="Trazado 19188" d="M911.366,344.32l-3.778-1.013,12.448-46.38a1.955,1.955,0,0,1,1.889-1.449h21.148v3.911H923.425Z" transform="translate(-907.588 -295.478)" fill="#c92828"/>
        </g>
        <path id="Trazado_19189" data-name="Trazado 19189" d="M871.379,364.039,875.7,403.88a2.893,2.893,0,0,0,2.876,2.582h11.69V364.039Z" transform="translate(-868.711 -323.481)" fill="#fff"/>
        <path id="Trazado_19190" data-name="Trazado 19190" d="M922.182,364.039H903.3v42.423h11.69a2.893,2.893,0,0,0,2.876-2.582Z" transform="translate(-881.748 -323.481)" fill="#f2f2f2"/>
        <path id="Trazado_19191" data-name="Trazado 19191" d="M866.869,322.4l1,9.22h20.552V322.4Z" transform="translate(-866.869 -306.474)" fill="#fff"/>
        <path id="Trazado_19192" data-name="Trazado 19192" d="M924.85,322.4H903.3v9.22h20.552Z" transform="translate(-881.748 -306.474)" fill="#f2f2f2"/>
        <path id="Trazado_19193" data-name="Trazado 19193" d="M923.851,337.985H903.3V353.4h18.882Z" transform="translate(-881.748 -312.84)" fill="#c92828"/>
        <path id="Trazado_19194" data-name="Trazado 19194" d="M868.557,337.985l1.67,15.412h18.882V337.985Z" transform="translate(-867.558 -312.84)" fill="#e3312f"/>
      </g>
    </g>
  </g>
</svg>
