<svg xmlns="http://www.w3.org/2000/svg" width="378.108" height="416.324" viewBox="0 0 378.108 416.324">
  <g id="Grupo_9834" data-name="Grupo 9834" transform="translate(-256.827 -216.901)">
    <g id="Grupo_9821" data-name="Grupo 9821" transform="translate(266.921 224.239)">
      <rect id="Rectángulo_2463" data-name="Rectángulo 2463" width="392.409" height="297.249" transform="matrix(0.01, -1, 1, 0.01, 3.764, 396.564)" fill="#737373" opacity="0.5"/>
      <rect id="Rectángulo_2464" data-name="Rectángulo 2464" width="296.785" height="392.521" transform="matrix(1, 0.01, -0.01, 1, 3.835, 0)" fill="#f0f0f0"/>
      <rect id="Rectángulo_2465" data-name="Rectángulo 2465" width="19.095" height="283.381" transform="matrix(0.01, -1, 1, 0.01, 9.548, 101.268)" fill="#b3b3b3"/>
      <rect id="Rectángulo_2466" data-name="Rectángulo 2466" width="19.095" height="283.381" transform="matrix(0.01, -1, 1, 0.01, 7.556, 305.127)" fill="#b3b3b3"/>
      <rect id="Rectángulo_2467" data-name="Rectángulo 2467" width="2.051" height="283.319" transform="translate(7.066 355.27) rotate(-89.44)" fill="#b3b3b3"/>
      <rect id="Rectángulo_2468" data-name="Rectángulo 2468" width="2.052" height="283.319" transform="translate(9.841 71.227) rotate(-89.44)" fill="#b3b3b3"/>
      <rect id="Rectángulo_2469" data-name="Rectángulo 2469" width="8.206" height="94.463" transform="matrix(0.01, -1, 1, 0.01, 10.257, 28.64)" fill="#b3b3b3"/>
      <path id="Trazado_19804" data-name="Trazado 19804" d="M433.709,248.987l-53.461-.523.109-11.18,53.461.523Zm-50.458-3.468,47.513.464.05-5.232-47.511-.464Z" transform="translate(-142.009 -216.11)" fill="#b3b3b3"/>
      <rect id="Rectángulo_2470" data-name="Rectángulo 2470" width="8.206" height="125.723" transform="translate(10.105 44.269) rotate(-89.44)" fill="#b3b3b3"/>
      <rect id="Rectángulo_2471" data-name="Rectángulo 2471" width="8.206" height="80.192" transform="translate(9.959 59.219) rotate(-89.44)" fill="#b3b3b3"/>
      <rect id="Rectángulo_2472" data-name="Rectángulo 2472" width="8.206" height="80.192" transform="translate(6.943 367.861) rotate(-89.44)" fill="#b3b3b3"/>
      <path id="Trazado_19805" data-name="Trazado 19805" d="M498.912,469.611h0l.169-17.3h0l.227-23.149h0l.169-17.3h0l.993-101.722.034-3.332.048-4.874-283.368-2.768-.08,8.206h.172l-.2,20.5H216.9l-.168,17.3h.172l-.225,23.149h-.173l-.169,17.3h.173l-.229,23.472h-.173l-.169,17.3h.173l-.227,23.151-.172,0-.169,17.3h.172l-.021,2.248,178.04,1.739v-.059l45.934.449,2.637.025,56.584.553Zm-58.578-99.1-45.6-.445.227-23.149,45.6.445Zm3.5-23.117,53.308.52-.227,23.151-53.308-.522Zm-3.671,40.418-.229,23.471-45.606-.445.229-23.473Zm-.4,40.772-.227,23.149-45.6-.446.225-23.149Zm56.358,23.7-53.31-.52.227-23.149,53.31.52Zm-52.914-40.971.229-23.471,53.31.52-.229,23.473Zm54.3-101.2-.2,20.5-53.31-.52.2-20.5Zm-56.584-.554-.2,20.5-45.6-.446.2-20.5Zm-220.7-2.156,172.127,1.681-.2,20.5L220.031,327.9Zm-.369,37.8,172.127,1.683-.225,23.149-172.128-1.681Zm-.4,40.45L391.6,387.332l-.229,23.472-172.128-1.681Zm-.4,40.772L391.2,428.1l-.227,23.151-172.128-1.683Z" transform="translate(-207.699 -191.429)" fill="#b3b3b3"/>
    </g>
    <g id="Grupo_9822" data-name="Grupo 9822" transform="translate(262.245 216.901)">
      <rect id="Rectángulo_2473" data-name="Rectángulo 2473" width="391.579" height="285.513" transform="translate(3.522 393.881) rotate(-85.492)" fill="#737373" opacity="0.5"/>
      <rect id="Rectángulo_2474" data-name="Rectángulo 2474" width="284.948" height="391.062" transform="translate(30.74) rotate(4.508)" fill="#dde0dc"/>
      <rect id="Rectángulo_2475" data-name="Rectángulo 2475" width="258.234" height="20.777" transform="translate(41.011 39.66) rotate(4.508)" fill="#b0b3af"/>
      <rect id="Rectángulo_2476" data-name="Rectángulo 2476" width="93.499" height="20.778" transform="translate(123.124 46.134) rotate(4.508)" fill="#c9ccc8"/>
      <rect id="Rectángulo_2477" data-name="Rectángulo 2477" width="34.846" height="258.235" transform="translate(16.158 354.847) rotate(-85.492)" fill="#c9ccc8"/>
      <rect id="Rectángulo_2478" data-name="Rectángulo 2478" width="34.846" height="258.234" transform="translate(18.941 319.561) rotate(-85.492)" fill="#b0b3af"/>
      <rect id="Rectángulo_2479" data-name="Rectángulo 2479" width="34.846" height="258.234" transform="translate(21.723 284.274) rotate(-85.492)" fill="#c9ccc8"/>
      <rect id="Rectángulo_2480" data-name="Rectángulo 2480" width="34.846" height="258.235" transform="translate(24.505 248.988) rotate(-85.492)" fill="#b0b3af"/>
      <rect id="Rectángulo_2481" data-name="Rectángulo 2481" width="34.846" height="258.234" transform="translate(27.288 213.701) rotate(-85.492)" fill="#c9ccc8"/>
      <rect id="Rectángulo_2482" data-name="Rectángulo 2482" width="34.846" height="258.234" transform="translate(30.07 178.415) rotate(-85.492)" fill="#b0b3af"/>
      <path id="Trazado_19806" data-name="Trazado 19806" d="M503.451,270.28l1.625-20.616-261.187-20.6-1.93,24.466-1.625,20.617h0l-1.625,20.616h0l-1.625,20.617h0L235.458,336h0l-1.642,20.823h0l-2.058,26.106-.478,6.057h0l-1.242,15.758-12.9,163.539h0l-.027.339h0l-1.467,18.595,261.188,20.6,1.466-18.595h0l3.035-38.49h0l1.107-14.035,1.677-21.251h0l.927-11.76,1.856-23.527h0l.666-8.441,2.118-26.845h0l.588-7.452,2.2-27.835h0l.326-4.132L495.25,374.3h0l1.683-21.343h0l1.642-20.823h0l1.625-20.617h0l1.625-20.616h0l1.625-20.617ZM327.826,260.3l89.457,7.054-1.322,16.769L326.5,277.072Zm-82.115-6.474,78.363,6.179-1.322,16.769L244.391,270.6ZM236.648,368.79l.87-11.04,8.822.7L243.9,389.433l-8.822-.7ZM462.528,411l-2.444,30.987-21.4-1.688,2.444-30.986Zm-21.062-5.987,2.444-30.986,21.4,1.687L462.867,406.7Zm33.449,179.3-22.139-1.746,2.375-30.123,22.139,1.746ZM233.807,565.3l2.375-30.123,32.5,2.563L266.3,567.858Zm198-85.71-2.444,30.987-30.276-2.388,2.444-30.986ZM401.873,472.9l2.444-30.986,30.276,2.386-2.444,30.987Zm27.156,41.974-2.444,30.986-30.276-2.386,2.444-30.986ZM398.122,472.6l-119.788-9.445,2.444-30.986,119.788,9.445Zm-.339,4.3-2.444,30.987-119.788-9.445L278,467.458ZM395,512.19l-2.444,30.986-119.788-9.445,2.444-30.986ZM274.582,462.862l-32.5-2.561,2.444-30.986,32.495,2.563Zm-.34,4.3L271.8,498.149l-32.5-2.561,2.444-30.987Zm-2.781,35.286-2.444,30.987-32.5-2.563,2.444-30.986Zm-1.406,65.7,2.375-30.121,119.788,9.445L389.842,577.6ZM393.594,577.9l2.377-30.123,30.276,2.388-2.375,30.123Zm34.029,2.683L430,550.456l21.4,1.688-2.375,30.123Zm24.115-32.736-21.4-1.687,2.444-30.986,21.4,1.687ZM433.119,510.87l2.444-30.987,21.4,1.687-2.444,30.987Zm2.782-35.287,2.444-30.986,21.4,1.687L457.3,477.271Zm1.813-70.868-30.275-2.388,2.442-30.986,30.275,2.386Zm-.339,4.3L434.932,440l-30.275-2.388,2.442-30.986Zm-33.69-6.982L283.9,392.586l2.444-30.986,119.788,9.445Zm-.339,4.3L400.9,437.318l-119.788-9.445,2.444-30.987Zm-123.2-14.04-32.5-2.563,2.444-30.986,32.495,2.563Zm-.34,4.3-2.442,30.986-32.5-2.561,2.444-30.987ZM234,402.356l.734-9.32,8.822.7-2.442,30.987-8.822-.7Zm-2.361,29.931.313-3.964,8.822.7L238.334,460l-8.822-.7Zm-2.6,33.034.136-1.712,8.822.7-2.442,30.986-8.822-.7ZM226.389,498.9l8.824.7-2.444,30.986-8.824-.7Zm6.042,35.982L230.056,565l-8.824-.7,2.375-30.121Zm246.5-1.53-1.3,16.536-22.139-1.744,2.444-30.986,22.139,1.746Zm2.423-30.718-.944,11.968-22.139-1.746,2.444-30.986,22.139,1.746Zm2.314-29.348-.476,6.03-22.139-1.746,2.444-30.986,22.138,1.744Zm2.517-31.916-.21,2.659-22.139-1.746,2.444-30.986,22.138,1.746Zm2.572-32.627-22.139-1.746,2.444-30.987,22.138,1.746Zm4.432-56.191-253.683-20,1.329-16.864,253.685,20Zm1.634-20.713-253.685-20,1.322-16.769,253.685,20Zm1.625-20.617-253.683-20,1.32-16.769,126.842,10,48.481,3.823h0l78.361,6.179Zm1.625-20.617-78.362-6.179,1.322-16.769,78.361,6.179Z" transform="translate(-202.981 -212.049)" fill="#fff"/>
    </g>
    <g id="Grupo_9823" data-name="Grupo 9823" transform="translate(256.827 244.437)">
      <rect id="Rectángulo_2483" data-name="Rectángulo 2483" width="284.048" height="366.674" transform="translate(3.362 3.441)" fill="#737373" opacity="0.5"/>
      <rect id="Rectángulo_2484" data-name="Rectángulo 2484" width="283.11" height="365.932" transform="translate(0.111)" fill="#fff"/>
      <rect id="Rectángulo_2485" data-name="Rectángulo 2485" width="283.11" height="25.69" transform="translate(0 0)" fill="#c9c3c3"/>
      <rect id="Rectángulo_2486" data-name="Rectángulo 2486" width="57.231" height="7.171" transform="translate(214.335 46.095)" fill="#c9c3c3"/>
      <rect id="Rectángulo_2487" data-name="Rectángulo 2487" width="76.105" height="7.171" transform="translate(195.468 55.381)" fill="#c9c3c3"/>
      <rect id="Rectángulo_2488" data-name="Rectángulo 2488" width="64.537" height="7.171" transform="translate(207.042 65.08)" fill="#c9c3c3"/>
      <rect id="Rectángulo_2489" data-name="Rectángulo 2489" width="89.427" height="7.171" transform="matrix(-1, 0.001, -0.001, -1, 102.811, 53.348)" fill="#c9c3c3"/>
      <rect id="Rectángulo_2490" data-name="Rectángulo 2490" width="117.542" height="7.171" transform="translate(130.933 62.612) rotate(179.966)" fill="#c9c3c3"/>
      <rect id="Rectángulo_2491" data-name="Rectángulo 2491" width="117.542" height="9.705" transform="translate(131.083 317.891) rotate(179.967)" fill="#c9c3c3"/>
      <rect id="Rectángulo_2492" data-name="Rectángulo 2492" width="102.481" height="7.171" transform="translate(115.878 72.323) rotate(179.966)" fill="#c9c3c3"/>
      <rect id="Rectángulo_2493" data-name="Rectángulo 2493" width="258.793" height="12.828" transform="translate(272.277 259.9) rotate(179.974)" fill="#c9c3c3"/>
      <rect id="Rectángulo_2494" data-name="Rectángulo 2494" width="258.793" height="12.828" transform="matrix(-1, 0, 0, -1, 272.298, 285.397)" fill="#c9c3c3"/>
      <path id="Trazado_19807" data-name="Trazado 19807" d="M473.052,407.046l-.01-12.827-261.767.116.01,12.829h0l.014,14.989h0l.008,10.309h0l.013,14.989h0l.008,10.7h0l.014,14.989,186.949-.084.01,11.11h0l.014,14.99,74.817-.035-.013-14.989h0l-.011-13.268-.011-12.83h0l-.008-10.7h0l-.011-12.638h0l-.011-14.989h0l-.011-12.661Zm-2.9,89.916-68.869.031-.008-10.666,68.868-.031Zm-.011-13.271-68.869.032-.008-10.668,68.868-.029Zm-.011-12.827-69.553.032-186.265.083-.01-10.666,255.818-.115Zm-.021-23.5.01,10.667-255.818.115-.008-10.667ZM214.283,434.81,470.1,434.7l.01,10.477-255.819.115ZM470.1,432.347l-255.819.113-.008-10.309,255.819-.115Zm-.013-12.638-255.817.113-.01-10.5,250.607-.112,5.211,0Z" transform="translate(-199.308 -173.716)" fill="#c9c3c3"/>
      <path id="Trazado_19808" data-name="Trazado 19808" d="M435.536,394.219l-130.222.059.066,78.8,58.379.154v-.179l71.844-.032Zm-127.247,2.217,52.43-.022.064,74.656-52.431.024Zm55.468,74.632-.063-74.656,68.868-.032.064,74.657Z" transform="translate(-161.802 -173.716)" fill="#c9c3c3"/>
      <path id="Trazado_19809" data-name="Trazado 19809" d="M472.619,316.272v-12.4H211.2v12.4h0v97.993H472.648V316.272ZM402.25,343.536H345.407V332.7H402.25Zm0,40.6H345.407V373.5H402.25Zm-132.171-37.8h72.53v10.735H270.08Zm0-13.632h72.53v10.834H270.08Zm0-13.371h72.53V329.9H270.08Zm0,54.167h72.53v10.634H270.08Zm72.53,13.531v10.735H270.08V387.029Zm59.641,10.735H345.407V387.029H402.25Zm0-40.695H345.407V346.333H402.25ZM345.407,329.9V319.33H402.25V329.9ZM213.995,319.33h53.287V329.9H213.995Zm0,13.371h53.287v10.834H213.995Zm0,13.632h53.287v10.735H213.995Zm0,27.164h53.287v10.634H213.995Zm53.287,13.531v10.735H213.995V387.029Zm0,24.439H213.995V400.634h53.287Zm75.327,0H270.08V400.634h72.53Zm59.641,0H345.407V400.634H402.25Zm67.6,0h-64.8V400.634h64.8Zm0-13.7h-64.8V387.029h64.8Zm0-13.632h-64.8V373.5h64.8Zm0-27.063h-64.8V346.333h64.8Zm0-13.532h-64.8V332.7h64.8Zm-64.8-13.632V319.33h64.8V329.9Z" transform="translate(-199.339 -209.748)" fill="#c9c3c3"/>
    </g>
    <g id="Grupo_9833" data-name="Grupo 9833" transform="translate(618.128 368.168)">
      <path id="Trazado_19899" data-name="Trazado 19899" d="M544.616,504.016l-.29,0L543.25,359.646l-.007-.979,0-.434-.027-.035a19.489,19.489,0,0,0-.324-2.893l-4.381-22.6h-.041c-.088-.913-.208-2.058-.3-2.515-.185-.881-.509-2.686-1.128-2.683s-.929,1.705-1.111,2.69c-.1.543-.21,1.648-.287,2.529h-.032l-4.043,22.657a19.574,19.574,0,0,0-.3,3.58v.224L532.337,503.4l.005.712h-.289l.177,23.763.311,0a2.345,2.345,0,0,0-.036.386l.026,3.6a2.4,2.4,0,0,0,2.41,2.377l7.229-.043a2.4,2.4,0,0,0,2.381-2.413l-.027-3.608a2.481,2.481,0,0,0-.042-.385l.31,0Z" transform="translate(-527.986 -324.055)" fill="#575757" opacity="0.5"/>
      <path id="Trazado_19900" data-name="Trazado 19900" d="M533.5,333.3a1.909,1.909,0,0,1-1.527-1.753s.211-2.831.393-3.816.492-2.689,1.111-2.691.943,1.8,1.127,2.684c.169.813.42,3.8.42,3.8A1.93,1.93,0,0,1,533.5,333.3Z" transform="translate(-527.701 -325.039)" fill="#6c6c6c"/>
      <path id="Trazado_19901" data-name="Trazado 19901" d="M529.837,472.852l-.027-3.6a2.4,2.4,0,0,1,2.378-2.414l7.228-.053a2.4,2.4,0,0,1,2.414,2.378l.027,3.608a2.4,2.4,0,0,1-2.381,2.413l-7.229.043A2.4,2.4,0,0,1,529.837,472.852Z" transform="translate(-528.565 -268.504)" fill="#bd7783"/>
      <path id="Trazado_19902" data-name="Trazado 19902" d="M538.613,346.187l-6.812.051-2.88,1.944,1.2,160.366,11.984-.089-1.2-160.689Z" transform="translate(-528.919 -316.604)" fill="#ebd8a0"/>
      <path id="Trazado_19903" data-name="Trazado 19903" d="M540.984,508.464l-1.2-161.129-.846-1.156-7.214.054,1.211,162.291Z" transform="translate(-527.802 -316.607)" fill="#d4ac36"/>
      <rect id="Rectángulo_2497" data-name="Rectángulo 2497" width="5.026" height="162.295" transform="translate(3.007 29.633) rotate(-0.427)" fill="#e3c15d"/>
      <path id="Trazado_19904" data-name="Trazado 19904" d="M538.627,348.785l-.014-.986-2.282-1.572-1.674.013c-.007-.045-.007-.1-.014-.15a1.439,1.439,0,0,1,.008.15c0,.013.006.02.006.032a2.935,2.935,0,0,1,.013.708,2.88,2.88,0,0,0,2.476,2.329A2.422,2.422,0,0,0,538.627,348.785Z" transform="translate(-526.637 -316.643)" fill="#fff"/>
      <path id="Trazado_19905" data-name="Trazado 19905" d="M531.983,346.222H531.8l-2.879,1.943.008,1.129a2.237,2.237,0,0,0,.59.08,2.917,2.917,0,0,0,2.435-2.393A3.868,3.868,0,0,1,531.983,346.222Z" transform="translate(-528.919 -316.59)" fill="#fff"/>
      <path id="Trazado_19906" data-name="Trazado 19906" d="M536.076,346.271v-.032c-.007-.045-.007-.1-.014-.15a1.439,1.439,0,0,1,.008.15l-4.951.036a3.868,3.868,0,0,0-.027.76.292.292,0,0,1,.013-.032,2.488,2.488,0,1,0,4.976-.063c0,.013.007.025.007.039A2.935,2.935,0,0,0,536.076,346.271Z" transform="translate(-528.056 -316.643)" fill="#ebe8e1"/>
      <path id="Trazado_19907" data-name="Trazado 19907" d="M537.7,355.242a2.573,2.573,0,0,1-2.473-2.033c.186.309-1.978-24.445-1.978-24.445l1.2-.008,4.381,22.6a19.6,19.6,0,0,1,.354,3.357h0A2.424,2.424,0,0,1,537.7,355.242Z" transform="translate(-527.194 -323.556)" fill="#d2bc81"/>
      <path id="Trazado_19908" data-name="Trazado 19908" d="M531.951,353.265a2.571,2.571,0,0,1-2.435,2.047,2.435,2.435,0,0,1-.593-.077l0-.224a19.661,19.661,0,0,1,.3-3.58l4.042-22.658.764-.006S531.779,353.547,531.951,353.265Z" transform="translate(-528.92 -323.552)" fill="#e1d8be"/>
      <path id="Trazado_19909" data-name="Trazado 19909" d="M536.088,353.207l-.011-.036a2.508,2.508,0,0,1-4.976.06c0,.013-.008.024-.011.036-.172.283,1.961-24.5,1.961-24.5l1.155-.008S536.274,353.516,536.088,353.207Z" transform="translate(-528.058 -323.554)" fill="#dccda2"/>
      <rect id="Rectángulo_2498" data-name="Rectángulo 2498" width="11.984" height="16.052" transform="matrix(1, -0.007, 0.007, 1, 1.078, 175.891)" fill="#c59b1f"/>
      <rect id="Rectángulo_2499" data-name="Rectángulo 2499" width="12.564" height="23.763" transform="translate(0.794 176.605) rotate(-0.427)" fill="#9f9f9f"/>
      <path id="Trazado_19910" data-name="Trazado 19910" d="M529.62,465.864l-.009-1.209,12.5-.065.009,1.209Z" transform="translate(-528.644 -269.381)" fill="#b8b8b8"/>
      <path id="Trazado_19911" data-name="Trazado 19911" d="M529.608,464.268l-.009-1.209,12.5-.065.009,1.209Z" transform="translate(-528.649 -270.017)" fill="#b8b8b8"/>
      <path id="Trazado_19912" data-name="Trazado 19912" d="M529.631,467.3l-.009-1.209,12.5-.065.009,1.209Z" transform="translate(-528.64 -268.809)" fill="#b8b8b8"/>
      <path id="Trazado_19913" data-name="Trazado 19913" d="M529.542,455.459l-.009-1.209,12.5-.065.009,1.209Z" transform="translate(-528.675 -273.531)" fill="#b8b8b8"/>
      <path id="Trazado_19914" data-name="Trazado 19914" d="M529.53,453.862l-.009-1.209,12.5-.065.009,1.209Z" transform="translate(-528.68 -274.167)" fill="#b8b8b8"/>
      <path id="Trazado_19915" data-name="Trazado 19915" d="M529.553,456.891l-.009-1.209,12.5-.065.009,1.209Z" transform="translate(-528.671 -272.959)" fill="#b8b8b8"/>
      <path id="Trazado_19916" data-name="Trazado 19916" d="M537.153,475.663l.017,2.3a1.165,1.165,0,0,1-1.158,1.175l-3.048.024a1.168,1.168,0,0,1-1.175-1.16l-.017-2.3h0l-.182-24.418,5.384-.039.182,24.417Z" transform="translate(-527.855 -274.703)" fill="#919191" style="mix-blend-mode: overlay;isolation: isolate"/>
    </g>
  </g>
</svg>
