<svg xmlns="http://www.w3.org/2000/svg" width="795" height="350.118" viewBox="0 0 795 350.118">
  <g id="Grupo_9860" data-name="Grupo 9860" transform="translate(-735 -2685.188)">
    <g id="Grupo_9332" data-name="Grupo 9332" transform="translate(0 1573)">
      <path id="Trazado_18847" data-name="Trazado 18847" d="M271.862,381.179l3-1.351,4.219,7.7A12.922,12.922,0,0,1,271.862,381.179Z" transform="translate(1131.888 1015.586)" fill="#ffebca"/>
      <g id="Grupo_9329" data-name="Grupo 9329" transform="translate(-83.146 85.874)">
        <path id="Trazado_18832" data-name="Trazado 18832" d="M341.546,302.083l-4.708,9.292-11.2-6.4-3.984,6.779c-4.977-5.248-6.3-7.823-11.2-15.464-6.311-9.839-12.482-19.828-17.119-30.558-3.821-8.84-6.685-18.322-12.752-25.8-4.112-5.068-9.5-8.949-15.084-12.328-12.155-7.353-25.987-12.688-40.189-12.339a46.568,46.568,0,0,0-24.915,7.851L192.546,211.1a8.706,8.706,0,0,0-10.271-3.389l-3.282-5.029a82.571,82.571,0,1,0-6.181,4.034l3.282,5.029a8.705,8.705,0,0,0-1.033,10.766l11.723,17.963a62.13,62.13,0,0,0-2.337,7.905,40.915,40.915,0,0,0-2.116,12.9,18.382,18.382,0,0,0,.418,4.811,11.963,11.963,0,0,0,3.587,6.162h0c1.94,2.024,10.112,5.986,16.742-6.813l.937,1.435c-4.4,9.069-2.272,20.606,3.217,29.26a16.826,16.826,0,0,0,5.866,6.536,13.256,13.256,0,0,0,2.629,1.443c.3.122.617.224.933.317h0a10.576,10.576,0,0,0,2.454.411h0c4.376.4,6.795-.74,8.087-2.439l5.573,8.541a8.7,8.7,0,0,0,11.834,2.624,54.575,54.575,0,0,0,10.021,13.823c6.417,6.25,14.565,10.36,22.574,14.372l20.713,10.378-4.571,7.778,15.212,7.267-3.645,7.193,6.025,2.32,61.231-.508v-68.24ZM237.871,244.151q-2.957.895-5.838,2.021a41.81,41.81,0,0,1-3.552-3.893,18.686,18.686,0,0,1,4.411.181A17.759,17.759,0,0,1,237.871,244.151Z" transform="translate(1238.283 999.731)" fill="#313944" opacity="0.15"/>
        <path id="Trazado_18833" data-name="Trazado 18833" d="M380.512,370.718c-8.358-8.2-9.03-10.007-14.983-19.288-6.311-9.839-12.482-19.828-17.119-30.558-3.821-8.84-6.685-18.322-12.752-25.8-4.112-5.068-9.5-8.949-15.084-12.328-12.155-7.353-25.987-12.688-40.189-12.339s-28.738,7.157-35.831,19.466c-3.457,6-5,12.884-6.265,19.69-.716,3.857-1.354,7.852-.458,11.672s3.7,7.454,7.559,8.145c3.547.635,7.132-1.335,9.522-4.031s3.856-6.062,5.525-9.255c3.155-6.038,7.3-11.78,13.094-15.37s13.459-4.674,19.455-1.442a80.745,80.745,0,0,0-23.306,11.409,34.572,34.572,0,0,0-9.22,8.909c-6.124,9.356-4.135,22.235,1.854,31.679,2.115,3.335,4.833,6.5,8.5,7.979s8.414.8,10.728-2.4c3.246-4.49.359-10.628-.171-16.143a18.739,18.739,0,0,1,13.5-19.285,61.093,61.093,0,0,0-9.155,23.808c-.669,4.257-.866,8.722.594,12.776s4.869,7.624,9.132,8.251a4.055,4.055,0,0,0,3.608-.906,5.087,5.087,0,0,0,.971-3.065l1.371-15.1c-1.554,14.484,7.507,28.224,18.73,37.511s24.7,15.413,36.624,23.776l23.77-37.763" transform="translate(1185.894 939.53)" fill="#f0bd88"/>
        <path id="Trazado_18834" data-name="Trazado 18834" d="M318.642,307.292c-30.365-7.23-44.608-18.8-44.608-18.8-15.689,44.825-31.074,43.915-31.074,43.915,2,2.084,10.611,6.229,17.337-8.013,6.712-14.213,17.075-19.739,17.075-19.739,19.008-9.3,29.094,12.515,29.094,12.515-30.731-1.446-31.2,22.412-29.034,32.534S275.738,365,275.738,365c10.249.944,9.788-6.586,9.165-9.9-6.017-31.969,21.564-29.913,21.564-29.913-8.56,12.05-6.863,34.4-7.1,39.945s-4.688,5.5-4.688,5.5c6.427,3.552,8.3-2.24,8.675-8.245,6.255,30.09,54.935,51.11,54.935,51.11l11.689-14.868C319.124,381.518,318.642,307.292,318.642,307.292Z" transform="translate(1184.351 934.515)" fill="#cd996a"/>
        <path id="Trazado_18846" data-name="Trazado 18846" d="M239.546,316.174s-3.759,10.306-1.3,19.126c0,0,4.128-9.254,3.175-18.171Z" transform="translate(1185.888 926.847)" fill="#ffebca"/>
        <g id="Grupo_9326" data-name="Grupo 9326" transform="translate(1258.676 1026.313)">
          <rect id="Rectángulo_2311" data-name="Rectángulo 2311" width="7.381" height="25.94" transform="matrix(0.837, -0.547, 0.547, 0.837, 149.09, 176.379)" fill="#e2ba14"/>
          <circle id="Elipse_591" data-name="Elipse 591" cx="78.143" cy="78.143" r="78.143" transform="translate(0 110.511) rotate(-45)" fill="#fff" opacity="0.33"/>
          <path id="Trazado_18849" data-name="Trazado 18849" d="M179.675,197.773A82.572,82.572,0,1,1,203.7,83.5,82.667,82.667,0,0,1,179.675,197.773ZM94.262,66.891A73.715,73.715,0,1,0,196.28,88.336,73.8,73.8,0,0,0,94.262,66.891Z" transform="translate(-24.037 -18.112)" fill="#3c7b8e"/>
          <g id="Grupo_9325" data-name="Grupo 9325" transform="translate(36.352 36.352)">
            <g id="Grupo_9324" data-name="Grupo 9324">
              <path id="Trazado_18850" data-name="Trazado 18850" d="M178.3,193.959A74.18,74.18,0,1,1,199.884,91.3,74.264,74.264,0,0,1,178.3,193.959ZM101.025,75.544A67.22,67.22,0,1,0,194.056,95.1,67.3,67.3,0,0,0,101.025,75.544Z" transform="translate(-63.604 -57.679)" fill="#62abce"/>
            </g>
          </g>
          <path id="Trazado_18851" data-name="Trazado 18851" d="M299.5,363.589l-2.954,1.927a8.7,8.7,0,0,1-12.007-2.524l-57.713-88.435a8.7,8.7,0,0,1,2.525-12.007l2.953-1.927a8.7,8.7,0,0,1,12.007,2.524l57.713,88.435A8.7,8.7,0,0,1,299.5,363.589Z" transform="translate(-72.08 -77.157)" fill="#3c7b8e"/>
          <path id="Trazado_18852" data-name="Trazado 18852" d="M177.868,192.747a71.513,71.513,0,1,1,20.805-98.971A71.594,71.594,0,0,1,177.868,192.747ZM101.43,75.62A68.349,68.349,0,1,0,196.023,95.5,68.425,68.425,0,0,0,101.43,75.62Z" transform="translate(-28.273 -22.348)" fill="#284c54"/>
          <path id="Trazado_18853" data-name="Trazado 18853" d="M294,366.26h0a2.538,2.538,0,0,1-3.5-.736l-60.338-92.458a2.537,2.537,0,0,1,.736-3.5h0a2.537,2.537,0,0,1,3.5.736l60.339,92.458A2.538,2.538,0,0,1,294,366.26Z" transform="translate(-73.278 -79.909)" fill="#31b4d3"/>
          <circle id="Elipse_592" data-name="Elipse 592" cx="69.931" cy="69.931" r="69.931" transform="translate(40.58 40.58)" fill="#fff" opacity="0.38"/>
        </g>
        <g id="Grupo_9328" data-name="Grupo 9328" transform="translate(1435.282 1219.917)">
          <g id="Grupo_9327" data-name="Grupo 9327">
            <path id="Trazado_18855" data-name="Trazado 18855" d="M378.286,388.822c-12.085-14.95-26.358-30.108-38.443-45.058-4.31-5.333-8.655-10.7-13.879-15.142-11.976-10.182-28.241-15.241-37.977-27.583-4.41-5.592-7.614-12.758-14.1-15.689a14.527,14.527,0,0,0-18.072,6.064c-3.766,6.906-1.138,15.564,2.757,22.4a67.431,67.431,0,0,0,14.918,17.976c6.675,5.663,14.569,10.141,19.673,17.253,3.687,5.137,5.638,11.276,8.1,17.1,3.143,7.439,7.265,14.587,13.051,20.221,6.417,6.25,14.564,10.36,22.574,14.372l27.007,13.531a218.7,218.7,0,0,1,14.4-25.445" transform="translate(-253.985 -284.218)" fill="#fcd6a9"/>
            <path id="Trazado_18856" data-name="Trazado 18856" d="M423.262,394.494l-32.287,54.947,16.144,7.712,29.645-54.947Z" transform="translate(-291.934 -314.766)" fill="#fff"/>
            <path id="Trazado_18857" data-name="Trazado 18857" d="M443.605,390.494l-36.631,72.3,17.849,6.872H474.23v-73.3Z" transform="translate(-296.366 -313.658)" fill="#3e4756"/>
            <path id="Trazado_18858" data-name="Trazado 18858" d="M260.307,297.652l13.824-9.158s15.351,13.789,9.311,18.8C266.784,321.106,260.307,297.652,260.307,297.652Z" transform="translate(-255.736 -285.402)" fill="#ffebca"/>
          </g>
          <path id="Trazado_18859" data-name="Trazado 18859" d="M419.787,413.991l10.7,10.515,14.261-22.3-13.5-7.712Z" transform="translate(-299.915 -314.766)" fill="#dfe4ea"/>
          <path id="Trazado_18860" data-name="Trazado 18860" d="M451.253,390.494l-16.671,32.9,47.3,22.653V396.364l-30.625-5.87" transform="translate(-304.014 -313.658)" fill="#313944"/>
        </g>
      </g>
      <path id="Trazado_18861" data-name="Trazado 18861" d="M118.867,305.581s9.383,5.972,20.471,37.1h12.581s9.6-45.205,52.242-79.323c0,0,.427-5.331-4.265-3.2,0,0-20.471,13.007-54.589,60.773,0,0-10.021-26.655-15.14-23.883Z" transform="translate(1122.133 924.359)" fill="#56c330"/>
    </g>
    <g id="Grupo_9468" data-name="Grupo 9468" transform="translate(273.974 2685.058)">
      <g id="Grupo_9460" data-name="Grupo 9460" transform="translate(461.026 158.176)">
        <rect id="Rectángulo_2360" data-name="Rectángulo 2360" width="3.622" height="39.246" transform="translate(31.031 4.254)" fill="#d1ecfb"/>
        <rect id="Rectángulo_2361" data-name="Rectángulo 2361" height="39.246" transform="translate(34.653 4.254)" fill="#d1ecfb"/>
        <rect id="Rectángulo_2362" data-name="Rectángulo 2362" width="3.622" height="39.246" transform="translate(34.653 4.254)" fill="#bfe4ef"/>
        <rect id="Rectángulo_2363" data-name="Rectángulo 2363" height="35.2" transform="translate(34.653 22.596)" fill="#fff"/>
        <rect id="Rectángulo_2364" data-name="Rectángulo 2364" height="6.868" transform="translate(34.653 16.56)" fill="#fff"/>
        <path id="Trazado_19246" data-name="Trazado 19246" d="M493.166,183.566a1.536,1.536,0,0,0-1.536,1.536v4.921a11.552,11.552,0,0,0-8.486,11.1v12.168A11.55,11.55,0,0,0,494.66,224.8h2.927V183.566Z" transform="translate(-462.935 -167.007)" fill="#fff"/>
        <path id="Trazado_19247" data-name="Trazado 19247" d="M504.908,190.023V185.1a1.536,1.536,0,0,0-1.536-1.536h-4.421V224.8h2.928a11.549,11.549,0,0,0,11.515-11.515V201.118A11.552,11.552,0,0,0,504.908,190.023Z" transform="translate(-464.299 -167.007)" fill="#e1f5ff"/>
        <path id="Trazado_19248" data-name="Trazado 19248" d="M475.143,166.678a1.9,1.9,0,0,0-1.831,1.9v2.988a1.9,1.9,0,0,0,1.831,1.9l21.6.776V165.9Z" transform="translate(-462.086 -165.482)" fill="#fff"/>
        <path id="Trazado_19249" data-name="Trazado 19249" d="M510.579,165.444l-11.628.418V174.2l11.628.418a1.9,1.9,0,0,0,1.967-1.9v-5.375A1.9,1.9,0,0,0,510.579,165.444Z" transform="translate(-464.299 -165.443)" fill="#fff"/>
        <path id="Trazado_19250" data-name="Trazado 19250" d="M480.118,204.5a19.092,19.092,0,0,0-19.092,19.092v85.285a8.421,8.421,0,0,0,8.421,8.421h26.232V204.5Z" transform="translate(-461.026 -168.813)" fill="#76dcf4"/>
        <path id="Trazado_19251" data-name="Trazado 19251" d="M514.511,204.5h-15.56v112.8h26.232a8.421,8.421,0,0,0,8.422-8.421V223.589A19.092,19.092,0,0,0,514.511,204.5Z" transform="translate(-464.299 -168.813)" fill="#51cce0"/>
      </g>
      <g id="Grupo_9461" data-name="Grupo 9461" transform="translate(513.772 145.273)">
        <path id="Trazado_19252" data-name="Trazado 19252" d="M563.507,298.571V151.321H560.5a41.747,41.747,0,0,0-41.747,41.746v26.418a14.024,14.024,0,0,0,2.356,7.779l6.3,9.453a18.946,18.946,0,0,1-1.467,22.942l-3.749,4.311a14.027,14.027,0,0,0-3.441,9.2v8.732a15.427,15.427,0,0,0,7.9,13.464l5.723,3.2h31.136Z" transform="translate(-518.753 -151.321)" fill="#fff085"/>
        <path id="Trazado_19253" data-name="Trazado 19253" d="M610.061,227.265a14.023,14.023,0,0,0,2.356-7.779V193.067a41.747,41.747,0,0,0-41.746-41.746h-2.936v147.25H598.8l5.723-3.2a15.427,15.427,0,0,0,7.9-13.464v-8.732a14.023,14.023,0,0,0-3.441-9.2l-3.749-4.312a18.946,18.946,0,0,1-1.467-22.941Z" transform="translate(-522.98 -151.321)" fill="#ffdd71"/>
        <path id="Trazado_19254" data-name="Trazado 19254" d="M564.75,312.477H533.566v14.468a5.547,5.547,0,0,0,5.546,5.546H564.75Z" transform="translate(-520.031 -165.227)" fill="#6d6460"/>
        <path id="Trazado_19255" data-name="Trazado 19255" d="M567.695,312.477v20.014h25.637a5.546,5.546,0,0,0,5.546-5.546V312.477H567.695Z" transform="translate(-522.976 -165.227)" fill="#594a42"/>
      </g>
      <g id="Grupo_9462" data-name="Grupo 9462" transform="translate(658.399 175.374)">
        <path id="Trazado_19256" data-name="Trazado 19256" d="M742.972,184.265H717.039v92.916h25.933a10.615,10.615,0,0,0,10.615-10.615V194.88A10.616,10.616,0,0,0,742.972,184.265Z" transform="translate(-680.491 -184.265)" fill="#4ec2dd"/>
        <path id="Trazado_19257" data-name="Trazado 19257" d="M687.654,184.265a10.615,10.615,0,0,0-10.615,10.615v71.686a10.614,10.614,0,0,0,10.615,10.615h25.934V184.265Z" transform="translate(-677.039 -184.265)" fill="#76dcf4"/>
      </g>
      <g id="Grupo_9463" data-name="Grupo 9463" transform="translate(566.319 120.956)">
        <path id="Trazado_19258" data-name="Trazado 19258" d="M649.162,149.877H623.117V325.959H642.15a9.645,9.645,0,0,0,8.782-5.631c9.178-20.12,15-50.011,15-83.389C665.927,201.465,659.355,169.93,649.162,149.877Z" transform="translate(-580.306 -126.88)" fill="#d34529"/>
        <path id="Trazado_19259" data-name="Trazado 19259" d="M593.028,149.877c-10.192,20.053-16.765,51.588-16.765,87.062,0,33.378,5.818,63.269,15,83.389a9.643,9.643,0,0,0,8.781,5.631h19.033V149.877Z" transform="translate(-576.263 -126.88)" fill="#e05c4b"/>
        <path id="Trazado_19260" data-name="Trazado 19260" d="M589.369,129.678h0a4.969,4.969,0,0,0,4.969,4.969H620.2v-9.938H594.338A4.969,4.969,0,0,0,589.369,129.678Z" transform="translate(-577.394 -124.708)" fill="#fff"/>
        <path id="Trazado_19261" data-name="Trazado 19261" d="M649,124.708H623.114v9.938H649a4.969,4.969,0,0,0,4.97-4.969h0A4.969,4.969,0,0,0,649,124.708Z" transform="translate(-580.306 -124.708)" fill="#e1f5ff"/>
        <rect id="Rectángulo_2365" data-name="Rectángulo 2365" width="26.065" height="13.058" transform="translate(42.811 9.939)" fill="#e1f5ff"/>
        <rect id="Rectángulo_2366" data-name="Rectángulo 2366" width="26.045" height="13.058" transform="translate(16.765 9.939)" fill="#fff"/>
        <path id="Trazado_19262" data-name="Trazado 19262" d="M620.657,135.585H594.611v3.729h52.111v-3.729Z" transform="translate(-577.846 -125.647)" fill="#bfe4ef"/>
        <path id="Trazado_19263" data-name="Trazado 19263" d="M623.114,179.654V293.3c19.286,0,34.92-25.441,34.92-56.825S642.4,179.654,623.114,179.654Z" transform="translate(-580.306 -129.449)" fill="#ef6359"/>
        <path id="Trazado_19264" data-name="Trazado 19264" d="M584.9,236.479c0,31.384,15.634,56.825,34.92,56.825V179.654C600.53,179.654,584.9,205.1,584.9,236.479Z" transform="translate(-577.008 -129.449)" fill="#f97d73"/>
      </g>
      <g id="Grupo_9464" data-name="Grupo 9464" transform="translate(851.892 157.891)">
        <path id="Trazado_19265" data-name="Trazado 19265" d="M888.806,172.78l6.06,116.692a4.771,4.771,0,0,0,4.764,4.523h18.748V172.78Z" transform="translate(-888.806 -165.79)" fill="#00a79d"/>
        <path id="Trazado_19266" data-name="Trazado 19266" d="M921.171,172.78V293.994h18.747a4.77,4.77,0,0,0,4.764-4.523l6.061-116.692Z" transform="translate(-891.599 -165.79)" fill="#0e998b"/>
        <rect id="Rectángulo_2367" data-name="Rectángulo 2367" width="29.572" height="6.99" fill="#0e998b"/>
        <rect id="Rectángulo_2368" data-name="Rectángulo 2368" width="29.572" height="6.99" transform="translate(29.572)" fill="#098475"/>
        <path id="Trazado_19267" data-name="Trazado 19267" d="M901.253,305.442A5.559,5.559,0,0,0,895.695,311v9.447a5.559,5.559,0,0,0,5.558,5.558h17.72V305.442Z" transform="translate(-889.4 -177.238)" fill="#fff"/>
        <path id="Trazado_19268" data-name="Trazado 19268" d="M938.942,305.442H921.171v20.563h17.771a5.559,5.559,0,0,0,5.558-5.558V311A5.559,5.559,0,0,0,938.942,305.442Z" transform="translate(-891.599 -177.238)" fill="#e1f5ff"/>
      </g>
      <g id="Grupo_9465" data-name="Grupo 9465" transform="translate(788.728 127.492)">
        <path id="Trazado_19269" data-name="Trazado 19269" d="M866.375,183.265h-6.083V321.341h27.077A10.035,10.035,0,0,0,897.4,311.306V214.294A31.029,31.029,0,0,0,866.375,183.265Z" transform="translate(-823.181 -136.297)" fill="#ffdd71"/>
        <path id="Trazado_19270" data-name="Trazado 19270" d="M850.7,183.265a31.029,31.029,0,0,0-31.029,31.029v97.012a10.035,10.035,0,0,0,10.035,10.035h27.076V183.265Z" transform="translate(-819.676 -136.297)" fill="#fff085"/>
        <rect id="Rectángulo_2369" data-name="Rectángulo 2369" width="3.622" height="39.246" transform="translate(33.49 6.104)" fill="#594a42"/>
        <rect id="Rectángulo_2370" data-name="Rectángulo 2370" width="3.622" height="39.246" transform="translate(37.111 6.104)" fill="#3d312c"/>
        <path id="Trazado_19271" data-name="Trazado 19271" d="M854.507,152.01a1.536,1.536,0,0,0-1.536,1.535v4.5h-3.584a4.916,4.916,0,0,0-4.9,4.9v18.782h14.443V152.01Z" transform="translate(-821.817 -133.6)" fill="#6d6460"/>
        <path id="Trazado_19272" data-name="Trazado 19272" d="M869.834,158.046h-3.584v-4.5a1.535,1.535,0,0,0-1.535-1.535h-4.422v29.719h14.443V162.947A4.916,4.916,0,0,0,869.834,158.046Z" transform="translate(-823.181 -133.6)" fill="#594a42"/>
        <path id="Trazado_19273" data-name="Trazado 19273" d="M883.534,140.3c-21.469-4.5-35.859-.122-36-.078l-1.911-6.1c.649-.2,16.14-4.914,39.226-.078Z" transform="translate(-821.915 -131.861)" fill="#6d6460"/>
      </g>
      <g id="Grupo_9466" data-name="Grupo 9466" transform="translate(728.28 108.45)">
        <path id="Trazado_19274" data-name="Trazado 19274" d="M778.769,155.733h0a123.53,123.53,0,0,0-25.249,74.835v89.269a6.628,6.628,0,0,0,6.628,6.627h36.409V155.733Z" transform="translate(-753.52 -114.879)" fill="#66ad5a"/>
        <path id="Trazado_19275" data-name="Trazado 19275" d="M818.41,155.733H800.621V326.464H837.03a6.627,6.627,0,0,0,6.627-6.627V230.568a123.529,123.529,0,0,0-25.248-74.835Z" transform="translate(-757.584 -114.879)" fill="#5b9b4e"/>
        <rect id="Rectángulo_2371" data-name="Rectángulo 2371" width="17.8" height="32.555" transform="translate(43.03 8.299)" fill="#ffdd71"/>
        <rect id="Rectángulo_2372" data-name="Rectángulo 2372" width="17.786" height="32.555" transform="translate(25.244 8.299)" fill="#fff085"/>
        <path id="Trazado_19276" data-name="Trazado 19276" d="M808.673,122.271c0,2.968-3.985,5.374-8.9,5.374s-8.9-2.406-8.9-5.374,3.985-5.374,8.9-5.374S808.673,119.3,808.673,122.271Z" transform="translate(-756.743 -111.528)" fill="#efbe52"/>
        <path id="Trazado_19277" data-name="Trazado 19277" d="M785.188,111.021c-2.231,0-4.04,2.212-4.04,4.94v3.358h17.786v-8.3Z" transform="translate(-755.904 -111.021)" fill="#fff085"/>
        <path id="Trazado_19278" data-name="Trazado 19278" d="M818.414,115.961c0-2.728-1.809-4.94-4.04-4.94h-13.76v8.3h17.8Z" transform="translate(-757.584 -111.021)" fill="#ffdd71"/>
        <rect id="Rectángulo_2373" data-name="Rectángulo 2373" width="35.586" height="3.37" transform="translate(25.244 7.763)" fill="#efbe52"/>
        <path id="Trazado_19279" data-name="Trazado 19279" d="M825.472,208.215H800.791v71.078h24.681a3.278,3.278,0,0,0,3.278-3.277V211.493A3.278,3.278,0,0,0,825.472,208.215Z" transform="translate(-757.599 -119.408)" fill="#78c168"/>
        <path id="Trazado_19280" data-name="Trazado 19280" d="M773.47,208.215a3.278,3.278,0,0,0-3.278,3.278v64.522a3.278,3.278,0,0,0,3.278,3.277h24.68V208.215Z" transform="translate(-754.959 -119.408)" fill="#9cdd8e"/>
      </g>
      <g id="Grupo_9467" data-name="Grupo 9467" transform="translate(631.094 81.231)">
        <path id="Trazado_19281" data-name="Trazado 19281" d="M702.092,81.231a16.032,16.032,0,0,0-10.449,4,76.071,76.071,0,0,0-12.507,14.1c-1.121,1.6-2.223,3.254-3.3,4.985a128.3,128.3,0,0,0-6.827,12.592h43.882V81.231Z" transform="translate(-649.041 -81.231)" fill="#fff"/>
        <path id="Trazado_19282" data-name="Trazado 19282" d="M754.093,104.317c-1.073-1.731-2.175-3.386-3.3-4.985a76.069,76.069,0,0,0-12.507-14.1,16.033,16.033,0,0,0-10.449-4h-10.8v35.678H760.92A128.086,128.086,0,0,0,754.093,104.317Z" transform="translate(-653.185 -81.231)" fill="#e1f5ff"/>
        <path id="Trazado_19283" data-name="Trazado 19283" d="M667.127,120.278c-12.342,26.011-19.972,61.885-19.972,101.5,0,38.408,7.173,73.295,18.857,99.09,2.871,6.337,8.642,10.328,14.95,10.328h30.046V120.278Z" transform="translate(-647.155 -84.6)" fill="#46addb"/>
        <path id="Trazado_19284" data-name="Trazado 19284" d="M760.92,120.278H717.039V331.2h30.046c6.307,0,12.078-3.99,14.949-10.328,11.685-25.795,18.857-60.682,18.857-99.09C780.892,182.163,773.262,146.289,760.92,120.278Z" transform="translate(-653.185 -84.6)" fill="#3197c4"/>
        <path id="Trazado_19285" data-name="Trazado 19285" d="M717.039,98.457v27.808a13.9,13.9,0,0,0,0-27.808Z" transform="translate(-653.185 -82.717)" fill="#e1f5ff"/>
        <path id="Trazado_19286" data-name="Trazado 19286" d="M701.822,112.361a13.9,13.9,0,0,0,13.9,13.9V98.457A13.9,13.9,0,0,0,701.822,112.361Z" transform="translate(-651.872 -82.717)" fill="#fff"/>
        <path id="Trazado_19287" data-name="Trazado 19287" d="M742.972,184.265H717.039v92.916h25.933a10.615,10.615,0,0,0,10.615-10.615V194.88A10.616,10.616,0,0,0,742.972,184.265Z" transform="translate(-653.185 -90.122)" fill="#51cce0"/>
        <path id="Trazado_19288" data-name="Trazado 19288" d="M687.654,184.265a10.615,10.615,0,0,0-10.615,10.615v71.686a10.614,10.614,0,0,0,10.615,10.615h25.934V184.265Z" transform="translate(-649.734 -90.122)" fill="#76dcf4"/>
      </g>
    </g>
  </g>
</svg>
