<svg xmlns="http://www.w3.org/2000/svg" width="705" height="350.118" viewBox="0 0 705 350.118">
  <g id="Grupo_9861" data-name="Grupo 9861" transform="translate(-825 -3384.188)">
    <g id="Grupo_9333" data-name="Grupo 9333" transform="translate(0 2272)">
      <path id="Trazado_18847" data-name="Trazado 18847" d="M271.862,381.179l3-1.351,4.219,7.7A12.922,12.922,0,0,1,271.862,381.179Z" transform="translate(1131.888 1015.586)" fill="#ffebca"/>
      <g id="Grupo_9329" data-name="Grupo 9329" transform="translate(-83.146 85.874)">
        <path id="Trazado_18832" data-name="Trazado 18832" d="M341.546,302.083l-4.708,9.292-11.2-6.4-3.984,6.779c-4.977-5.248-6.3-7.823-11.2-15.464-6.311-9.839-12.482-19.828-17.119-30.558-3.821-8.84-6.685-18.322-12.752-25.8-4.112-5.068-9.5-8.949-15.084-12.328-12.155-7.353-25.987-12.688-40.189-12.339a46.568,46.568,0,0,0-24.915,7.851L192.546,211.1a8.706,8.706,0,0,0-10.271-3.389l-3.282-5.029a82.571,82.571,0,1,0-6.181,4.034l3.282,5.029a8.705,8.705,0,0,0-1.033,10.766l11.723,17.963a62.13,62.13,0,0,0-2.337,7.905,40.915,40.915,0,0,0-2.116,12.9,18.382,18.382,0,0,0,.418,4.811,11.963,11.963,0,0,0,3.587,6.162h0c1.94,2.024,10.112,5.986,16.742-6.813l.937,1.435c-4.4,9.069-2.272,20.606,3.217,29.26a16.826,16.826,0,0,0,5.866,6.536,13.256,13.256,0,0,0,2.629,1.443c.3.122.617.224.933.317h0a10.576,10.576,0,0,0,2.454.411h0c4.376.4,6.795-.74,8.087-2.439l5.573,8.541a8.7,8.7,0,0,0,11.834,2.624,54.575,54.575,0,0,0,10.021,13.823c6.417,6.25,14.565,10.36,22.574,14.372l20.713,10.378-4.571,7.778,15.212,7.267-3.645,7.193,6.025,2.32,61.231-.508v-68.24ZM237.871,244.151q-2.957.895-5.838,2.021a41.81,41.81,0,0,1-3.552-3.893,18.686,18.686,0,0,1,4.411.181A17.759,17.759,0,0,1,237.871,244.151Z" transform="translate(1238.283 999.731)" fill="#313944" opacity="0.15"/>
        <path id="Trazado_18833" data-name="Trazado 18833" d="M380.512,370.718c-8.358-8.2-9.03-10.007-14.983-19.288-6.311-9.839-12.482-19.828-17.119-30.558-3.821-8.84-6.685-18.322-12.752-25.8-4.112-5.068-9.5-8.949-15.084-12.328-12.155-7.353-25.987-12.688-40.189-12.339s-28.738,7.157-35.831,19.466c-3.457,6-5,12.884-6.265,19.69-.716,3.857-1.354,7.852-.458,11.672s3.7,7.454,7.559,8.145c3.547.635,7.132-1.335,9.522-4.031s3.856-6.062,5.525-9.255c3.155-6.038,7.3-11.78,13.094-15.37s13.459-4.674,19.455-1.442a80.745,80.745,0,0,0-23.306,11.409,34.572,34.572,0,0,0-9.22,8.909c-6.124,9.356-4.135,22.235,1.854,31.679,2.115,3.335,4.833,6.5,8.5,7.979s8.414.8,10.728-2.4c3.246-4.49.359-10.628-.171-16.143a18.739,18.739,0,0,1,13.5-19.285,61.093,61.093,0,0,0-9.155,23.808c-.669,4.257-.866,8.722.594,12.776s4.869,7.624,9.132,8.251a4.055,4.055,0,0,0,3.608-.906,5.087,5.087,0,0,0,.971-3.065l1.371-15.1c-1.554,14.484,7.507,28.224,18.73,37.511s24.7,15.413,36.624,23.776l23.77-37.763" transform="translate(1185.894 939.53)" fill="#f0bd88"/>
        <path id="Trazado_18834" data-name="Trazado 18834" d="M318.642,307.292c-30.365-7.23-44.608-18.8-44.608-18.8-15.689,44.825-31.074,43.915-31.074,43.915,2,2.084,10.611,6.229,17.337-8.013,6.712-14.213,17.075-19.739,17.075-19.739,19.008-9.3,29.094,12.515,29.094,12.515-30.731-1.446-31.2,22.412-29.034,32.534S275.738,365,275.738,365c10.249.944,9.788-6.586,9.165-9.9-6.017-31.969,21.564-29.913,21.564-29.913-8.56,12.05-6.863,34.4-7.1,39.945s-4.688,5.5-4.688,5.5c6.427,3.552,8.3-2.24,8.675-8.245,6.255,30.09,54.935,51.11,54.935,51.11l11.689-14.868C319.124,381.518,318.642,307.292,318.642,307.292Z" transform="translate(1184.351 934.515)" fill="#cd996a"/>
        <path id="Trazado_18846" data-name="Trazado 18846" d="M239.546,316.174s-3.759,10.306-1.3,19.126c0,0,4.128-9.254,3.175-18.171Z" transform="translate(1185.888 926.847)" fill="#ffebca"/>
        <g id="Grupo_9326" data-name="Grupo 9326" transform="translate(1258.676 1026.313)">
          <rect id="Rectángulo_2311" data-name="Rectángulo 2311" width="7.381" height="25.94" transform="matrix(0.837, -0.547, 0.547, 0.837, 149.09, 176.379)" fill="#e2ba14"/>
          <circle id="Elipse_591" data-name="Elipse 591" cx="78.143" cy="78.143" r="78.143" transform="translate(0 110.511) rotate(-45)" fill="#fff" opacity="0.33"/>
          <path id="Trazado_18849" data-name="Trazado 18849" d="M179.675,197.773A82.572,82.572,0,1,1,203.7,83.5,82.667,82.667,0,0,1,179.675,197.773ZM94.262,66.891A73.715,73.715,0,1,0,196.28,88.336,73.8,73.8,0,0,0,94.262,66.891Z" transform="translate(-24.037 -18.112)" fill="#3c7b8e"/>
          <g id="Grupo_9325" data-name="Grupo 9325" transform="translate(36.352 36.352)">
            <g id="Grupo_9324" data-name="Grupo 9324">
              <path id="Trazado_18850" data-name="Trazado 18850" d="M178.3,193.959A74.18,74.18,0,1,1,199.884,91.3,74.264,74.264,0,0,1,178.3,193.959ZM101.025,75.544A67.22,67.22,0,1,0,194.056,95.1,67.3,67.3,0,0,0,101.025,75.544Z" transform="translate(-63.604 -57.679)" fill="#62abce"/>
            </g>
          </g>
          <path id="Trazado_18851" data-name="Trazado 18851" d="M299.5,363.589l-2.954,1.927a8.7,8.7,0,0,1-12.007-2.524l-57.713-88.435a8.7,8.7,0,0,1,2.525-12.007l2.953-1.927a8.7,8.7,0,0,1,12.007,2.524l57.713,88.435A8.7,8.7,0,0,1,299.5,363.589Z" transform="translate(-72.08 -77.157)" fill="#3c7b8e"/>
          <path id="Trazado_18852" data-name="Trazado 18852" d="M177.868,192.747a71.513,71.513,0,1,1,20.805-98.971A71.594,71.594,0,0,1,177.868,192.747ZM101.43,75.62A68.349,68.349,0,1,0,196.023,95.5,68.425,68.425,0,0,0,101.43,75.62Z" transform="translate(-28.273 -22.348)" fill="#284c54"/>
          <path id="Trazado_18853" data-name="Trazado 18853" d="M294,366.26h0a2.538,2.538,0,0,1-3.5-.736l-60.338-92.458a2.537,2.537,0,0,1,.736-3.5h0a2.537,2.537,0,0,1,3.5.736l60.339,92.458A2.538,2.538,0,0,1,294,366.26Z" transform="translate(-73.278 -79.909)" fill="#31b4d3"/>
          <circle id="Elipse_592" data-name="Elipse 592" cx="69.931" cy="69.931" r="69.931" transform="translate(40.58 40.58)" fill="#fff" opacity="0.38"/>
        </g>
        <g id="Grupo_9328" data-name="Grupo 9328" transform="translate(1435.282 1219.917)">
          <g id="Grupo_9327" data-name="Grupo 9327">
            <path id="Trazado_18855" data-name="Trazado 18855" d="M378.286,388.822c-12.085-14.95-26.358-30.108-38.443-45.058-4.31-5.333-8.655-10.7-13.879-15.142-11.976-10.182-28.241-15.241-37.977-27.583-4.41-5.592-7.614-12.758-14.1-15.689a14.527,14.527,0,0,0-18.072,6.064c-3.766,6.906-1.138,15.564,2.757,22.4a67.431,67.431,0,0,0,14.918,17.976c6.675,5.663,14.569,10.141,19.673,17.253,3.687,5.137,5.638,11.276,8.1,17.1,3.143,7.439,7.265,14.587,13.051,20.221,6.417,6.25,14.564,10.36,22.574,14.372l27.007,13.531a218.7,218.7,0,0,1,14.4-25.445" transform="translate(-253.985 -284.218)" fill="#fcd6a9"/>
            <path id="Trazado_18856" data-name="Trazado 18856" d="M423.262,394.494l-32.287,54.947,16.144,7.712,29.645-54.947Z" transform="translate(-291.934 -314.766)" fill="#fff"/>
            <path id="Trazado_18857" data-name="Trazado 18857" d="M443.605,390.494l-36.631,72.3,17.849,6.872H474.23v-73.3Z" transform="translate(-296.366 -313.658)" fill="#3e4756"/>
            <path id="Trazado_18858" data-name="Trazado 18858" d="M260.307,297.652l13.824-9.158s15.351,13.789,9.311,18.8C266.784,321.106,260.307,297.652,260.307,297.652Z" transform="translate(-255.736 -285.402)" fill="#ffebca"/>
          </g>
          <path id="Trazado_18859" data-name="Trazado 18859" d="M419.787,413.991l10.7,10.515,14.261-22.3-13.5-7.712Z" transform="translate(-299.915 -314.766)" fill="#dfe4ea"/>
          <path id="Trazado_18860" data-name="Trazado 18860" d="M451.253,390.494l-16.671,32.9,47.3,22.653V396.364l-30.625-5.87" transform="translate(-304.014 -313.658)" fill="#313944"/>
        </g>
      </g>
      <path id="Trazado_18861" data-name="Trazado 18861" d="M118.867,305.581s9.383,5.972,20.471,37.1h12.581s9.6-45.205,52.242-79.323c0,0,.427-5.331-4.265-3.2,0,0-20.471,13.007-54.589,60.773,0,0-10.021-26.655-15.14-23.883Z" transform="translate(1122.133 924.359)" fill="#56c330"/>
    </g>
    <g id="Grupo_9480" data-name="Grupo 9480" transform="translate(-31.889 28)">
      <g id="Grupo_9478" data-name="Grupo 9478" transform="translate(891.665 3493.875)">
        <g id="Grupo_9471" data-name="Grupo 9471" transform="translate(209.684 16.326)">
          <g id="Grupo_9469" data-name="Grupo 9469" transform="translate(0 0)">
            <rect id="Rectángulo_2374" data-name="Rectángulo 2374" width="9.291" height="73.931" transform="translate(8.202 56.191)" fill="#dbdbdb"/>
            <path id="Trazado_19289" data-name="Trazado 19289" d="M652.977,164.33h-8.431l1.377-51.392H651.6Z" transform="translate(-635.857 -112.937)" fill="#fcca46"/>
            <path id="Trazado_19290" data-name="Trazado 19290" d="M652.234,128.184l-.445,31.792h.946Z" transform="translate(-639.358 -120.306)" fill="#878787"/>
            <path id="Rectángulo_2375" data-name="Rectángulo 2375" d="M.629,0H2.554a.629.629,0,0,1,.629.629V8.6a0,0,0,0,1,0,0H0a0,0,0,0,1,0,0V.629A.629.629,0,0,1,.629,0Z" transform="translate(11.313 38.607)" fill="#a6a6a6"/>
            <path id="Trazado_19291" data-name="Trazado 19291" d="M650.775,207.368V204.9a1.743,1.743,0,0,0-1.663-1.813h-1.721a1.743,1.743,0,0,0-1.663,1.813v2.47a1.172,1.172,0,0,1-1.119,1.219h0a1.173,1.173,0,0,0-1.119,1.219v1.813a1.173,1.173,0,0,0,1.119,1.219h7.284a1.172,1.172,0,0,0,1.118-1.219v-1.813a1.172,1.172,0,0,0-1.118-1.219h0A1.172,1.172,0,0,1,650.775,207.368Z" transform="translate(-635.347 -156.507)" fill="#5e5e5e"/>
            <path id="Trazado_19292" data-name="Trazado 19292" d="M652.977,164.33h-8.431l1.377-51.392H651.6Z" transform="translate(-635.857 -112.937)" fill="#1a1a1a" style="mix-blend-mode: screen;isolation: isolate"/>
            <path id="Trazado_19293" data-name="Trazado 19293" d="M646.072,236.089V238.4h1.362v97.939h4.015V238.4h1.362v-2.313Z" transform="translate(-636.594 -172.458)" fill="#fcca46"/>
            <rect id="Rectángulo_2376" data-name="Rectángulo 2376" width="25.695" height="3.376" rx="0.612" transform="translate(0 130.122)" fill="#ebebeb"/>
            <rect id="Rectángulo_2377" data-name="Rectángulo 2377" width="21.68" height="3.376" rx="0.612" transform="translate(2.007 161.632)" fill="#e3b640"/>
          </g>
          <g id="Grupo_9470" data-name="Grupo 9470" transform="translate(12.102)" style="mix-blend-mode: multiply;isolation: isolate">
            <rect id="Rectángulo_2378" data-name="Rectángulo 2378" width="2.753" height="28.134" transform="translate(0 133.498)" fill="#e6e6e6"/>
            <path id="Trazado_19294" data-name="Trazado 19294" d="M671.887,364.776h-2.753a1.694,1.694,0,0,1,0,3.376h2.753a1.694,1.694,0,0,0,0-3.376Z" transform="translate(-659.842 -234.654)" fill="#e6e6e6"/>
            <path id="Trazado_19295" data-name="Trazado 19295" d="M652.486,164.329a1.111,1.111,0,0,0,1,.688,1.172,1.172,0,0,1,1.118,1.219v1.813a1.23,1.23,0,0,1-.607,1.078h.435v73.931h2.753V169.128h-.435a1.23,1.23,0,0,0,.607-1.078v-1.813a1.172,1.172,0,0,0-1.118-1.219,1.112,1.112,0,0,1-1-.688h1.576l-1.376-51.392h-2.753l1.377,51.392Z" transform="translate(-651.796 -112.937)" fill="#e6e6e6"/>
            <path id="Trazado_19296" data-name="Trazado 19296" d="M668,425.762h-2.753a1.694,1.694,0,0,1,0,3.376H668a1.694,1.694,0,0,0,0-3.376Z" transform="translate(-657.965 -264.13)" fill="#e6e6e6"/>
          </g>
        </g>
        <g id="Grupo_9475" data-name="Grupo 9475" transform="translate(0 0)">
          <g id="Grupo_9472" data-name="Grupo 9472" transform="translate(8.22 73.98)">
            <path id="Trazado_19297" data-name="Trazado 19297" d="M376.625,347.252h-11.1a14.815,14.815,0,0,1-8.6-26.883l31.173-22.2a30.251,30.251,0,0,0-17.55-54.891H349.326a25.878,25.878,0,0,0-25.848,25.849v1.893a23.982,23.982,0,0,0,23.955,23.955,16.255,16.255,0,0,0,16.237-16.237V269.78h3.5v8.956a19.754,19.754,0,0,1-19.732,19.732,27.481,27.481,0,0,1-27.45-27.45v-1.893a29.376,29.376,0,0,1,29.343-29.343h21.227a33.746,33.746,0,0,1,19.577,61.233l-31.172,22.2a11.321,11.321,0,0,0,6.567,20.542h9.653l7.789-7.789,2.471,2.471Z" transform="translate(-319.983 -239.782)" fill="#0ccad4"/>
          </g>
          <g id="Grupo_9473" data-name="Grupo 9473" transform="translate(53.589 3.692)">
            <path id="Trazado_19298" data-name="Trazado 19298" d="M388.167,234.42l46.692-64.61A18.806,18.806,0,0,0,419.61,140H408.123v4.66H419.61a14.144,14.144,0,0,1,11.471,22.42L384.39,231.69Z" transform="translate(-384.39 -140.001)" fill="#adadad"/>
          </g>
          <path id="Trazado_19299" data-name="Trazado 19299" d="M406.622,146.382l8.318-1.557a2.238,2.238,0,0,0,1.827-2.2v-4.074a2.238,2.238,0,0,0-1.827-2.2l-8.318-1.557a1.948,1.948,0,0,0-2.306,1.915v7.758A1.948,1.948,0,0,0,406.622,146.382Z" transform="translate(-336.69 -134.76)" fill="#616161"/>
          <g id="Grupo_9474" data-name="Grupo 9474" transform="translate(0 3.692)">
            <path id="Trazado_19300" data-name="Trazado 19300" d="M358.575,234.42l-46.692-64.61A18.805,18.805,0,0,1,327.133,140H338.62v4.66H327.133a14.144,14.144,0,0,0-11.471,22.42l46.691,64.608Z" transform="translate(-308.314 -140.001)" fill="#adadad"/>
          </g>
          <rect id="Rectángulo_2379" data-name="Rectángulo 2379" width="5.679" height="7.427" transform="translate(51.227 99.173)" fill="#8f8f8f"/>
          <path id="Trazado_19301" data-name="Trazado 19301" d="M385.757,271.438h-5.526A2.176,2.176,0,0,1,378.1,268.8l1.388-6.422a2.176,2.176,0,0,1,2.128-1.717h2.749a2.176,2.176,0,0,1,2.127,1.717l1.388,6.422A2.176,2.176,0,0,1,385.757,271.438Z" transform="translate(-328.928 -171.974)" fill="#a3a3a3"/>
          <path id="Trazado_19302" data-name="Trazado 19302" d="M357.57,146.382l-8.318-1.557a2.238,2.238,0,0,1-1.827-2.2v-4.074a2.238,2.238,0,0,1,1.827-2.2l8.318-1.557a1.948,1.948,0,0,1,2.306,1.915v7.758A1.948,1.948,0,0,1,357.57,146.382Z" transform="translate(-319.875 -134.76)" fill="#616161"/>
          <ellipse id="Elipse_606" data-name="Elipse 606" cx="11.65" cy="11.65" rx="11.65" ry="11.65" transform="translate(63.432 175.673) rotate(-79.244)" fill="#949494"/>
          <ellipse id="Elipse_607" data-name="Elipse 607" cx="7.572" cy="7.572" rx="7.572" ry="7.572" transform="translate(69.479 158.83)" fill="#b8b8b8"/>
        </g>
        <g id="Grupo_9477" data-name="Grupo 9477" transform="translate(110.557 44.119)">
          <path id="Trazado_19303" data-name="Trazado 19303" d="M491.307,500.476c7.341,6.75,19.867,5.071,27.978-3.75s8.735-21.444,1.394-28.194-19.868-5.07-27.979,3.75S483.965,493.727,491.307,500.476Zm4.839-25.027c6.009-6.535,15.289-7.779,20.728-2.778s4.976,14.352-1.033,20.888-15.289,7.779-20.728,2.778S490.136,481.985,496.145,475.45Z" transform="translate(-448.904 -464.391)" fill="#a3a3a3"/>
          <path id="Trazado_19304" data-name="Trazado 19304" d="M486.6,502.867v80.239s6.618,20.4,7.961,13.834c5.242-25.63,4.174-19.61,1.359-50.531-1.27-13.948-1.165-35.678-1.165-35.678Z" transform="translate(-449.028 -475.764)" fill="#a3a3a3"/>
          <path id="Trazado_19305" data-name="Trazado 19305" d="M466.363,472.282c-8.111-8.821-20.637-10.5-27.979-3.75s-6.717,19.374,1.394,28.194,20.637,10.5,27.978,3.75S474.473,481.1,466.363,472.282Zm-2.413,24.055c-5.438,5-14.718,3.757-20.728-2.778s-6.471-15.887-1.033-20.888,14.719-3.757,20.728,2.778S469.389,491.337,463.95,496.337Z" transform="translate(-433.261 -464.391)" fill="#c7c7c7"/>
          <path id="Trazado_19306" data-name="Trazado 19306" d="M484.011,502.867v80.239s-12.086-3.64-12.086-10.339.583-12.523,2.767-26.357,1.165-35.678,1.165-35.678Z" transform="translate(-444.69 -475.764)" fill="#c7c7c7"/>
          <path id="Trazado_19307" data-name="Trazado 19307" d="M471.592,598.582c-2.039,14.271-.583,36.7,9.465,52.134,9.32-16.6,10.339-25.63,7.136-33.057S473.776,603.97,471.592,598.582Z" transform="translate(-444.356 -504.055)" fill="#c7c7c7"/>
          <g id="Grupo_9476" data-name="Grupo 9476" transform="translate(33.886 108.361)">
            <ellipse id="Elipse_608" data-name="Elipse 608" cx="2.269" cy="2.269" rx="2.269" ry="2.269" transform="translate(0.073 0.146)" fill="#e6e6e6" style="mix-blend-mode: multiply;isolation: isolate"/>
            <ellipse id="Elipse_609" data-name="Elipse 609" cx="2.087" cy="2.087" rx="2.087" ry="2.087" fill="#bdbdbd"/>
            <path id="Trazado_19308" data-name="Trazado 19308" d="M481.755,621.905l3.768-1.627a2.034,2.034,0,0,0-.213-.533l-3.795,1.639A2.064,2.064,0,0,0,481.755,621.905Z" transform="translate(-481.41 -618.672)" fill="#e6e6e6" style="mix-blend-mode: multiply;isolation: isolate"/>
          </g>
        </g>
      </g>
      <g id="Grupo_9479" data-name="Grupo 9479" transform="translate(856.889 3459.058)">
        <rect id="Rectángulo_2380" data-name="Rectángulo 2380" width="11.067" height="20.096" transform="translate(8.44 62.035)" fill="#9e9e9e"/>
        <path id="Trazado_19309" data-name="Trazado 19309" d="M9.967,67.863A5.427,5.427,0,0,1,4.5,63.294C3.117,54.641.3,36.274.012,28.542-.376,18.252,8.556,0,8.556,0c7.961,11.262,10.873,23.106,9.32,33.785-1.105,7.6-2.112,21.575-2.6,29.015a5.421,5.421,0,0,1-5.308,5.063Z" transform="translate(4.253 0)" fill="#c2c2c2"/>
        <path id="Trazado_19310" data-name="Trazado 19310" d="M11.715,47.448A5.425,5.425,0,0,1,6.246,42.88C4.865,34.226,2.052,15.86,1.76,8.128A31.753,31.753,0,0,1,2.772,0C1.151,4.917-.141,10.2.012,14.243.3,21.976,3.117,40.343,4.5,49A5.429,5.429,0,0,0,15.275,48.5c.054-.812.114-1.713.179-2.664A5.406,5.406,0,0,1,11.715,47.448Z" transform="translate(4.253 14.298)" fill="#e6e6e6" style="mix-blend-mode: multiply;isolation: isolate"/>
        <path id="Trazado_19311" data-name="Trazado 19311" d="M19.507,0H8.439L8.214.847A100.1,100.1,0,0,0,5.176,34.7L7.649,65.12a110.25,110.25,0,0,1-.142,19.45L5.75,102.9a47.248,47.248,0,0,1-4.465,15.993h0A12.955,12.955,0,0,0,4.9,134.661h0a12.956,12.956,0,0,0,8.054,2.808h2.006a12.959,12.959,0,0,0,8.093-2.839l.5-.4a12.955,12.955,0,0,0,3.874-15.08l-.839-2.024a47.223,47.223,0,0,1-3.222-12.1l-2.4-18.743a110.171,110.171,0,0,1-.527-22.92l2.33-28.64A100.111,100.111,0,0,0,19.762.963Z" transform="translate(0 82.131)" fill="#a3a3a3"/>
        <path id="Trazado_19312" data-name="Trazado 19312" d="M25.652,119.154l-.839-2.024a47.223,47.223,0,0,1-3.222-12.1l-2.4-18.743a110.171,110.171,0,0,1-.527-22.92L21,34.723A100.111,100.111,0,0,0,17.988.963L17.733,0H16.02a100.087,100.087,0,0,1,2.5,31.665l-2.331,28.64a110.214,110.214,0,0,0,.528,22.919l2.4,18.743a47.228,47.228,0,0,0,3.222,12.1l.839,2.024A12.955,12.955,0,0,1,19.3,131.174l-.5.4a12.956,12.956,0,0,1-8.093,2.84H8.707A12.957,12.957,0,0,1,.652,131.6h0c-.228-.18-.44-.373-.652-.565a12.906,12.906,0,0,0,3.128,3.623h0a12.956,12.956,0,0,0,8.054,2.808h2.006a12.959,12.959,0,0,0,8.093-2.839l.5-.4A12.955,12.955,0,0,0,25.652,119.154Z" transform="translate(1.774 82.131)" fill="#e6e6e6" style="mix-blend-mode: multiply;isolation: isolate"/>
        <path id="Trazado_19313" data-name="Trazado 19313" d="M1.824,43.979a.583.583,0,0,1-.575-.491C.193,36.841-1.185,14.281,1.839.458A.582.582,0,1,1,2.977.707C-.014,14.379,1.353,36.72,2.4,43.3a.586.586,0,0,1-.577.674Z" transform="translate(7.488 88.393)" fill="#121212" style="mix-blend-mode: screen;isolation: isolate"/>
      </g>
    </g>
    <g id="Grupo_9483" data-name="Grupo 9483" transform="translate(172.031 3078.768)">
      <path id="Trazado_19314" data-name="Trazado 19314" d="M961.4,657.07h-7.95a2.68,2.68,0,0,1-2.68-2.681l1.75-66.189a2.68,2.68,0,0,1,2.68-2.68h4.449a2.68,2.68,0,0,1,2.68,2.68l1.75,66.189A2.681,2.681,0,0,1,961.4,657.07Z" transform="translate(-3.362 -30.121)" fill="#bdbdbd"/>
      <path id="Trazado_19315" data-name="Trazado 19315" d="M962.329,588.268a2.676,2.676,0,0,0-1.708-2.492l1.708,64.6a2.68,2.68,0,0,1-2.68,2.68H951.7a2.653,2.653,0,0,1-.889-.162l-.041,1.566a2.68,2.68,0,0,0,2.68,2.681h7.95a2.681,2.681,0,0,0,2.68-2.681Z" transform="translate(-3.362 -30.188)" fill="#e6e6e6" style="mix-blend-mode: multiply;isolation: isolate"/>
      <path id="Trazado_19316" data-name="Trazado 19316" d="M958.642,576.46h0a2.68,2.68,0,0,1-2.68-2.68v-38.4a2.68,2.68,0,0,1,2.68-2.68h0a2.68,2.68,0,0,1,2.68,2.68v38.4A2.68,2.68,0,0,1,958.642,576.46Z" transform="translate(-4.726 -16.247)" fill="#9e9e9e"/>
      <g id="Grupo_9482" data-name="Grupo 9482" transform="translate(937.969 470.839)">
        <ellipse id="Elipse_610" data-name="Elipse 610" cx="23.392" cy="16.398" rx="23.392" ry="16.398" transform="translate(0 33.919) rotate(-46.469)" fill="#adadad"/>
        <ellipse id="Elipse_611" data-name="Elipse 611" cx="19.347" cy="13.562" rx="19.347" ry="13.562" transform="translate(4.974 33.065) rotate(-46.469)" fill="#b8c6f2"/>
        <g id="Grupo_9481" data-name="Grupo 9481" transform="translate(11.574 12.874)">
          <path id="Trazado_19317" data-name="Trazado 19317" d="M987.655,504.338l-23.746-10.175c-.666.577-1.321,1.18-1.948,1.84a27.3,27.3,0,0,0-2.32,2.8l25.668,11A22.989,22.989,0,0,0,987.655,504.338Z" transform="translate(-955.235 -489.839)" fill="#3b3b3b" style="mix-blend-mode: screen;isolation: isolate"/>
          <path id="Trazado_19318" data-name="Trazado 19318" d="M975.725,523.665l-21.911-9.39a16.053,16.053,0,0,0-.135,2.787l19.248,8.248A24.436,24.436,0,0,0,975.725,523.665Z" transform="translate(-953.665 -495.122)" fill="#3b3b3b" style="mix-blend-mode: screen;isolation: isolate"/>
          <path id="Trazado_19319" data-name="Trazado 19319" d="M967.225,528.819a19.315,19.315,0,0,0,4-1.129l-17.3-7.413a11.311,11.311,0,0,0,1.094,3.313Z" transform="translate(-953.735 -496.698)" fill="#3b3b3b" style="mix-blend-mode: screen;isolation: isolate"/>
          <path id="Trazado_19320" data-name="Trazado 19320" d="M970.7,489.814l20.535,8.8a14.27,14.27,0,0,0-.184-2.924L973.8,488.3A23.071,23.071,0,0,0,970.7,489.814Z" transform="translate(-958.14 -488.299)" fill="#3b3b3b" style="mix-blend-mode: screen;isolation: isolate"/>
        </g>
      </g>
      <rect id="Rectángulo_2381" data-name="Rectángulo 2381" width="2.626" height="34.426" rx="0.375" transform="translate(949.985 566.601) rotate(1.661)" fill="#4f4f4f" style="mix-blend-mode: screen;isolation: isolate"/>
    </g>
  </g>
</svg>
