<svg xmlns="http://www.w3.org/2000/svg" width="151" height="151" viewBox="0 0 151 151">
  <g id="Grupo_9838" data-name="Grupo 9838" transform="translate(-390 -1046)">
    <g id="Elipse_554" data-name="Elipse 554" transform="translate(390 1046)" fill="#f0f0f0" stroke="#5f3bbf" stroke-width="2">
      <circle cx="75.5" cy="75.5" r="75.5" stroke="none"/>
      <circle cx="75.5" cy="75.5" r="74.5" fill="none"/>
    </g>
    <g id="Grupo_9504" data-name="Grupo 9504" transform="translate(0 575.813)">
      <g id="Grupo_9484" data-name="Grupo 9484" transform="translate(448.647 532.647)">
        <path id="Trazado_19321" data-name="Trazado 19321" d="M446.193,527.315a17.279,17.279,0,0,1,.565-4.315H439v18.7h14.92A17.241,17.241,0,0,1,446.193,527.315Z" transform="translate(-439 -523)" fill="#3bdcf0"/>
      </g>
      <g id="Grupo_9485" data-name="Grupo 9485" transform="translate(417 575.802)">
        <path id="Trazado_19322" data-name="Trazado 19322" d="M498.995,567.385h-74.8A7.2,7.2,0,0,1,417,560.193V553h33.086v1.438a1.439,1.439,0,0,0,1.438,1.438h20.139a1.439,1.439,0,0,0,1.438-1.438V553h33.086v7.193A7.2,7.2,0,0,1,498.995,567.385Zm-79.118-11.508v4.316a4.321,4.321,0,0,0,4.316,4.316h74.8a4.321,4.321,0,0,0,4.316-4.316v-4.316H475.733a4.324,4.324,0,0,1-4.07,2.877H451.524a4.324,4.324,0,0,1-4.07-2.877Z" transform="translate(-417 -553)" fill="#5f3bbf"/>
      </g>
      <g id="Grupo_9486" data-name="Grupo 9486" transform="translate(425.631 581.556)">
        <rect id="Rectángulo_2382" data-name="Rectángulo 2382" width="3" height="3" transform="translate(0.369 -0.369)"/>
      </g>
      <g id="Grupo_9487" data-name="Grupo 9487" transform="translate(431.385 581.556)">
        <rect id="Rectángulo_2383" data-name="Rectángulo 2383" width="3" height="3" transform="translate(-0.385 -0.369)"/>
      </g>
      <g id="Grupo_9488" data-name="Grupo 9488" transform="translate(437.139 581.556)">
        <rect id="Rectángulo_2384" data-name="Rectángulo 2384" width="3" height="3" transform="translate(-0.139 -0.369)"/>
      </g>
      <g id="Grupo_9489" data-name="Grupo 9489" transform="translate(482.643 521.139)">
        <path id="Trazado_19323" data-name="Trazado 19323" d="M483.3,571.1h-2.877V522.193a4.321,4.321,0,0,0-4.316-4.315H462.633V515h13.474a7.2,7.2,0,0,1,7.193,7.193Z" transform="translate(-462.633 -515)" fill="#5f3bbf"/>
      </g>
      <g id="Grupo_9490" data-name="Grupo 9490" transform="translate(419.877 521.139)">
        <path id="Trazado_19324" data-name="Trazado 19324" d="M421.877,571.1H419V522.193A7.2,7.2,0,0,1,426.193,515h5.754v2.877h-5.754a4.321,4.321,0,0,0-4.316,4.315Z" transform="translate(-419 -515)" fill="#5f3bbf"/>
      </g>
      <g id="Grupo_9491" data-name="Grupo 9491" transform="translate(488.048 526.893)">
        <path id="Trazado_19325" data-name="Trazado 19325" d="M475.9,569.348h-2.877V521.877H466.39V519h6.632a2.881,2.881,0,0,1,2.877,2.877Z" transform="translate(-466.39 -519)" fill="#5f3bbf"/>
      </g>
      <g id="Grupo_9492" data-name="Grupo 9492" transform="translate(425.631 526.893)">
        <path id="Trazado_19326" data-name="Trazado 19326" d="M425.877,569.348H423V521.877A2.88,2.88,0,0,1,425.877,519h7.193v2.877h-7.193Z" transform="translate(-423 -519)" fill="#5f3bbf"/>
      </g>
      <g id="Grupo_9493" data-name="Grupo 9493" transform="translate(463.066 507.88)">
        <rect id="Rectángulo_2385" data-name="Rectángulo 2385" width="2.878" height="12.819" transform="translate(0 0.624) rotate(-12.532)" fill="#5f3bbf"/>
      </g>
      <g id="Grupo_9494" data-name="Grupo 9494" transform="translate(473.177 507.738)">
        <path id="Trazado_19327" data-name="Trazado 19327" d="M460.155,518.933c-.02-.081-.043-.161-.07-.239l-4.032-12.1,2.727-.909,4.032,12.095q.067.2.125.414Z" transform="translate(-456.052 -505.684)" fill="#5f3bbf"/>
      </g>
      <g id="Grupo_9495" data-name="Grupo 9495" transform="translate(431.385 507.738)">
        <path id="Trazado_19328" data-name="Trazado 19328" d="M433.972,527.716A6.98,6.98,0,0,1,427,520.744v-.761a6.949,6.949,0,0,1,.358-2.205l4.032-12.094,2.727.909-4.032,12.1a4.106,4.106,0,0,0-.209,1.293v.761a4.095,4.095,0,0,0,8.11.8l.548-2.745,2.883-12.977,2.811.624-3.421,15.661A6.991,6.991,0,0,1,433.972,527.716Z" transform="translate(-427 -505.684)" fill="#5f3bbf"/>
      </g>
      <g id="Grupo_9496" data-name="Grupo 9496" transform="translate(442.893 513.807)">
        <path id="Trazado_19329" data-name="Trazado 19329" d="M441.972,525.866A6.98,6.98,0,0,1,435,518.894v-.846a6.95,6.95,0,0,1,.294-2l2.756.826a4.084,4.084,0,0,0-.173,1.178v.846a4.095,4.095,0,0,0,8.11.8l1.959-9.795,1.959,9.795a4.082,4.082,0,0,0,1.738,2.6l-1.6,2.388a6.955,6.955,0,0,1-2.1-2.2A7,7,0,0,1,441.972,525.866Z" transform="translate(-435 -509.903)" fill="#5f3bbf"/>
      </g>
      <g id="Grupo_9497" data-name="Grupo 9497" transform="translate(454.401 508.193)">
        <rect id="Rectángulo_2386" data-name="Rectángulo 2386" width="3" height="14" transform="translate(-0.401 -0.005)" fill="#5f3bbf"/>
      </g>
      <g id="Grupo_9498" data-name="Grupo 9498" transform="translate(434.262 501)">
        <path id="Trazado_19330" data-name="Trazado 19330" d="M469.278,509.631h-37.4A2.88,2.88,0,0,1,429,506.754v-2.877A2.88,2.88,0,0,1,431.877,501h37.4a2.881,2.881,0,0,1,2.877,2.877v2.877A2.881,2.881,0,0,1,469.278,509.631Zm-37.4-5.754h0l0,2.877h37.4v-2.877Z" transform="translate(-429 -501)" fill="#5f3bbf"/>
      </g>
      <g id="Grupo_9499" data-name="Grupo 9499" transform="translate(434.262 527.653)">
        <path id="Trazado_19331" data-name="Trazado 19331" d="M458.3,544.661H429V519.528h2.877v22.256H458.3Z" transform="translate(-429 -519.528)" fill="#5f3bbf"/>
      </g>
      <g id="Grupo_9500" data-name="Grupo 9500" transform="translate(454.401 518.262)">
        <path id="Trazado_19332" data-name="Trazado 19332" d="M461.7,550.4a18.7,18.7,0,1,1,18.7-18.7A18.722,18.722,0,0,1,461.7,550.4Zm0-34.524A15.824,15.824,0,1,0,477.524,531.7,15.842,15.842,0,0,0,461.7,515.877Z" transform="translate(-443 -513)" fill="#5f3bbf"/>
      </g>
      <g id="Grupo_9501" data-name="Grupo 9501" transform="translate(460.155 524.016)">
        <path id="Trazado_19333" data-name="Trazado 19333" d="M459.947,542.893a12.947,12.947,0,1,1,12.947-12.947A12.961,12.961,0,0,1,459.947,542.893Z" transform="translate(-447 -517)" fill="#3bdcf0"/>
      </g>
      <g id="Grupo_9502" data-name="Grupo 9502" transform="translate(467.348 553.68)">
        <path id="Trazado_19334" data-name="Trazado 19334" d="M457.754,556.867A5.76,5.76,0,0,1,452,551.113V537.621h2.877v13.492a2.877,2.877,0,0,0,5.754,0V537.621h2.877v13.492A5.76,5.76,0,0,1,457.754,556.867Z" transform="translate(-452 -537.621)" fill="#5f3bbf"/>
      </g>
      <g id="Grupo_9503" data-name="Grupo 9503" transform="translate(464.471 558.54)">
        <rect id="Rectángulo_2387" data-name="Rectángulo 2387" width="18" height="3" transform="translate(-0.471 -0.353)" fill="#5f3bbf"/>
      </g>
    </g>
  </g>
</svg>
