<svg xmlns="http://www.w3.org/2000/svg" width="351.251" height="466.079" viewBox="0 0 351.251 466.079">
  <g id="Grupo_9836" data-name="Grupo 9836" transform="translate(-763.38 -1836.921)">
    <path id="Trazado_18824" data-name="Trazado 18824" d="M165.5,0c91.4,0,103.193,88.779,103.193,180.182S256.9,331,165.5,331-50.62,169.039-50.62,77.635,74.1,0,165.5,0Z" transform="translate(814 1972)" fill="#f4f4f4"/>
    <g id="Grupo_9304" data-name="Grupo 9304" transform="translate(652.206 1658.889)">
      <path id="Trazado_18773" data-name="Trazado 18773" d="M344.024,593.4a2.9,2.9,0,1,1-2.64-3.131A2.894,2.894,0,0,1,344.024,593.4Z" fill="#5f3bbf"/>
      <path id="Trazado_18774" data-name="Trazado 18774" d="M395.005,435.945a4.486,4.486,0,1,1,4.486-4.486A4.489,4.489,0,0,1,395.005,435.945Zm0-7.382a2.9,2.9,0,1,0,2.895,2.9A2.9,2.9,0,0,0,395.005,428.563Z" fill="#243640"/>
      <path id="Trazado_18775" data-name="Trazado 18775" d="M421.38,461.543a1.59,1.59,0,0,1-1.59-1.59V419.1a1.59,1.59,0,0,1,3.181,0v40.849A1.59,1.59,0,0,1,421.38,461.543Z" fill="#a793de"/>
      <g id="Grupo_9284" data-name="Grupo 9284">
        <path id="Trazado_18776" data-name="Trazado 18776" d="M452.669,398.39a1.194,1.194,0,0,1-.845-2.036l8.554-8.575a1.193,1.193,0,0,1,1.688,1.686l-8.552,8.574A1.19,1.19,0,0,1,452.669,398.39Z" fill="#243640"/>
        <path id="Trazado_18777" data-name="Trazado 18777" d="M461.232,398.378a1.187,1.187,0,0,1-.842-.349l-8.574-8.552a1.193,1.193,0,1,1,1.686-1.689l8.573,8.553a1.193,1.193,0,0,1-.843,2.037Z" fill="#243640"/>
      </g>
      <g id="Grupo_9285" data-name="Grupo 9285">
        <path id="Trazado_18778" data-name="Trazado 18778" d="M202.665,311.85a1.194,1.194,0,0,1-.844-2.036l8.552-8.574a1.193,1.193,0,0,1,1.689,1.684L203.51,311.5A1.189,1.189,0,0,1,202.665,311.85Z" fill="#243640"/>
        <path id="Trazado_18779" data-name="Trazado 18779" d="M211.23,311.838a1.189,1.189,0,0,1-.843-.348l-8.573-8.552a1.193,1.193,0,1,1,1.684-1.689l8.573,8.552a1.193,1.193,0,0,1-.841,2.037Z" fill="#243640"/>
      </g>
      <circle id="Elipse_498" data-name="Elipse 498" cx="76.625" cy="76.625" r="76.625" transform="matrix(0.982, -0.189, 0.189, 0.982, 185.644, 403.799)" fill="#f1f7f8" opacity="0.85"/>
      <path id="Trazado_18780" data-name="Trazado 18780" d="M161.038,463.443a6.246,6.246,0,1,1,6.244-6.244A6.25,6.25,0,0,1,161.038,463.443Zm0-10.9a4.656,4.656,0,1,0,4.653,4.657A4.661,4.661,0,0,0,161.038,452.542Z" fill="#243640"/>
      <path id="Trazado_18781" data-name="Trazado 18781" d="M219.129,606.008a1.59,1.59,0,0,1-1.59-1.59V580.506a1.59,1.59,0,0,1,3.181,0v23.912A1.59,1.59,0,0,1,219.129,606.008Z" fill="#243640"/>
      <path id="Trazado_18782" data-name="Trazado 18782" d="M234.074,372.872a1.59,1.59,0,0,1-1.59-1.591V347.37a1.59,1.59,0,1,1,3.181,0v23.911A1.591,1.591,0,0,1,234.074,372.872Z" fill="#a793de"/>
      <g id="Grupo_9286" data-name="Grupo 9286">
        <path id="Trazado_18783" data-name="Trazado 18783" d="M162.21,584.574a1.192,1.192,0,0,1-.845-2.035l8.552-8.574a1.193,1.193,0,0,1,1.69,1.685l-8.553,8.574A1.191,1.191,0,0,1,162.21,584.574Z" fill="#243640"/>
        <path id="Trazado_18784" data-name="Trazado 18784" d="M170.774,584.563a1.2,1.2,0,0,1-.843-.348l-8.574-8.553a1.193,1.193,0,1,1,1.684-1.689l8.575,8.552a1.193,1.193,0,0,1-.842,2.038Z" fill="#243640"/>
      </g>
      <g id="Grupo_9289" data-name="Grupo 9289">
        <g id="Grupo_9288" data-name="Grupo 9288">
          <path id="Trazado_18785" data-name="Trazado 18785" d="M285.882,341.986a1.59,1.59,0,0,1-1.59-1.59v-56.79a1.59,1.59,0,0,1,3.181,0V340.4A1.591,1.591,0,0,1,285.882,341.986Z" fill="#243640"/>
          <g id="Grupo_9287" data-name="Grupo 9287">
            <path id="Trazado_18786" data-name="Trazado 18786" d="M277.42,289.959l1.459,1.359,6.689-7.2,6.69,7.2,1.46-1.359-8.149-8.763Z" fill="#243640"/>
          </g>
        </g>
      </g>
      <path id="Trazado_18787" data-name="Trazado 18787" d="M363.3,370.8a1.591,1.591,0,0,1-1.4-2.351L385.325,325.4l7.37-42.6c.007-.048.992-6.038,1.239-10.021a10.718,10.718,0,0,0-.026-2.723,1.59,1.59,0,0,1,3.082-.784,12.213,12.213,0,0,1,.118,3.7c-.256,4.147-1.235,10.1-1.277,10.355L388.415,326.2a1.566,1.566,0,0,1-.17.488L364.7,369.974A1.592,1.592,0,0,1,363.3,370.8Z" fill="#243640"/>
      <path id="Trazado_18788" data-name="Trazado 18788" d="M287.859,579.648a4.961,4.961,0,0,1-3.926-1.664,1.59,1.59,0,0,1,2.535-1.92,2.586,2.586,0,0,0,2.086.32,2.408,2.408,0,0,0,1.733-2,14.8,14.8,0,0,1,.782-2.2,20.656,20.656,0,0,0,1.5-4.983l.1-.66.542-.389c12.293-8.8,47.81-30.608,53.206-33.914l5.743-68.23,9.365-94.715a1.59,1.59,0,1,1,3.165.313L355.331,464.3l-5.876,69.812-.688.42c-.4.244-39.5,24.149-53.171,33.83a24.321,24.321,0,0,1-1.586,5.034,12.839,12.839,0,0,0-.627,1.72,5.539,5.539,0,0,1-4.275,4.4A6.008,6.008,0,0,1,287.859,579.648Z" fill="#243640"/>
      <path id="Trazado_18789" data-name="Trazado 18789" d="M321.807,524.733l-2.116-2.375,4.661-4.152,1.2-26.192,3.178.146-1.26,27.53Z" fill="#243640"/>
      <path id="Trazado_18790" data-name="Trazado 18790" d="M263.046,601.076l-.55-.6c-4.7-5.164-14.681-19.045-15.1-19.633l-.635-.886,39.87-61.087L300.243,457.2a1.591,1.591,0,0,1,3.106.687L289.607,520.12l-38.994,59.746c2.207,3.048,9.611,13.195,13.682,17.845a4.216,4.216,0,0,0,3.431-2.156c.886-1.474.939-2.474,1.1-5.444.046-.875.1-1.9.186-3.115l.03-.424.237-.351c11.687-17.378,34.786-48.8,36.93-51.717L328.34,463.49a1.591,1.591,0,0,1,3.037.948L309.083,535.96l-.16.216c-.245.332-24.528,33.3-36.773,51.467-.067,1.012-.113,1.878-.152,2.635-.167,3.171-.251,4.762-1.546,6.917-1.8,2.991-4.244,3.51-6.6,3.786Z" fill="#243640"/>
      <path id="Trazado_18791" data-name="Trazado 18791" d="M338.614,361.985l-.442-3.15,5.234-.734.3-6.787.9-.4c1.522-.675,4.769-2.629,5.082-4.354a53.273,53.273,0,0,0-1.093-23.738l3.019-1a55.714,55.714,0,0,1,1.2,25.306c-.556,3.073-4.238,5.331-6.022,6.258l-.33,7.5Z" fill="#243640"/>
      <path id="Trazado_18792" data-name="Trazado 18792" d="M333,333.149a1.591,1.591,0,0,1-.026-3.181c1.506-.025,4.155-.11,4.854-.233,6.147-1.071,9.36-2.928,10.89-6.346-1.635-4.145-3.959-6.251-7.9-7.211-7.763-1.892-13.717,1.4-15.379,5.459a17.5,17.5,0,0,0-1.3,7.839,1.591,1.591,0,1,1-3.159.375,20.674,20.674,0,0,1,1.512-9.42c2.165-5.286,9.586-9.655,19.076-7.344,5.155,1.256,8.348,4.272,10.353,9.782l.2.556-.211.554c-1.862,4.9-5.912,7.56-13.539,8.89-1.146.2-4.656.268-5.348.279Z" fill="#243640"/>
      <path id="Trazado_18793" data-name="Trazado 18793" d="M324.822,465.324a1.591,1.591,0,0,1-.285-3.155l11.693-2.149a1.59,1.59,0,0,1,.574,3.128l-11.693,2.15A1.576,1.576,0,0,1,324.822,465.324Z" fill="#243640"/>
      <path id="Trazado_18794" data-name="Trazado 18794" d="M327.363,345.944a1.6,1.6,0,0,1-.265-.022c-4.21-.706-5.735-3-6.273-4.807a5.862,5.862,0,0,1,9.131-6.366,1.59,1.59,0,1,1-1.9,2.548,2.682,2.682,0,0,0-4.179,2.911c.263.879.938,2.1,3.752,2.577a1.59,1.59,0,0,1-.262,3.159Z" fill="#243640"/>
      <g id="Grupo_9292" data-name="Grupo 9292">
        <g id="Grupo_9291" data-name="Grupo 9291">
          <path id="Trazado_18795" data-name="Trazado 18795" d="M435.329,533.277a1.59,1.59,0,0,1-1.591-1.589V505.4l12.953-10.812V455.967a1.59,1.59,0,1,1,3.18,0v40.112l-12.952,10.814v24.795A1.59,1.59,0,0,1,435.329,533.277Z" fill="#a793de"/>
          <g id="Grupo_9290" data-name="Grupo 9290">
            <path id="Trazado_18796" data-name="Trazado 18796" d="M440.47,462.352l1.459,1.359,6.689-7.2,6.69,7.2,1.459-1.359-8.149-8.764Z" fill="#a793de"/>
          </g>
        </g>
      </g>
      <g id="Grupo_9295" data-name="Grupo 9295">
        <g id="Grupo_9294" data-name="Grupo 9294">
          <path id="Trazado_18797" data-name="Trazado 18797" d="M196.753,416.718a1.591,1.591,0,0,1-1.59-1.591v-31.4L184.2,374.937V349.371a1.59,1.59,0,0,1,3.181,0V373.41l10.959,8.787v32.93A1.591,1.591,0,0,1,196.753,416.718Z" fill="#a793de"/>
          <g id="Grupo_9293" data-name="Grupo 9293">
            <path id="Trazado_18798" data-name="Trazado 18798" d="M177.617,356.375l1.459,1.359,6.688-7.2,6.69,7.2,1.46-1.359-8.149-8.764Z" fill="#a793de"/>
          </g>
        </g>
      </g>
      <g id="Grupo_9298" data-name="Grupo 9298">
        <g id="Grupo_9297" data-name="Grupo 9297">
          <path id="Trazado_18799" data-name="Trazado 18799" d="M405.238,391.7a1.591,1.591,0,0,1-1-2.83l20.532-16.521V291.576a1.59,1.59,0,0,1,3.18,0v82.3l-21.718,17.477A1.584,1.584,0,0,1,405.238,391.7Z" fill="#243640"/>
          <g id="Grupo_9296" data-name="Grupo 9296">
            <path id="Trazado_18800" data-name="Trazado 18800" d="M418.215,298.383l1.459,1.36,6.688-7.2,6.69,7.2,1.46-1.36-8.149-8.763Z" fill="#243640"/>
          </g>
        </g>
      </g>
      <g id="Grupo_9301" data-name="Grupo 9301">
        <g id="Grupo_9300" data-name="Grupo 9300">
          <path id="Trazado_18801" data-name="Trazado 18801" d="M390.495,576.119a1.591,1.591,0,0,1-1.591-1.591v-106.6a1.59,1.59,0,1,1,3.181,0v106.6A1.591,1.591,0,0,1,390.495,576.119Z" fill="#a793de"/>
          <g id="Grupo_9299" data-name="Grupo 9299">
            <path id="Trazado_18802" data-name="Trazado 18802" d="M382,474.422l1.46,1.359,6.688-7.2,6.69,7.2,1.459-1.359-8.149-8.763Z" fill="#a793de"/>
          </g>
        </g>
      </g>
      <path id="Trazado_18803" data-name="Trazado 18803" d="M329.005,444.3c-.032,0-.064,0-.1,0L304.6,442.84a1.591,1.591,0,0,1,.189-3.176l24.312,1.454a1.591,1.591,0,0,1-.094,3.179Z" fill="#243640"/>
      <path id="Trazado_18804" data-name="Trazado 18804" d="M359.569,337.483a1.59,1.59,0,0,1-1.389-2.363l9.969-17.943,9.231-33.053-1.4-5.782a1.591,1.591,0,0,1,3.092-.748l1.495,6.185a1.591,1.591,0,0,1-.013.8l-9.395,33.633a1.636,1.636,0,0,1-.14.344l-10.06,18.107A1.591,1.591,0,0,1,359.569,337.483Z" fill="#243640"/>
      <path id="Trazado_18805" data-name="Trazado 18805" d="M351.141,363.382a1.581,1.581,0,0,1-.746-.187l-5.69-3.031a1.59,1.59,0,0,1,1.5-2.807l5.691,3.03a1.591,1.591,0,0,1-.75,2.995Z" fill="#243640"/>
      <path id="Trazado_18814" data-name="Trazado 18814" d="M265.532,455.184c-.279-.006-6.841-.227-8.522-5.384a1.606,1.606,0,0,1-.063-.712l1.67-11.968a1.591,1.591,0,0,1,.077-.315l11.031-30.889a1.577,1.577,0,0,1,.22-.413l25.824-34.814a1.571,1.571,0,0,1,.345-.341c1.314-.951,12.952-9.31,16.862-10.115a88.41,88.41,0,0,1,10.18-1.071l1.558-14.973,3.164.329-1.7,16.323a1.591,1.591,0,0,1-1.508,1.425,101.64,101.64,0,0,0-11.054,1.083c-2.409.5-10.657,5.986-15.44,9.433l-25.536,34.425-10.9,30.514-1.591,11.407c1.182,2.712,5.416,2.875,5.461,2.876Z" fill="#243640"/>
      <path id="Trazado_18815" data-name="Trazado 18815" d="M275.55,445.1l-2.971-1.137,13.077-34.2a1.6,1.6,0,0,1,.332-.527l22.409-23.6a1.591,1.591,0,0,1,2.735,1.267l-4.858,44.485-3.163-.346,4.347-39.8L288.514,411.2Z" fill="#243640"/>
      <path id="Trazado_18816" data-name="Trazado 18816" d="M277.166,512.562a8.513,8.513,0,0,1-1.928-.222l-52.917-12.319a8.514,8.514,0,0,1-6.363-10.222l6.71-28.836a8.526,8.526,0,0,1,10.224-6.363l52.918,12.316a8.46,8.46,0,0,1,5.3,3.791,1.591,1.591,0,0,1-2.7,1.682,5.3,5.3,0,0,0-3.319-2.375L232.17,457.7a5.347,5.347,0,0,0-6.4,3.988l-6.709,28.835a5.334,5.334,0,0,0,3.986,6.4l52.917,12.319a5.346,5.346,0,0,0,6.4-3.988l4.689-20.145a1.59,1.59,0,1,1,3.1.721l-4.688,20.145A8.536,8.536,0,0,1,277.166,512.562Z" fill="#243640"/>
      <path id="Trazado_18817" data-name="Trazado 18817" d="M274.2,484.145a1.576,1.576,0,0,1-.412-.055l-14.57-3.9-2.042,1.581-5.759-.908-1.675-3.625-16.458-4.092a1.59,1.59,0,1,1,.767-3.086l17.938,4.459,1.6,3.467,2.722.43,2.2-1.705,16.092,4.3a1.59,1.59,0,0,1-.409,3.127Z" fill="#243640"/>
      <path id="Trazado_18818" data-name="Trazado 18818" d="M249.653,459.949a1.588,1.588,0,0,1-1.588-1.526c-.1-2.586,1.167-7.856,6.667-9.288a19.089,19.089,0,0,1,4.021-.547,1.59,1.59,0,1,1,.13,3.178,16.255,16.255,0,0,0-3.35.447c-4.379,1.141-4.295,5.895-4.289,6.1a1.593,1.593,0,0,1-1.537,1.638Z" fill="#243640"/>
      <path id="Trazado_18819" data-name="Trazado 18819" d="M267.428,440.053a1.2,1.2,0,0,1-.466-.1l-7.1-3.012a1.193,1.193,0,0,1,.932-2.2l7.1,3.013a1.194,1.194,0,0,1-.466,2.292Z" fill="#243640"/>
      <path id="Trazado_18820" data-name="Trazado 18820" d="M247,561.524c-14.345-9.954-29.287-15.831-45.681-17.965-26.165-3.408-36.546-20.19-37.486-33.526a1.592,1.592,0,0,1,.811-1.5c21.471-12,32.273-21.737,42.809-38.594l2.7,1.685c-10.71,17.137-21.647,27.113-43.055,39.182,1.3,11.965,11.032,26.526,34.635,29.6a106.094,106.094,0,0,1,47.083,18.507Z" fill="#243640"/>
      <path id="Trazado_18821" data-name="Trazado 18821" d="M234.454,443.7a1.59,1.59,0,0,1-1.343-2.439c.91-1.442,1.882-3,2.917-4.66,13.265-21.274,35.466-56.879,67.538-71.972a1.59,1.59,0,0,1,1.354,2.878c-31.223,14.693-53.114,49.8-66.193,70.777-1.037,1.664-2.014,3.229-2.927,4.675A1.587,1.587,0,0,1,234.454,443.7Z" fill="#243640"/>
      <path id="Trazado_18822" data-name="Trazado 18822" d="M337.447,394.18h-2.66a8.05,8.05,0,0,1-5.925-2.342,8.412,8.412,0,0,1-2.248-6.172c.122-4.85,3.736-8.119,8.993-8.138,4.559-.016,9.709,0,9.709,0a1.59,1.59,0,0,1-.005,3.18h-.005s-5.14-.014-9.687,0c-3.515.012-5.747,1.942-5.825,5.037a5.262,5.262,0,0,0,1.346,3.871A4.945,4.945,0,0,0,334.787,391h2.66a1.59,1.59,0,1,1,0,3.18Z" fill="#5f3bbf"/>
      <path id="Trazado_18823" data-name="Trazado 18823" d="M331.034,408.713c-2.727,0-4.914,0-4.914,0l.005-3.18s7.163.012,11.712-.008c3.514-.012,5.746-2.138,5.825-5.546a6.049,6.049,0,0,0-1.5-4.436,4.74,4.74,0,0,0-3.49-1.359h-4.384a1.616,1.616,0,0,1-1.621-1.59,1.564,1.564,0,0,1,1.56-1.59h4.445a7.851,7.851,0,0,1,5.766,2.316,9.187,9.187,0,0,1,2.407,6.733c-.12,5.156-3.734,8.635-8.993,8.654C335.81,408.711,333.244,408.713,331.034,408.713Z" fill="#5f3bbf"/>
    </g>
    <g id="Grupo_9305" data-name="Grupo 9305" transform="translate(118.705 1696.471)">
      <path id="Trazado_18825" data-name="Trazado 18825" d="M932.955,198.621a17.315,17.315,0,1,1,17.317-17.315A17.334,17.334,0,0,1,932.955,198.621Z" transform="translate(-13.114 -8.735)" fill="#03abf2"/>
      <path id="Trazado_18826" data-name="Trazado 18826" d="M953.315,150.253a1.408,1.408,0,0,0-.387.06,1.287,1.287,0,0,0-1.214-.863H900.532c-.694,0-1.257.85-1.257,1.544v29.72a23.494,23.494,0,0,0,.839,6.2,25.382,25.382,0,0,0,1.005,2.559,29.3,29.3,0,0,0,20.169,17.359v8.945a15.952,15.952,0,0,0-5.061,2.584,15.77,15.77,0,0,0-4.677,6.661,1.24,1.24,0,0,0,.708,1.615,1.159,1.159,0,0,0,.416.078l27.586-.008a1.169,1.169,0,0,0,.353-.055,1.316,1.316,0,0,0,.934-1.569c-1.207-3.977-5.164-7.829-9.567-9.3v-8.61c12.579-2.362,22.643-13.781,22.643-26.46v-29.2A1.3,1.3,0,0,0,953.315,150.253Z" transform="translate(-7.042 -3.339)" fill="#5f3bbf"/>
      <path id="Trazado_18827" data-name="Trazado 18827" d="M933.24,196.48a18.24,18.24,0,1,1,18.24-18.24A18.26,18.26,0,0,1,933.24,196.48Zm0-33.964a15.724,15.724,0,1,0,15.724,15.724A15.742,15.742,0,0,0,933.24,162.516Z" transform="translate(-12.877 -7.254)" fill="#fff"/>
      <path id="Trazado_18828" data-name="Trazado 18828" d="M943.213,184.128l1.309,7.641-6.862-3.608-6.863,3.608,1.31-7.641-5.551-5.412,7.675-1.117,3.43-6.953,3.431,6.953,7.675,1.117Z" transform="translate(-17.165 -11.204)" fill="#fff"/>
      <path id="Trazado_18829" data-name="Trazado 18829" d="M954.139,142.966H897.533a1.258,1.258,0,1,1,0-2.516h56.606a1.258,1.258,0,0,1,0,2.516Z" transform="translate(-5.929)" fill="#5f3bbf"/>
      <path id="Trazado_18830" data-name="Trazado 18830" d="M891.987,190.349c-7.053,0-9.553-6.256-9.885-9.683l-1.8-15.489a1.118,1.118,0,0,1,.279-.877,1.079,1.079,0,0,1,.842-.372l8.583.058a1.121,1.121,0,0,1-.007,2.241h-.009l-7.315-.05,1.656,14.252c.036.35.909,8.127,8.3,7.659a1.12,1.12,0,0,1,.14,2.237Q892.368,190.349,891.987,190.349Z" transform="translate(0 -8.711)" fill="#5f3bbf"/>
      <path id="Trazado_18831" data-name="Trazado 18831" d="M986.254,190.1a11.174,11.174,0,0,1-1.347-.084,1.12,1.12,0,0,1,.27-2.225,6.482,6.482,0,0,0,4.958-1.21c2.744-2.155,3.266-6.288,3.271-6.329l1.85-14.24-7.078-.048a1.12,1.12,0,0,1,.008-2.24h.008l8.345.057a1.12,1.12,0,0,1,1.1,1.265l-2.013,15.484c-.023.2-.644,5.091-4.111,7.814A8.293,8.293,0,0,1,986.254,190.1Z" transform="translate(-38.45 -8.634)" fill="#5f3bbf"/>
    </g>
  </g>
</svg>
