<svg xmlns="http://www.w3.org/2000/svg" width="726.145" height="350.118" viewBox="0 0 726.145 350.118">
  <g id="Grupo_9859" data-name="Grupo 9859" transform="translate(-803.855 -1954.188)">
    <g id="Grupo_9331" data-name="Grupo 9331" transform="translate(0 842)">
      <path id="Trazado_18847" data-name="Trazado 18847" d="M271.862,381.179l3-1.351,4.219,7.7A12.922,12.922,0,0,1,271.862,381.179Z" transform="translate(1131.888 1015.586)" fill="#ffebca"/>
      <g id="Grupo_9329" data-name="Grupo 9329" transform="translate(-83.146 85.874)">
        <path id="Trazado_18832" data-name="Trazado 18832" d="M341.546,302.083l-4.708,9.292-11.2-6.4-3.984,6.779c-4.977-5.248-6.3-7.823-11.2-15.464-6.311-9.839-12.482-19.828-17.119-30.558-3.821-8.84-6.685-18.322-12.752-25.8-4.112-5.068-9.5-8.949-15.084-12.328-12.155-7.353-25.987-12.688-40.189-12.339a46.568,46.568,0,0,0-24.915,7.851L192.546,211.1a8.706,8.706,0,0,0-10.271-3.389l-3.282-5.029a82.571,82.571,0,1,0-6.181,4.034l3.282,5.029a8.705,8.705,0,0,0-1.033,10.766l11.723,17.963a62.13,62.13,0,0,0-2.337,7.905,40.915,40.915,0,0,0-2.116,12.9,18.382,18.382,0,0,0,.418,4.811,11.963,11.963,0,0,0,3.587,6.162h0c1.94,2.024,10.112,5.986,16.742-6.813l.937,1.435c-4.4,9.069-2.272,20.606,3.217,29.26a16.826,16.826,0,0,0,5.866,6.536,13.256,13.256,0,0,0,2.629,1.443c.3.122.617.224.933.317h0a10.576,10.576,0,0,0,2.454.411h0c4.376.4,6.795-.74,8.087-2.439l5.573,8.541a8.7,8.7,0,0,0,11.834,2.624,54.575,54.575,0,0,0,10.021,13.823c6.417,6.25,14.565,10.36,22.574,14.372l20.713,10.378-4.571,7.778,15.212,7.267-3.645,7.193,6.025,2.32,61.231-.508v-68.24ZM237.871,244.151q-2.957.895-5.838,2.021a41.81,41.81,0,0,1-3.552-3.893,18.686,18.686,0,0,1,4.411.181A17.759,17.759,0,0,1,237.871,244.151Z" transform="translate(1238.283 999.731)" fill="#313944" opacity="0.15"/>
        <path id="Trazado_18833" data-name="Trazado 18833" d="M380.512,370.718c-8.358-8.2-9.03-10.007-14.983-19.288-6.311-9.839-12.482-19.828-17.119-30.558-3.821-8.84-6.685-18.322-12.752-25.8-4.112-5.068-9.5-8.949-15.084-12.328-12.155-7.353-25.987-12.688-40.189-12.339s-28.738,7.157-35.831,19.466c-3.457,6-5,12.884-6.265,19.69-.716,3.857-1.354,7.852-.458,11.672s3.7,7.454,7.559,8.145c3.547.635,7.132-1.335,9.522-4.031s3.856-6.062,5.525-9.255c3.155-6.038,7.3-11.78,13.094-15.37s13.459-4.674,19.455-1.442a80.745,80.745,0,0,0-23.306,11.409,34.572,34.572,0,0,0-9.22,8.909c-6.124,9.356-4.135,22.235,1.854,31.679,2.115,3.335,4.833,6.5,8.5,7.979s8.414.8,10.728-2.4c3.246-4.49.359-10.628-.171-16.143a18.739,18.739,0,0,1,13.5-19.285,61.093,61.093,0,0,0-9.155,23.808c-.669,4.257-.866,8.722.594,12.776s4.869,7.624,9.132,8.251a4.055,4.055,0,0,0,3.608-.906,5.087,5.087,0,0,0,.971-3.065l1.371-15.1c-1.554,14.484,7.507,28.224,18.73,37.511s24.7,15.413,36.624,23.776l23.77-37.763" transform="translate(1185.894 939.53)" fill="#f0bd88"/>
        <path id="Trazado_18834" data-name="Trazado 18834" d="M318.642,307.292c-30.365-7.23-44.608-18.8-44.608-18.8-15.689,44.825-31.074,43.915-31.074,43.915,2,2.084,10.611,6.229,17.337-8.013,6.712-14.213,17.075-19.739,17.075-19.739,19.008-9.3,29.094,12.515,29.094,12.515-30.731-1.446-31.2,22.412-29.034,32.534S275.738,365,275.738,365c10.249.944,9.788-6.586,9.165-9.9-6.017-31.969,21.564-29.913,21.564-29.913-8.56,12.05-6.863,34.4-7.1,39.945s-4.688,5.5-4.688,5.5c6.427,3.552,8.3-2.24,8.675-8.245,6.255,30.09,54.935,51.11,54.935,51.11l11.689-14.868C319.124,381.518,318.642,307.292,318.642,307.292Z" transform="translate(1184.351 934.515)" fill="#cd996a"/>
        <path id="Trazado_18846" data-name="Trazado 18846" d="M239.546,316.174s-3.759,10.306-1.3,19.126c0,0,4.128-9.254,3.175-18.171Z" transform="translate(1185.888 926.847)" fill="#ffebca"/>
        <g id="Grupo_9326" data-name="Grupo 9326" transform="translate(1258.676 1026.313)">
          <rect id="Rectángulo_2311" data-name="Rectángulo 2311" width="7.381" height="25.94" transform="matrix(0.837, -0.547, 0.547, 0.837, 149.09, 176.379)" fill="#e2ba14"/>
          <circle id="Elipse_591" data-name="Elipse 591" cx="78.143" cy="78.143" r="78.143" transform="translate(0 110.511) rotate(-45)" fill="#fff" opacity="0.33"/>
          <path id="Trazado_18849" data-name="Trazado 18849" d="M179.675,197.773A82.572,82.572,0,1,1,203.7,83.5,82.667,82.667,0,0,1,179.675,197.773ZM94.262,66.891A73.715,73.715,0,1,0,196.28,88.336,73.8,73.8,0,0,0,94.262,66.891Z" transform="translate(-24.037 -18.112)" fill="#3c7b8e"/>
          <g id="Grupo_9325" data-name="Grupo 9325" transform="translate(36.352 36.352)">
            <g id="Grupo_9324" data-name="Grupo 9324">
              <path id="Trazado_18850" data-name="Trazado 18850" d="M178.3,193.959A74.18,74.18,0,1,1,199.884,91.3,74.264,74.264,0,0,1,178.3,193.959ZM101.025,75.544A67.22,67.22,0,1,0,194.056,95.1,67.3,67.3,0,0,0,101.025,75.544Z" transform="translate(-63.604 -57.679)" fill="#62abce"/>
            </g>
          </g>
          <path id="Trazado_18851" data-name="Trazado 18851" d="M299.5,363.589l-2.954,1.927a8.7,8.7,0,0,1-12.007-2.524l-57.713-88.435a8.7,8.7,0,0,1,2.525-12.007l2.953-1.927a8.7,8.7,0,0,1,12.007,2.524l57.713,88.435A8.7,8.7,0,0,1,299.5,363.589Z" transform="translate(-72.08 -77.157)" fill="#3c7b8e"/>
          <path id="Trazado_18852" data-name="Trazado 18852" d="M177.868,192.747a71.513,71.513,0,1,1,20.805-98.971A71.594,71.594,0,0,1,177.868,192.747ZM101.43,75.62A68.349,68.349,0,1,0,196.023,95.5,68.425,68.425,0,0,0,101.43,75.62Z" transform="translate(-28.273 -22.348)" fill="#284c54"/>
          <path id="Trazado_18853" data-name="Trazado 18853" d="M294,366.26h0a2.538,2.538,0,0,1-3.5-.736l-60.338-92.458a2.537,2.537,0,0,1,.736-3.5h0a2.537,2.537,0,0,1,3.5.736l60.339,92.458A2.538,2.538,0,0,1,294,366.26Z" transform="translate(-73.278 -79.909)" fill="#31b4d3"/>
          <circle id="Elipse_592" data-name="Elipse 592" cx="69.931" cy="69.931" r="69.931" transform="translate(40.58 40.58)" fill="#fff" opacity="0.38"/>
        </g>
        <g id="Grupo_9328" data-name="Grupo 9328" transform="translate(1435.282 1219.917)">
          <g id="Grupo_9327" data-name="Grupo 9327">
            <path id="Trazado_18855" data-name="Trazado 18855" d="M378.286,388.822c-12.085-14.95-26.358-30.108-38.443-45.058-4.31-5.333-8.655-10.7-13.879-15.142-11.976-10.182-28.241-15.241-37.977-27.583-4.41-5.592-7.614-12.758-14.1-15.689a14.527,14.527,0,0,0-18.072,6.064c-3.766,6.906-1.138,15.564,2.757,22.4a67.431,67.431,0,0,0,14.918,17.976c6.675,5.663,14.569,10.141,19.673,17.253,3.687,5.137,5.638,11.276,8.1,17.1,3.143,7.439,7.265,14.587,13.051,20.221,6.417,6.25,14.564,10.36,22.574,14.372l27.007,13.531a218.7,218.7,0,0,1,14.4-25.445" transform="translate(-253.985 -284.218)" fill="#fcd6a9"/>
            <path id="Trazado_18856" data-name="Trazado 18856" d="M423.262,394.494l-32.287,54.947,16.144,7.712,29.645-54.947Z" transform="translate(-291.934 -314.766)" fill="#fff"/>
            <path id="Trazado_18857" data-name="Trazado 18857" d="M443.605,390.494l-36.631,72.3,17.849,6.872H474.23v-73.3Z" transform="translate(-296.366 -313.658)" fill="#3e4756"/>
            <path id="Trazado_18858" data-name="Trazado 18858" d="M260.307,297.652l13.824-9.158s15.351,13.789,9.311,18.8C266.784,321.106,260.307,297.652,260.307,297.652Z" transform="translate(-255.736 -285.402)" fill="#ffebca"/>
          </g>
          <path id="Trazado_18859" data-name="Trazado 18859" d="M419.787,413.991l10.7,10.515,14.261-22.3-13.5-7.712Z" transform="translate(-299.915 -314.766)" fill="#dfe4ea"/>
          <path id="Trazado_18860" data-name="Trazado 18860" d="M451.253,390.494l-16.671,32.9,47.3,22.653V396.364l-30.625-5.87" transform="translate(-304.014 -313.658)" fill="#313944"/>
        </g>
      </g>
      <path id="Trazado_18861" data-name="Trazado 18861" d="M118.867,305.581s9.383,5.972,20.471,37.1h12.581s9.6-45.205,52.242-79.323c0,0,.427-5.331-4.265-3.2,0,0-20.471,13.007-54.589,60.773,0,0-10.021-26.655-15.14-23.883Z" transform="translate(1122.133 924.359)" fill="#56c330"/>
    </g>
    <g id="Grupo_9459" data-name="Grupo 9459" transform="translate(742.148 1868.965)">
      <g id="Grupo_9458" data-name="Grupo 9458" transform="translate(61.706 155.983)">
        <g id="Grupo_9438" data-name="Grupo 9438" transform="translate(20.654 78.378)">
          <path id="Trazado_19196" data-name="Trazado 19196" d="M115.85,242.936H85.4v7.62h60.9v-7.62Z" transform="translate(-74.794 -214.145)" fill="#cc5f00"/>
          <rect id="Rectángulo_2354" data-name="Rectángulo 2354" width="37.562" height="108.784" transform="translate(41.057 35.787)" fill="#f48300"/>
          <rect id="Rectángulo_2355" data-name="Rectángulo 2355" width="37.562" height="108.784" transform="translate(3.495 35.787)" fill="#f99c01"/>
          <rect id="Rectángulo_2356" data-name="Rectángulo 2356" width="30.452" height="58.778" transform="translate(10.604 60.79)" fill="#e52828"/>
          <rect id="Rectángulo_2357" data-name="Rectángulo 2357" width="30.452" height="58.778" transform="translate(41.057 60.79)" fill="#c90223"/>
          <path id="Trazado_19197" data-name="Trazado 19197" d="M144.718,219.576H110.106v29h34.612a6.445,6.445,0,0,0,6.445-6.445V226.022A6.446,6.446,0,0,0,144.718,219.576Z" transform="translate(-69.049 -219.576)" fill="#d1d3d4"/>
          <path id="Trazado_19198" data-name="Trazado 19198" d="M83.239,219.576a6.446,6.446,0,0,0-6.445,6.446v16.114a6.445,6.445,0,0,0,6.445,6.445h34.612v-29Z" transform="translate(-76.794 -219.576)" fill="#e6e7e8"/>
        </g>
        <g id="Grupo_9443" data-name="Grupo 9443" transform="translate(198.357 76.447)">
          <path id="Trazado_19199" data-name="Trazado 19199" d="M232.583,218.009a11.608,11.608,0,0,0-11.608,11.608V350.438a11.608,11.608,0,0,0,11.608,11.609h38.323V218.009Z" transform="translate(-220.975 -218.009)" fill="#e6e7e8"/>
          <path id="Trazado_19200" data-name="Trazado 19200" d="M299.811,218.009H261.487V362.047h38.324a11.609,11.609,0,0,0,11.608-11.609V229.617A11.608,11.608,0,0,0,299.811,218.009Z" transform="translate(-211.556 -218.009)" fill="#d1d3d4"/>
          <g id="Grupo_9441" data-name="Grupo 9441" transform="translate(12.032 18.097)">
            <g id="Grupo_9439" data-name="Grupo 9439">
              <circle id="Elipse_599" data-name="Elipse 599" cx="13.249" cy="13.249" r="13.249" fill="#fff"/>
              <circle id="Elipse_600" data-name="Elipse 600" cx="13.249" cy="13.249" r="13.249" transform="translate(0 40.672)" fill="#fff"/>
              <circle id="Elipse_601" data-name="Elipse 601" cx="13.249" cy="13.249" r="13.249" transform="translate(0 81.345)" fill="#fff"/>
            </g>
            <g id="Grupo_9440" data-name="Grupo 9440" transform="translate(49.3)">
              <circle id="Elipse_602" data-name="Elipse 602" cx="13.249" cy="13.249" r="13.249" fill="#fff"/>
              <circle id="Elipse_603" data-name="Elipse 603" cx="13.249" cy="13.249" r="13.249" transform="translate(0 40.672)" fill="#fff"/>
              <circle id="Elipse_604" data-name="Elipse 604" cx="13.249" cy="13.249" r="13.249" transform="translate(0 81.345)" fill="#fff"/>
            </g>
          </g>
          <g id="Grupo_9442" data-name="Grupo 9442" transform="translate(47.466 15.324)">
            <path id="Trazado_19201" data-name="Trazado 19201" d="M261.952,343.832a2.465,2.465,0,0,1-2.465-2.465V232.907a2.465,2.465,0,0,1,4.93,0v108.46A2.464,2.464,0,0,1,261.952,343.832Z" transform="translate(-259.487 -230.442)" fill="#bcbec0"/>
          </g>
        </g>
        <g id="Grupo_9445" data-name="Grupo 9445" transform="translate(90.072)">
          <g id="Grupo_9444" data-name="Grupo 9444">
            <path id="Trazado_19202" data-name="Trazado 19202" d="M172.764,195.584v2.677a6.431,6.431,0,0,1-6.431,6.431h-9.912a23.3,23.3,0,0,0-23.3,23.3V362.284a16.07,16.07,0,0,0,16.069,16.069H198.3V195.584Z" transform="translate(-133.117 -146.776)" fill="#44cdfc"/>
            <path id="Trazado_19203" data-name="Trazado 19203" d="M227.874,204.692h-9.912a6.432,6.432,0,0,1-6.432-6.431v-2.677H186V378.353h49.109a16.07,16.07,0,0,0,16.069-16.069V228A23.3,23.3,0,0,0,227.874,204.692Z" transform="translate(-120.822 -146.776)" fill="#249dd3"/>
            <path id="Trazado_19204" data-name="Trazado 19204" d="M190.816,172.8H165.285v28.084h51.061V172.8Z" transform="translate(-125.638 -152.074)" fill="#249dd3"/>
            <path id="Trazado_19205" data-name="Trazado 19205" d="M167.1,155.983a9.611,9.611,0,0,0-9.611,9.611v30.284h35.142V155.983Z" transform="translate(-127.451 -155.983)" fill="#505982"/>
            <path id="Trazado_19206" data-name="Trazado 19206" d="M221.142,165.594a9.612,9.612,0,0,0-9.612-9.611H186v39.895h35.142Z" transform="translate(-120.822 -155.983)" fill="#333f60"/>
            <rect id="Rectángulo_2358" data-name="Rectángulo 2358" width="47.532" height="94.179" transform="translate(17.646 96.99)" fill="#fff"/>
            <rect id="Rectángulo_2359" data-name="Rectángulo 2359" width="47.532" height="94.179" transform="translate(65.178 96.99)" fill="#e6e7e8"/>
          </g>
        </g>
        <g id="Grupo_9446" data-name="Grupo 9446" transform="translate(54.093 175.823)">
          <path id="Trazado_19207" data-name="Trazado 19207" d="M129.512,312.765a14.126,14.126,0,0,0-14.126-14.126v32.7h14.126Z" transform="translate(-101.26 -298.639)" fill="#e6e7e8"/>
          <path id="Trazado_19208" data-name="Trazado 19208" d="M115.386,325.171v32.7a14.125,14.125,0,0,0,14.126-14.126V325.171Z" transform="translate(-101.26 -292.47)" fill="#e52828"/>
          <path id="Trazado_19209" data-name="Trazado 19209" d="M118.051,298.639a14.127,14.127,0,0,0-14.126,14.126V331.34h14.126Z" transform="translate(-103.925 -298.639)" fill="#fff"/>
          <path id="Trazado_19210" data-name="Trazado 19210" d="M103.925,325.171v18.575a14.126,14.126,0,0,0,14.126,14.126v-32.7Z" transform="translate(-103.925 -292.47)" fill="#ff6d40"/>
        </g>
        <g id="Grupo_9447" data-name="Grupo 9447" transform="translate(77.849 182.644)">
          <path id="Trazado_19211" data-name="Trazado 19211" d="M148.787,318.3a14.127,14.127,0,0,0-14.126-14.126v32.7h14.126Z" transform="translate(-120.535 -304.173)" fill="#e6e7e8"/>
          <path id="Trazado_19212" data-name="Trazado 19212" d="M134.661,330.7v32.7a14.126,14.126,0,0,0,14.126-14.126V330.7Z" transform="translate(-120.535 -298.004)" fill="#e52828"/>
          <path id="Trazado_19213" data-name="Trazado 19213" d="M137.326,304.173A14.126,14.126,0,0,0,123.2,318.3v18.575h14.126Z" transform="translate(-123.2 -304.173)" fill="#fff"/>
          <path id="Trazado_19214" data-name="Trazado 19214" d="M123.2,330.7V349.28a14.125,14.125,0,0,0,14.126,14.126V330.7Z" transform="translate(-123.2 -298.004)" fill="#ff6d40"/>
        </g>
        <g id="Grupo_9449" data-name="Grupo 9449" transform="translate(245.471 208.824)">
          <path id="Trazado_19215" data-name="Trazado 19215" d="M273.328,351A14.125,14.125,0,0,1,259.2,336.876h32.7V351Z" transform="translate(-259.202 -322.75)" fill="#27aae1"/>
          <path id="Trazado_19216" data-name="Trazado 19216" d="M285.734,336.876h32.7A14.125,14.125,0,0,1,304.309,351H285.734Z" transform="translate(-253.033 -322.75)" fill="#e52828"/>
          <path id="Trazado_19217" data-name="Trazado 19217" d="M259.2,339.541a14.125,14.125,0,0,1,14.126-14.126H291.9v14.126Z" transform="translate(-259.202 -325.415)" fill="#7de2f9"/>
          <path id="Trazado_19218" data-name="Trazado 19218" d="M285.734,325.415h18.575a14.125,14.125,0,0,1,14.126,14.126h-32.7Z" transform="translate(-253.033 -325.415)" fill="#ff6d40"/>
          <g id="Grupo_9448" data-name="Grupo 9448" transform="translate(5.088 3.239)">
            <path id="Trazado_19219" data-name="Trazado 19219" d="M265.85,337.388a2.523,2.523,0,0,1-2.2-3.75,10.9,10.9,0,0,1,9.515-5.594h12.573a2.523,2.523,0,0,1,0,5.046H273.164a5.849,5.849,0,0,0-5.107,3A2.524,2.524,0,0,1,265.85,337.388Z" transform="translate(-263.33 -328.043)" fill="#cafaff"/>
          </g>
        </g>
        <g id="Grupo_9451" data-name="Grupo 9451" transform="translate(227.999 173.657)">
          <path id="Trazado_19220" data-name="Trazado 19220" d="M270.613,311.009a14.126,14.126,0,0,0-14.126-14.127v32.7h14.126Z" transform="translate(-242.361 -296.882)" fill="#27aae1"/>
          <path id="Trazado_19221" data-name="Trazado 19221" d="M256.487,323.415v32.7a14.126,14.126,0,0,0,14.126-14.127V323.415Z" transform="translate(-242.361 -290.713)" fill="#e52828"/>
          <path id="Trazado_19222" data-name="Trazado 19222" d="M259.152,296.882a14.127,14.127,0,0,0-14.126,14.127v18.575h14.126Z" transform="translate(-245.026 -296.882)" fill="#7de2f9"/>
          <path id="Trazado_19223" data-name="Trazado 19223" d="M245.026,323.415v18.574a14.127,14.127,0,0,0,14.126,14.127v-32.7Z" transform="translate(-245.026 -290.713)" fill="#ff6d40"/>
          <g id="Grupo_9450" data-name="Grupo 9450" transform="translate(3.24 5.089)">
            <path id="Trazado_19224" data-name="Trazado 19224" d="M250.177,325.939a2.523,2.523,0,0,1-2.522-2.523V310.844a10.9,10.9,0,0,1,5.594-9.514,2.523,2.523,0,1,1,2.455,4.407,5.852,5.852,0,0,0-3,5.106v12.573A2.524,2.524,0,0,1,250.177,325.939Z" transform="translate(-247.655 -301.011)" fill="#cafaff"/>
          </g>
        </g>
        <g id="Grupo_9452" data-name="Grupo 9452" transform="translate(0 216.187)">
          <path id="Trazado_19225" data-name="Trazado 19225" d="M105.143,356.976a14.125,14.125,0,0,0,14.126-14.126h-32.7v14.126Z" transform="translate(-53.867 -328.724)" fill="#e6e7e8"/>
          <path id="Trazado_19226" data-name="Trazado 19226" d="M92.737,342.85h-32.7a14.125,14.125,0,0,0,14.126,14.126H92.737Z" transform="translate(-60.036 -328.724)" fill="#e52828"/>
          <path id="Trazado_19227" data-name="Trazado 19227" d="M119.269,345.515a14.126,14.126,0,0,0-14.126-14.126H86.568v14.126Z" transform="translate(-53.867 -331.389)" fill="#fff"/>
          <path id="Trazado_19228" data-name="Trazado 19228" d="M92.737,331.389H74.162a14.126,14.126,0,0,0-14.126,14.126h32.7Z" transform="translate(-60.036 -331.389)" fill="#ff6d40"/>
        </g>
        <g id="Grupo_9453" data-name="Grupo 9453" transform="translate(197.448 201.392)">
          <path id="Trazado_19229" data-name="Trazado 19229" d="M267.65,338.568l-47.386.1a23.693,23.693,0,0,0,47.386-.1Z" transform="translate(-220.232 -314.925)" fill="#e6e7e8"/>
          <path id="Trazado_19230" data-name="Trazado 19230" d="M243.908,319.385a23.692,23.692,0,0,0-23.644,23.742l47.386-.1A23.692,23.692,0,0,0,243.908,319.385Z" transform="translate(-220.232 -319.385)" fill="#fff"/>
          <path id="Trazado_19231" data-name="Trazado 19231" d="M220.238,339.051h0a2.041,2.041,0,0,1,2.036-2.045l43.369-.09a2.042,2.042,0,0,1,2.045,2.036h0A2.041,2.041,0,0,1,265.652,341l-43.37.089A2.039,2.039,0,0,1,220.238,339.051Z" transform="translate(-220.238 -315.309)" fill="#d1d3d4"/>
        </g>
        <g id="Grupo_9454" data-name="Grupo 9454" transform="translate(119.929 208.13)">
          <path id="Trazado_19232" data-name="Trazado 19232" d="M176.526,324.878l.1,47.386a23.693,23.693,0,0,0-.1-47.386Z" transform="translate(-152.882 -324.846)" fill="#e6e7e8"/>
          <path id="Trazado_19233" data-name="Trazado 19233" d="M157.342,348.62a23.694,23.694,0,0,0,23.742,23.644l-.1-47.386A23.693,23.693,0,0,0,157.342,348.62Z" transform="translate(-157.342 -324.846)" fill="#fff"/>
          <path id="Trazado_19234" data-name="Trazado 19234" d="M177.009,372.3h0a2.04,2.04,0,0,1-2.045-2.036l-.09-43.369a2.04,2.04,0,0,1,2.036-2.045h0a2.041,2.041,0,0,1,2.045,2.036l.089,43.369A2.04,2.04,0,0,1,177.009,372.3Z" transform="translate(-153.266 -324.852)" fill="#d1d3d4"/>
        </g>
        <g id="Grupo_9455" data-name="Grupo 9455" transform="translate(160.573 226.72)">
          <path id="Trazado_19235" data-name="Trazado 19235" d="M226,354.411H190.319a17.841,17.841,0,0,0,35.682,0Z" transform="translate(-190.319 -336.569)" fill="#e9ca00"/>
          <path id="Trazado_19236" data-name="Trazado 19236" d="M208.159,339.935a17.841,17.841,0,0,0-17.84,17.842H226A17.841,17.841,0,0,0,208.159,339.935Z" transform="translate(-190.319 -339.935)" fill="#f9ed32"/>
          <path id="Trazado_19237" data-name="Trazado 19237" d="M193.884,354.909h0a2.637,2.637,0,0,1,2.638-2.638H218.14a2.638,2.638,0,0,1,2.639,2.638h0a2.638,2.638,0,0,1-2.639,2.638H196.522A2.637,2.637,0,0,1,193.884,354.909Z" transform="translate(-189.49 -337.067)" fill="#ddb800"/>
          <ellipse id="Elipse_605" data-name="Elipse 605" cx="7.813" cy="3.072" rx="7.813" ry="3.072" transform="translate(10.027 4.542)" fill="#ffb"/>
        </g>
        <g id="Grupo_9456" data-name="Grupo 9456" transform="translate(187.91 229.185)">
          <path id="Trazado_19238" data-name="Trazado 19238" d="M226.975,341.935v35.682a17.841,17.841,0,0,0,0-35.682Z" transform="translate(-209.133 -341.935)" fill="#e9ca00"/>
          <path id="Trazado_19239" data-name="Trazado 19239" d="M212.5,359.777a17.841,17.841,0,0,0,17.842,17.84V341.935A17.841,17.841,0,0,0,212.5,359.777Z" transform="translate(-212.499 -341.935)" fill="#f9ed32"/>
          <path id="Trazado_19240" data-name="Trazado 19240" d="M227.473,372.394h0a2.638,2.638,0,0,1-2.639-2.638V348.139a2.638,2.638,0,0,1,2.639-2.638h0a2.637,2.637,0,0,1,2.638,2.638v21.618A2.637,2.637,0,0,1,227.473,372.394Z" transform="translate(-209.631 -341.106)" fill="#ddb800"/>
          <path id="Trazado_19241" data-name="Trazado 19241" d="M222.328,357.885c0,4.315-1.375,7.813-3.073,7.813s-3.071-3.5-3.071-7.813,1.375-7.814,3.071-7.814S222.328,353.57,222.328,357.885Z" transform="translate(-211.642 -340.043)" fill="#ffb"/>
        </g>
        <g id="Grupo_9457" data-name="Grupo 9457" transform="translate(98.246 221.131)">
          <path id="Trazado_19242" data-name="Trazado 19242" d="M175.43,349.876H139.749a17.84,17.84,0,1,0,35.681,0Z" transform="translate(-139.749 -332.034)" fill="#e9ca00"/>
          <path id="Trazado_19243" data-name="Trazado 19243" d="M157.589,335.4a17.841,17.841,0,0,0-17.84,17.842H175.43A17.84,17.84,0,0,0,157.589,335.4Z" transform="translate(-139.749 -335.4)" fill="#f9ed32"/>
          <path id="Trazado_19244" data-name="Trazado 19244" d="M143.314,350.374h0a2.638,2.638,0,0,1,2.638-2.639H167.57a2.638,2.638,0,0,1,2.638,2.639h0a2.637,2.637,0,0,1-2.638,2.638H145.952A2.637,2.637,0,0,1,143.314,350.374Z" transform="translate(-138.92 -332.532)" fill="#ddb800"/>
          <path id="Trazado_19245" data-name="Trazado 19245" d="M155.7,345.228c-4.315,0-7.813-1.374-7.813-3.071s3.5-3.071,7.813-3.071,7.814,1.375,7.814,3.071S160.013,345.228,155.7,345.228Z" transform="translate(-137.857 -334.543)" fill="#ffb"/>
        </g>
      </g>
    </g>
  </g>
</svg>
