<svg xmlns="http://www.w3.org/2000/svg" width="151" height="151" viewBox="0 0 151 151">
  <g id="Grupo_9855" data-name="Grupo 9855" transform="translate(-390 -1811)">
    <g id="Elipse_588" data-name="Elipse 588" transform="translate(390 1811)" fill="#f0f0f0" stroke="#5f3bbf" stroke-width="2">
      <circle cx="75.5" cy="75.5" r="75.5" stroke="none"/>
      <circle cx="75.5" cy="75.5" r="74.5" fill="none"/>
    </g>
    <g id="Grupo_9619" data-name="Grupo 9619" transform="translate(100.82 1343.457)">
      <g id="Grupo_9607" data-name="Grupo 9607" transform="translate(327 501)">
        <path id="Trazado_19379" data-name="Trazado 19379" d="M395.18,585.543H327V515.476L340.029,501H395.18Zm-65.453-2.727h62.725V503.727h-51.21l-11.516,12.8Z" transform="translate(-327 -501)" fill="#5f3bbf"/>
      </g>
      <g id="Grupo_9608" data-name="Grupo 9608" transform="translate(328.364 502.364)">
        <path id="Trazado_19380" data-name="Trazado 19380" d="M341.636,517H328v-2.727h10.909V502h2.727Z" transform="translate(-328 -502)" fill="#5f3bbf"/>
      </g>
      <g id="Grupo_9609" data-name="Grupo 9609" transform="translate(346.09 560.006)">
        <path id="Trazado_19381" data-name="Trazado 19381" d="M371,564.355H341V544.273h2.727v17.355h24.545V544.273H371Z" transform="translate(-341 -544.273)" fill="#5f3bbf"/>
      </g>
      <g id="Grupo_9610" data-name="Grupo 9610" transform="translate(354.272 566.453)">
        <rect id="Rect치ngulo_2439" data-name="Rect치ngulo 2439" width="14" height="11" transform="translate(-0.092 0.09)" fill="#3bdcf0"/>
      </g>
      <g id="Grupo_9611" data-name="Grupo 9611" transform="translate(356.999 555.544)">
        <path id="Trazado_19382" data-name="Trazado 19382" d="M353.091,549.182a4.091,4.091,0,1,1,4.091-4.091A4.1,4.1,0,0,1,353.091,549.182Zm0-5.454a1.364,1.364,0,1,0,1.364,1.364A1.364,1.364,0,0,0,353.091,543.727Z" transform="translate(-349 -541)" fill="#5f3bbf"/>
      </g>
      <g id="Grupo_9612" data-name="Grupo 9612" transform="translate(342 511.909)">
        <path id="Trazado_19383" data-name="Trazado 19383" d="M362.546,528.645l-.964-.953c-.653-.648-2.733-2.329-4.492-2.329s-3.839,1.681-4.492,2.329l-.961.953-.964-.953c-.653-.648-2.733-2.329-4.492-2.329s-3.839,1.681-4.492,2.329l-.4.4H338v-1.364A17.747,17.747,0,0,1,355.727,509h2.727a17.747,17.747,0,0,1,17.727,17.727v1.364h-3.289l-.4-.4c-.653-.648-2.733-2.329-4.492-2.329s-3.839,1.681-4.492,2.329Zm-5.456-6.009a9.4,9.4,0,0,1,5.454,2.277A9.4,9.4,0,0,1,368,522.636a9.278,9.278,0,0,1,5.333,2.182,15.021,15.021,0,0,0-14.878-13.09h-2.727a15.021,15.021,0,0,0-14.878,13.09,9.278,9.278,0,0,1,5.333-2.182,9.4,9.4,0,0,1,5.454,2.277A9.4,9.4,0,0,1,357.09,522.636Z" transform="translate(-338 -509)" fill="#5f3bbf"/>
      </g>
      <g id="Grupo_9613" data-name="Grupo 9613" transform="translate(354.272 512.052)">
        <path id="Trazado_19384" data-name="Trazado 19384" d="M349.727,526.689H347c0-14.314,5.955-17.457,6.208-17.584l1.219,2.441-.61-1.22.634,1.208C354.4,511.558,349.727,514.281,349.727,526.689Z" transform="translate(-347 -509.105)" fill="#5f3bbf"/>
      </g>
      <g id="Grupo_9614" data-name="Grupo 9614" transform="translate(360.456 512.052)">
        <path id="Trazado_19385" data-name="Trazado 19385" d="M358.987,526.689H356.26c0-12.407-4.677-15.13-4.725-15.155l1.244-2.429C353.032,509.232,358.987,512.375,358.987,526.689Z" transform="translate(-351.535 -509.105)" fill="#5f3bbf"/>
      </g>
      <g id="Grupo_9615" data-name="Grupo 9615" transform="translate(357.04 506.454)">
        <path id="Trazado_19386" data-name="Trazado 19386" d="M354.485,512.148l-1.107-4.421h-.6l-1.107,4.421-2.645-.66L350.651,505h4.858l1.621,6.488Z" transform="translate(-349.03 -505)" fill="#5f3bbf"/>
      </g>
      <g id="Grupo_9616" data-name="Grupo 9616" transform="translate(359.726 526.908)">
        <rect id="Rect치ngulo_2440" data-name="Rect치ngulo 2440" width="2" height="15" transform="translate(0.453 -0.365)" fill="#5f3bbf"/>
      </g>
      <g id="Grupo_9618" data-name="Grupo 9618" transform="translate(340.636 540.233)">
        <g id="Grupo_9617" data-name="Grupo 9617">
          <path id="Trazado_19387" data-name="Trazado 19387" d="M373.457,551.9a4.437,4.437,0,0,1-2.617-.85l-13.386-9.737-13.385,9.736a4.451,4.451,0,0,1-7.069-3.6v-.779a4.455,4.455,0,0,1,1.864-3.62l18.59-13.279,18.59,13.279a4.455,4.455,0,0,1,1.864,3.62v.779A4.455,4.455,0,0,1,373.457,551.9Z" transform="translate(-337 -529.772)" fill="#3bdcf0"/>
        </g>
      </g>
    </g>
  </g>
</svg>
