<svg xmlns="http://www.w3.org/2000/svg" width="151" height="151" viewBox="0 0 151 151">
  <g id="Grupo_9839" data-name="Grupo 9839" transform="translate(-390 -1395)">
    <g id="Elipse_555" data-name="Elipse 555" transform="translate(390 1395)" fill="#f0f0f0" stroke="#5f3bbf" stroke-width="2">
      <circle cx="75.5" cy="75.5" r="75.5" stroke="none"/>
      <circle cx="75.5" cy="75.5" r="74.5" fill="none"/>
    </g>
    <g id="Grupo_9518" data-name="Grupo 9518" transform="translate(289 921.052)">
      <g id="Grupo_9505" data-name="Grupo 9505" transform="translate(196.932 546.827)">
        <path id="Trazado_19335" data-name="Trazado 19335" d="M200.4,531.1h.016c.016.158.016.316.016.474a29.969,29.969,0,0,1-15.924,26.493l-7.9-5.75A11.248,11.248,0,0,1,172,543.25a3.776,3.776,0,0,1,3.776-3.776,3.754,3.754,0,0,0,3.491-2.37l1.264-3.16a3.754,3.754,0,0,1,3.491-2.37h2.733a14.688,14.688,0,0,0,5.087-.9A11.035,11.035,0,0,1,200.4,531.1Z" transform="translate(-172 -530.008)" fill="#3bdcf0"/>
      </g>
      <g id="Grupo_9506" data-name="Grupo 9506" transform="translate(166.631 549.073)">
        <path id="Trazado_19336" data-name="Trazado 19336" d="M176.8,544.827v8.183a10.828,10.828,0,0,1-2.433,6.856v.032a30.032,30.032,0,0,1-21.549-20.49,25.363,25.363,0,0,0,9.653-7.978,5.64,5.64,0,0,1,.363.49l2.654,3.981a6.141,6.141,0,0,0,5.134,2.749A6.176,6.176,0,0,1,176.8,544.827Z" transform="translate(-152.82 -531.43)" fill="#3bdcf0"/>
      </g>
      <g id="Grupo_9507" data-name="Grupo 9507" transform="translate(178.716 520.59)">
        <path id="Trazado_19337" data-name="Trazado 19337" d="M194.483,531.078a3.809,3.809,0,0,1-3.807,3.807h-3.649a5.347,5.347,0,0,0-4.945,3.333,7.249,7.249,0,0,1-13.886-1.5,4.086,4.086,0,0,0-4.029-3.412H162.1a25.383,25.383,0,0,0-1.627-17.094,28.364,28.364,0,0,1,5.356-2.812,13.549,13.549,0,0,1,2.559,3.254,13.953,13.953,0,0,0,12.18,7.172,13.889,13.889,0,0,1,5.482,1.122l6.13,2.622A3.814,3.814,0,0,1,194.483,531.078Z" transform="translate(-160.47 -513.4)" fill="#3bdcf0"/>
      </g>
      <g id="Grupo_9508" data-name="Grupo 9508" transform="translate(154.226 589.488)">
        <circle id="Elipse_612" data-name="Elipse 612" cx="1.5" cy="1.5" r="1.5" transform="translate(-0.226 0.46)"/>
      </g>
      <g id="Grupo_9509" data-name="Grupo 9509" transform="translate(129 507.319)">
        <path id="Trazado_19338" data-name="Trazado 19338" d="M155.857,558.713a26.857,26.857,0,1,1,26.857-26.857A26.887,26.887,0,0,1,155.857,558.713Zm0-50.554a23.7,23.7,0,1,0,23.7,23.7A23.722,23.722,0,0,0,155.857,508.16Z" transform="translate(-129 -505)" fill="#5f3bbf"/>
      </g>
      <g id="Grupo_9510" data-name="Grupo 9510" transform="translate(135.319 513.638)">
        <path id="Trazado_19339" data-name="Trazado 19339" d="M153.537,550.075a20.538,20.538,0,1,1,20.537-20.538A20.561,20.561,0,0,1,153.537,550.075Z" transform="translate(-133 -509)" fill="#3bdcf0"/>
      </g>
      <g id="Grupo_9511" data-name="Grupo 9511" transform="translate(157.436 559.201)">
        <rect id="Rect치ngulo_2388" data-name="Rect치ngulo 2388" width="3.16" height="6.571" fill="#5f3bbf"/>
      </g>
      <g id="Grupo_9512" data-name="Grupo 9512" transform="translate(151.117 559.201)">
        <rect id="Rect치ngulo_2389" data-name="Rect치ngulo 2389" width="3.16" height="6.571" fill="#5f3bbf"/>
      </g>
      <g id="Grupo_9513" data-name="Grupo 9513" transform="translate(147.958 564.192)">
        <path id="Trazado_19340" data-name="Trazado 19340" d="M148.9,575.756a7.908,7.908,0,0,1-7.9-7.9V541h15.8v26.857A7.908,7.908,0,0,1,148.9,575.756Zm-4.739-31.6v23.7a4.739,4.739,0,1,0,9.479,0v-23.7Z" transform="translate(-141 -541)" fill="#5f3bbf"/>
      </g>
      <g id="Grupo_9514" data-name="Grupo 9514" transform="translate(154.226 589.488)">
        <circle id="Elipse_613" data-name="Elipse 613" cx="1.5" cy="1.5" r="1.5" transform="translate(-0.226 0.46)"/>
      </g>
      <g id="Grupo_9515" data-name="Grupo 9515" transform="translate(189.033 507.319)">
        <path id="Trazado_19341" data-name="Trazado 19341" d="M179.638,511.319h-3.16a3.16,3.16,0,0,0-6.319,0H167a6.319,6.319,0,0,1,12.638,0Z" transform="translate(-167 -505)" fill="#5f3bbf"/>
      </g>
      <g id="Grupo_9516" data-name="Grupo 9516" transform="translate(182.713 501)">
        <path id="Trazado_19342" data-name="Trazado 19342" d="M188.277,513.638h-3.16a9.479,9.479,0,0,0-18.958,0H163a12.638,12.638,0,0,1,25.277,0Z" transform="translate(-163 -501)" fill="#5f3bbf"/>
      </g>
      <g id="Grupo_9517" data-name="Grupo 9517" transform="translate(165.097 516.798)">
        <path id="Trazado_19343" data-name="Trazado 19343" d="M182.1,574.192a31.788,31.788,0,0,1-30.255-22.511l3.027-.907A28.433,28.433,0,1,0,182.1,514.16a28.3,28.3,0,0,0-15.768,4.777l-1.757-2.629A31.6,31.6,0,1,1,182.1,574.192Z" transform="translate(-151.849 -511)" fill="#5f3bbf"/>
      </g>
    </g>
  </g>
</svg>
