<svg xmlns="http://www.w3.org/2000/svg" width="151" height="151" viewBox="0 0 151 151">
  <g id="Grupo_9854" data-name="Grupo 9854" transform="translate(-390 -1443)">
    <g id="Elipse_587" data-name="Elipse 587" transform="translate(390 1443)" fill="#f0f0f0" stroke="#5f3bbf" stroke-width="2">
      <circle cx="75.5" cy="75.5" r="75.5" stroke="none"/>
      <circle cx="75.5" cy="75.5" r="74.5" fill="none"/>
    </g>
    <g id="Grupo_9548" data-name="Grupo 9548" transform="translate(296 1365.766)">
      <g id="Grupo_9534" data-name="Grupo 9534" transform="translate(129 117)">
        <path id="Trazado_19355" data-name="Trazado 19355" d="M208.219,188.552H181.257V186h24.407V119.555H131.555V186h24.407v2.555H129V117h79.219Z" transform="translate(-129 -117)" fill="#5f3bbf"/>
      </g>
      <g id="Grupo_9535" data-name="Grupo 9535" transform="translate(134.111 122.111)">
        <rect id="Rectángulo_2393" data-name="Rectángulo 2393" width="3" height="2" transform="translate(-0.111 0.123)" fill="#5f3bbf"/>
      </g>
      <g id="Grupo_9536" data-name="Grupo 9536" transform="translate(139.222 122.111)">
        <rect id="Rectángulo_2394" data-name="Rectángulo 2394" width="3" height="2" transform="translate(-0.222 0.123)" fill="#5f3bbf"/>
      </g>
      <g id="Grupo_9537" data-name="Grupo 9537" transform="translate(144.333 139.68)">
        <path id="Trazado_19356" data-name="Trazado 19356" d="M165.277,191.358l-.4-.135A34.866,34.866,0,0,1,141,158.1V142.736h1.278a37.292,37.292,0,0,0,22.232-7.411l.767-.575.767.575a37.292,37.292,0,0,0,22.232,7.411h1.278V158.1a34.866,34.866,0,0,1-23.873,33.121Z" transform="translate(-141 -134.75)" fill="#3bdcf0"/>
      </g>
      <g id="Grupo_9538" data-name="Grupo 9538" transform="translate(144.333 122.111)">
        <rect id="Rectángulo_2395" data-name="Rectángulo 2395" width="3" height="2" transform="translate(-0.333 0.123)" fill="#5f3bbf"/>
      </g>
      <g id="Grupo_9539" data-name="Grupo 9539" transform="translate(130.278 127.222)">
        <rect id="Rectángulo_2396" data-name="Rectángulo 2396" width="77" height="3" transform="translate(-0.278 0.012)" fill="#5f3bbf"/>
      </g>
      <g id="Grupo_9540" data-name="Grupo 9540" transform="translate(149.444 145.958)">
        <path id="Trazado_19357" data-name="Trazado 19357" d="M164.166,184.581l-.475-.19A29.651,29.651,0,0,1,145,156.737V146.32l1.126-.135a42.742,42.742,0,0,0,17.366-6.1l.675-.42.675.42a42.742,42.742,0,0,0,17.366,6.1l1.126.135v10.417a29.651,29.651,0,0,1-18.691,27.654Zm-16.61-36.009v8.165a27.108,27.108,0,0,0,16.61,25.087,27.108,27.108,0,0,0,16.61-25.087v-8.165a45.378,45.378,0,0,1-16.61-5.907A45.378,45.378,0,0,1,147.555,148.572Z" transform="translate(-145 -139.664)" fill="#5f3bbf"/>
      </g>
      <g id="Grupo_9541" data-name="Grupo 9541" transform="translate(159.665 164.276)">
        <path id="Trazado_19358" data-name="Trazado 19358" d="M167.055,171.888H156.833A3.838,3.838,0,0,1,153,168.055V157.833A3.838,3.838,0,0,1,156.833,154h10.222a3.838,3.838,0,0,1,3.833,3.833v10.222A3.838,3.838,0,0,1,167.055,171.888Zm-10.222-15.333a1.278,1.278,0,0,0-1.278,1.278v10.222a1.278,1.278,0,0,0,1.278,1.278h10.222a1.278,1.278,0,0,0,1.278-1.278V157.833a1.278,1.278,0,0,0-1.278-1.278Z" transform="translate(-153 -154)" fill="#5f3bbf"/>
      </g>
      <g id="Grupo_9542" data-name="Grupo 9542" transform="translate(162.221 154.054)">
        <path id="Trazado_19359" data-name="Trazado 19359" d="M167.777,157.5h-2.555v-5.111a3.833,3.833,0,1,0-7.666,0V157.5H155v-5.111a6.389,6.389,0,1,1,12.777,0Z" transform="translate(-155 -146)" fill="#5f3bbf"/>
      </g>
      <g id="Grupo_9543" data-name="Grupo 9543" transform="translate(164.776 168.109)">
        <path id="Trazado_19360" data-name="Trazado 19360" d="M160.833,164.666a3.833,3.833,0,1,1,3.833-3.833A3.838,3.838,0,0,1,160.833,164.666Zm0-5.111a1.278,1.278,0,1,0,1.278,1.278A1.278,1.278,0,0,0,160.833,159.555Z" transform="translate(-157 -157)" fill="#5f3bbf"/>
      </g>
      <g id="Grupo_9544" data-name="Grupo 9544" transform="translate(167.332 174.497)">
        <rect id="Rectángulo_2397" data-name="Rectángulo 2397" width="3" height="4" transform="translate(-0.332 -0.264)" fill="#5f3bbf"/>
      </g>
      <g id="Grupo_9545" data-name="Grupo 9545" transform="translate(134.111 132.333)">
        <rect id="Rectángulo_2398" data-name="Rectángulo 2398" width="36" height="3" transform="translate(-0.111 -0.099)" fill="#5f3bbf"/>
      </g>
      <g id="Grupo_9546" data-name="Grupo 9546" transform="translate(134.111 137.444)">
        <rect id="Rectángulo_2399" data-name="Rectángulo 2399" width="26" height="3" transform="translate(-0.111 -0.21)" fill="#5f3bbf"/>
      </g>
      <g id="Grupo_9547" data-name="Grupo 9547" transform="translate(134.111 142.554)">
        <rect id="Rectángulo_2400" data-name="Rectángulo 2400" width="15" height="3" transform="translate(-0.111 -0.321)" fill="#5f3bbf"/>
      </g>
    </g>
  </g>
</svg>
