<svg xmlns="http://www.w3.org/2000/svg" width="151" height="151" viewBox="0 0 151 151">
  <g id="Grupo_9856" data-name="Grupo 9856" transform="translate(-390 -2181)">
    <g id="Elipse_589" data-name="Elipse 589" transform="translate(390 2181)" fill="#f0f0f0" stroke="#5f3bbf" stroke-width="2">
      <circle cx="75.5" cy="75.5" r="75.5" stroke="none"/>
      <circle cx="75.5" cy="75.5" r="74.5" fill="none"/>
    </g>
    <g id="Grupo_9606" data-name="Grupo 9606" transform="translate(105 1999)">
      <g id="Grupo_9566" data-name="Grupo 9566" transform="translate(338.823 213)">
        <path id="Trazado_19370" data-name="Trazado 19370" d="M383.355,271.952h-2.742V225.906l-10.165-10.164H336.742v56.21H334V213h37.584l11.771,11.771Z" transform="translate(-334 -213)" fill="#5f3bbf"/>
      </g>
      <g id="Grupo_9567" data-name="Grupo 9567" transform="translate(327.855 260.984)">
        <path id="Trazado_19371" data-name="Trazado 19371" d="M390.433,274.722a30.2,30.2,0,0,0-2.118-5.13l4.238-5.45-11.4-11.4-5.45,4.238a30.2,30.2,0,0,0-5.13-2.118L369.711,248H353.58l-.858,6.858a30.153,30.153,0,0,0-5.13,2.118l-5.45-4.238-11.4,11.4,4.238,5.45a30.2,30.2,0,0,0-2.118,5.13L326,275.58v9.436h17.823v-1.371a17.823,17.823,0,1,1,35.645,0v1.371H397.29V275.58Z" transform="translate(-326 -248)" fill="#3bdcf0"/>
      </g>
      <g id="Grupo_9568" data-name="Grupo 9568" transform="translate(344.306 277.435)">
        <path id="Trazado_19372" data-name="Trazado 19372" d="M376.387,280.565h-2.742v-1.371a16.452,16.452,0,1,0-32.9,0v1.371H338v-1.371a19.194,19.194,0,1,1,38.387,0Z" transform="translate(-338 -260)" fill="#5f3bbf"/>
      </g>
      <g id="Grupo_9569" data-name="Grupo 9569" transform="translate(347.125 271.952)">
        <path id="Trazado_19373" data-name="Trazado 19373" d="M381.108,282.048h-2.742v-1.371a21.909,21.909,0,0,0-36.49-16.379l-1.821-2.048a24.649,24.649,0,0,1,41.052,18.427Z" transform="translate(-340.056 -256)" fill="#5f3bbf"/>
      </g>
      <g id="Grupo_9570" data-name="Grupo 9570" transform="translate(338.823 280.254)">
        <path id="Trazado_19374" data-name="Trazado 19374" d="M336.742,279.8H334v-1.371a24.625,24.625,0,0,1,6.25-16.375l2.048,1.821a21.892,21.892,0,0,0-5.557,14.554Z" transform="translate(-334 -262.056)" fill="#5f3bbf"/>
      </g>
      <g id="Grupo_9571" data-name="Grupo 9571" transform="translate(362.129 289.774)">
        <rect id="Rectángulo_2408" data-name="Rectángulo 2408" width="3" height="3" transform="translate(-0.129 0.226)" fill="#5f3bbf"/>
      </g>
      <g id="Grupo_9572" data-name="Grupo 9572" transform="translate(367.613 289.774)">
        <rect id="Rectángulo_2409" data-name="Rectángulo 2409" width="2" height="3" transform="translate(0.387 0.226)" fill="#5f3bbf"/>
      </g>
      <g id="Grupo_9573" data-name="Grupo 9573" transform="translate(356.645 289.774)">
        <rect id="Rectángulo_2410" data-name="Rectángulo 2410" width="2" height="3" transform="translate(0.355 0.226)" fill="#5f3bbf"/>
      </g>
      <g id="Grupo_9574" data-name="Grupo 9574" transform="translate(356.645 284.29)">
        <rect id="Rectángulo_2411" data-name="Rectángulo 2411" width="13" height="3" transform="translate(0.355 -0.29)" fill="#5f3bbf"/>
      </g>
      <g id="Grupo_9575" data-name="Grupo 9575" transform="translate(362.129 237.677)">
        <path id="Trazado_19375" data-name="Trazado 19375" d="M357.855,241.968H351V240.6a9.609,9.609,0,0,1,9.6-9.6h6.855v1.371A9.609,9.609,0,0,1,357.855,241.968Zm-3.974-2.742h3.974a6.865,6.865,0,0,0,6.716-5.484H360.6A6.865,6.865,0,0,0,353.88,239.226Z" transform="translate(-351 -231)" fill="#5f3bbf"/>
      </g>
      <g id="Grupo_9576" data-name="Grupo 9576" transform="translate(348.419 247.274)">
        <path id="Trazado_19376" data-name="Trazado 19376" d="M357.452,248.968H350.6a9.609,9.609,0,0,1-9.6-9.6V238h6.855a9.609,9.609,0,0,1,9.6,9.6Zm-13.571-8.226a6.865,6.865,0,0,0,6.716,5.484h3.974a6.865,6.865,0,0,0-6.716-5.484Z" transform="translate(-341 -238)" fill="#5f3bbf"/>
      </g>
      <g id="Grupo_9577" data-name="Grupo 9577" transform="translate(362.129 247.274)">
        <rect id="Rectángulo_2412" data-name="Rectángulo 2412" width="3" height="14" transform="translate(-0.129 -0.274)" fill="#5f3bbf"/>
      </g>
      <g id="Grupo_9578" data-name="Grupo 9578" transform="translate(374.468 214.371)">
        <path id="Trazado_19377" data-name="Trazado 19377" d="M372.339,226.339H360V214h2.742v9.6h9.6Z" transform="translate(-360 -214)" fill="#5f3bbf"/>
      </g>
      <g id="Grupo_9579" data-name="Grupo 9579" transform="translate(344.306 218.484)">
        <path id="Trazado_19378" data-name="Trazado 19378" d="M348.968,227.968H338V217h10.968Zm-8.226-2.742h5.484v-5.484h-5.484Z" transform="translate(-338 -217)" fill="#5f3bbf"/>
      </g>
      <g id="Grupo_9580" data-name="Grupo 9580" transform="translate(358.016 219.855)">
        <rect id="Rectángulo_2413" data-name="Rectángulo 2413" width="14" height="3" transform="translate(-0.016 0.145)" fill="#5f3bbf"/>
      </g>
      <g id="Grupo_9581" data-name="Grupo 9581" transform="translate(358.016 225.339)">
        <rect id="Rectángulo_2414" data-name="Rectángulo 2414" width="14" height="3" transform="translate(-0.016 -0.339)" fill="#5f3bbf"/>
      </g>
      <g id="Grupo_9582" data-name="Grupo 9582" transform="translate(368.984 252.758)">
        <rect id="Rectángulo_2415" data-name="Rectángulo 2415" width="3" height="2" transform="translate(0.016 0.242)" fill="#5f3bbf"/>
      </g>
      <g id="Grupo_9583" data-name="Grupo 9583" transform="translate(374.468 252.758)">
        <rect id="Rectángulo_2416" data-name="Rectángulo 2416" width="3" height="2" transform="translate(-0.468 0.242)" fill="#5f3bbf"/>
      </g>
      <g id="Grupo_9584" data-name="Grupo 9584" transform="translate(379.952 252.758)">
        <rect id="Rectángulo_2417" data-name="Rectángulo 2417" width="3" height="2" transform="translate(0.048 0.242)" fill="#5f3bbf"/>
      </g>
      <g id="Grupo_9585" data-name="Grupo 9585" transform="translate(342.935 239.048)">
        <rect id="Rectángulo_2418" data-name="Rectángulo 2418" width="3" height="3" transform="translate(0.064 -0.048)" fill="#5f3bbf"/>
      </g>
      <g id="Grupo_9586" data-name="Grupo 9586" transform="translate(348.419 239.048)">
        <rect id="Rectángulo_2419" data-name="Rectángulo 2419" width="3" height="3" transform="translate(-0.419 -0.048)" fill="#5f3bbf"/>
      </g>
      <g id="Grupo_9587" data-name="Grupo 9587" transform="translate(353.903 239.048)">
        <rect id="Rectángulo_2420" data-name="Rectángulo 2420" width="3" height="3" transform="translate(0.097 -0.048)" fill="#5f3bbf"/>
      </g>
      <g id="Grupo_9588" data-name="Grupo 9588" transform="translate(321 213)">
        <rect id="Rectángulo_2421" data-name="Rectángulo 2421" width="3" height="3" fill="#5f3bbf"/>
      </g>
      <g id="Grupo_9589" data-name="Grupo 9589" transform="translate(321 218.484)">
        <rect id="Rectángulo_2422" data-name="Rectángulo 2422" width="3" height="17" transform="translate(0 -0.484)" fill="#5f3bbf"/>
      </g>
      <g id="Grupo_9590" data-name="Grupo 9590" transform="translate(321 237.677)">
        <rect id="Rectángulo_2423" data-name="Rectángulo 2423" width="3" height="16" transform="translate(0 0.323)" fill="#5f3bbf"/>
      </g>
      <g id="Grupo_9591" data-name="Grupo 9591" transform="translate(331.968 213)">
        <rect id="Rectángulo_2424" data-name="Rectángulo 2424" width="3" height="3" transform="translate(0.032)" fill="#5f3bbf"/>
      </g>
      <g id="Grupo_9592" data-name="Grupo 9592" transform="translate(331.968 218.484)">
        <rect id="Rectángulo_2425" data-name="Rectángulo 2425" width="3" height="17" transform="translate(0.032 -0.484)" fill="#5f3bbf"/>
      </g>
      <g id="Grupo_9593" data-name="Grupo 9593" transform="translate(331.968 237.677)">
        <rect id="Rectángulo_2426" data-name="Rectángulo 2426" width="3" height="16" transform="translate(0.032 0.323)" fill="#5f3bbf"/>
      </g>
      <g id="Grupo_9594" data-name="Grupo 9594" transform="translate(326.484 263.726)">
        <rect id="Rectángulo_2427" data-name="Rectángulo 2427" width="3" height="2" transform="translate(-0.484 0.274)" fill="#5f3bbf"/>
      </g>
      <g id="Grupo_9595" data-name="Grupo 9595" transform="translate(326.484 244.532)">
        <rect id="Rectángulo_2428" data-name="Rectángulo 2428" width="3" height="16" transform="translate(-0.484 0.468)" fill="#5f3bbf"/>
      </g>
      <g id="Grupo_9596" data-name="Grupo 9596" transform="translate(326.484 225.339)">
        <rect id="Rectángulo_2429" data-name="Rectángulo 2429" width="3" height="17" transform="translate(-0.484 -0.339)" fill="#5f3bbf"/>
      </g>
      <g id="Grupo_9597" data-name="Grupo 9597" transform="translate(392.29 213)">
        <rect id="Rectángulo_2430" data-name="Rectángulo 2430" width="3" height="3" transform="translate(-0.29)" fill="#5f3bbf"/>
      </g>
      <g id="Grupo_9598" data-name="Grupo 9598" transform="translate(392.29 218.484)">
        <rect id="Rectángulo_2431" data-name="Rectángulo 2431" width="3" height="17" transform="translate(-0.29 -0.484)" fill="#5f3bbf"/>
      </g>
      <g id="Grupo_9599" data-name="Grupo 9599" transform="translate(392.29 237.677)">
        <rect id="Rectángulo_2432" data-name="Rectángulo 2432" width="3" height="16" transform="translate(-0.29 0.323)" fill="#5f3bbf"/>
      </g>
      <g id="Grupo_9600" data-name="Grupo 9600" transform="translate(403.258 213)">
        <rect id="Rectángulo_2433" data-name="Rectángulo 2433" width="3" height="3" transform="translate(-0.258)" fill="#5f3bbf"/>
      </g>
      <g id="Grupo_9601" data-name="Grupo 9601" transform="translate(403.258 218.484)">
        <rect id="Rectángulo_2434" data-name="Rectángulo 2434" width="3" height="17" transform="translate(-0.258 -0.484)" fill="#5f3bbf"/>
      </g>
      <g id="Grupo_9602" data-name="Grupo 9602" transform="translate(403.258 237.677)">
        <rect id="Rectángulo_2435" data-name="Rectángulo 2435" width="3" height="16" transform="translate(-0.258 0.323)" fill="#5f3bbf"/>
      </g>
      <g id="Grupo_9603" data-name="Grupo 9603" transform="translate(397.774 263.726)">
        <rect id="Rectángulo_2436" data-name="Rectángulo 2436" width="3" height="2" transform="translate(0.226 0.274)" fill="#5f3bbf"/>
      </g>
      <g id="Grupo_9604" data-name="Grupo 9604" transform="translate(397.774 244.532)">
        <rect id="Rectángulo_2437" data-name="Rectángulo 2437" width="3" height="16" transform="translate(0.226 0.468)" fill="#5f3bbf"/>
      </g>
      <g id="Grupo_9605" data-name="Grupo 9605" transform="translate(397.774 225.339)">
        <rect id="Rectángulo_2438" data-name="Rectángulo 2438" width="3" height="17" transform="translate(0.226 -0.339)" fill="#5f3bbf"/>
      </g>
    </g>
  </g>
</svg>
