<svg xmlns="http://www.w3.org/2000/svg" width="151" height="151" viewBox="0 0 151 151">
  <g id="Grupo_9853" data-name="Grupo 9853" transform="translate(-390 -1087)">
    <g id="Elipse_554" data-name="Elipse 554" transform="translate(390 1087)" fill="#f0f0f0" stroke="#5f3bbf" stroke-width="2">
      <circle cx="75.5" cy="75.5" r="75.5" stroke="none"/>
      <circle cx="75.5" cy="75.5" r="74.5" fill="none"/>
    </g>
    <g id="Grupo_9637" data-name="Grupo 9637" transform="translate(287 609.584)">
      <g id="Grupo_9620" data-name="Grupo 9620" transform="translate(158.752 563.206)">
        <rect id="Rectángulo_2441" data-name="Rectángulo 2441" width="37.582" height="28.186" fill="#3bdcf0"/>
      </g>
      <g id="Grupo_9622" data-name="Grupo 9622" transform="translate(129 501.76)">
        <g id="Grupo_9621" data-name="Grupo 9621">
          <path id="Trazado_19388" data-name="Trazado 19388" d="M226.086,541.283h-14.6L177.543,516.6,143.6,541.283H129v-3.926l48.543-35.6,48.543,35.6Z" transform="translate(-129 -501.76)" fill="#3bdcf0"/>
        </g>
      </g>
      <g id="Grupo_9623" data-name="Grupo 9623" transform="translate(152.489 538.152)">
        <path id="Trazado_19389" data-name="Trazado 19389" d="M194.109,584.5H144V541.577L160.577,525h33.532Zm-46.977-3.132h43.845V528.132h-29.1l-14.741,14.741Z" transform="translate(-144 -525)" fill="#5f3bbf"/>
      </g>
      <g id="Grupo_9624" data-name="Grupo 9624" transform="translate(154.054 539.717)">
        <path id="Trazado_19390" data-name="Trazado 19390" d="M162.225,543.225H145v-3.132h14.093V526h3.132Z" transform="translate(-145 -526)" fill="#5f3bbf"/>
      </g>
      <g id="Grupo_9625" data-name="Grupo 9625" transform="translate(174.411 544.415)">
        <path id="Trazado_19391" data-name="Trazado 19391" d="M179.923,544.659H158V529h21.923Zm-18.791-3.132h15.659v-9.4H161.132Z" transform="translate(-158 -529)" fill="#5f3bbf"/>
      </g>
      <g id="Grupo_9626" data-name="Grupo 9626" transform="translate(158.752 569.47)">
        <rect id="Rectángulo_2442" data-name="Rectángulo 2442" width="37.582" height="3.132" fill="#5f3bbf"/>
      </g>
      <g id="Grupo_9627" data-name="Grupo 9627" transform="translate(158.752 575.733)">
        <rect id="Rectángulo_2443" data-name="Rectángulo 2443" width="37.582" height="3.132" fill="#5f3bbf"/>
      </g>
      <g id="Grupo_9628" data-name="Grupo 9628" transform="translate(180.675 581.997)">
        <rect id="Rectángulo_2444" data-name="Rectángulo 2444" width="15.659" height="3.132" fill="#5f3bbf"/>
      </g>
      <g id="Grupo_9629" data-name="Grupo 9629" transform="translate(158.752 581.997)">
        <rect id="Rectángulo_2445" data-name="Rectángulo 2445" width="18.791" height="3.132" fill="#5f3bbf"/>
      </g>
      <g id="Grupo_9630" data-name="Grupo 9630" transform="translate(158.752 588.26)">
        <rect id="Rectángulo_2446" data-name="Rectángulo 2446" width="31.318" height="3.132" fill="#5f3bbf"/>
      </g>
      <g id="Grupo_9631" data-name="Grupo 9631" transform="translate(193.202 588.26)">
        <rect id="Rectángulo_2447" data-name="Rectángulo 2447" width="3.132" height="3.132" fill="#5f3bbf"/>
      </g>
      <g id="Grupo_9632" data-name="Grupo 9632" transform="translate(158.752 563.206)">
        <rect id="Rectángulo_2448" data-name="Rectángulo 2448" width="3.132" height="3.132" fill="#5f3bbf"/>
      </g>
      <g id="Grupo_9633" data-name="Grupo 9633" transform="translate(165.016 563.206)">
        <rect id="Rectángulo_2449" data-name="Rectángulo 2449" width="31.318" height="3.132" fill="#5f3bbf"/>
      </g>
      <g id="Grupo_9634" data-name="Grupo 9634" transform="translate(138.395 541.283)">
        <path id="Trazado_19392" data-name="Trazado 19392" d="M150.659,570.845H135V527h3.132v40.713h12.527Z" transform="translate(-135 -527)" fill="#5f3bbf"/>
      </g>
      <g id="Grupo_9635" data-name="Grupo 9635" transform="translate(201.032 541.283)">
        <path id="Trazado_19393" data-name="Trazado 19393" d="M190.659,570.845H175v-3.132h12.527V527h3.132Z" transform="translate(-175 -527)" fill="#5f3bbf"/>
      </g>
      <g id="Grupo_9636" data-name="Grupo 9636" transform="translate(171.279 522.493)">
        <path id="Trazado_19394" data-name="Trazado 19394" d="M162.264,527.527a6.264,6.264,0,1,1,6.264-6.264A6.27,6.27,0,0,1,162.264,527.527Zm0-9.4a3.132,3.132,0,1,0,3.132,3.132A3.135,3.135,0,0,0,162.264,518.132Z" transform="translate(-156 -515)" fill="#5f3bbf"/>
      </g>
    </g>
  </g>
</svg>
