<svg xmlns="http://www.w3.org/2000/svg" width="395.104" height="312.615" viewBox="0 0 395.104 312.615">
  <g id="Grupo_9278" data-name="Grupo 9278" transform="translate(-1061 -28.641)">
    <path id="Trazado_18009" data-name="Trazado 18009" d="M1918.207,339.472c-112.292-15.742-107.284,46.565-182.313,52.756-128.941,10.638-166.02,195.179,2.691,234.618,110.882,25.921,192.127-3.843,223.488-28.484C2054.1,526.057,2035.429,355.9,1918.207,339.472Z" transform="translate(-564.25 -305.291)" fill="#3a1b8d" opacity="0.144" style="mix-blend-mode: multiply;isolation: isolate"/>
    <g id="Grupo_9277" data-name="Grupo 9277" transform="translate(-328.162 -407.071)">
      <path id="Trazado_18670" data-name="Trazado 18670" d="M1593.627,608.187l-14.667,4.345s-9.831,5.886-8.855,10.774c.281,1.406,3.661,4.074,3.661,4.074l.849,13.669s6.369,4.74,8.42,3.6,7.876-3.87,7.876-3.87l-1.9-8.691s5.494,1.129,6.518-4.345C1597.045,619.636,1594.667,617.621,1593.627,608.187Z" transform="translate(-101.417 -98.808)" fill="#ffd4cd"/>
      <path id="Trazado_18672" data-name="Trazado 18672" d="M1982.238,693.432l17.824-7.231s1.725,3.552,8,3c2.748-.24,7.5-3.865,8.912-3.158,13.686,6.843,19.81,13.6,19.81,13.6l-7.333,47.258-2.037,6.111.407,12.629-44,1.63.713-39.874-6.62,10.592-13.852,6.366-6.878-16.42L1973.072,722Z" transform="translate(-320.771 -142.872)" fill="#dde8fb"/>
      <path id="Trazado_18673" data-name="Trazado 18673" d="M2043.51,609.744l20.984,4.562-.406,29.324s-8.515,5.926-10.8,4.787a49.888,49.888,0,0,1-4.536-2.636l-.456-8.439a11.024,11.024,0,0,1-5.931-7.527C2041.229,624.342,2043.51,609.744,2043.51,609.744Z" transform="translate(-368.859 -99.69)" fill="#ffd4cd"/>
      <path id="Trazado_18674" data-name="Trazado 18674" d="M2042.646,595.186s5.907-6.194,9.58-6.5c4.105-.342,8.211.341,12.659,4.788,2.993,2.994,2.6,13.371,1.46,16.793-3.65-2.281-4.171-.274-6.213-1.019-.815-2.172-.085-5.054-2.366-5.965-3.508-1.4-11.7-.913-14.094-2.966S2042.646,595.186,2042.646,595.186Z" transform="translate(-368.976 -87.716)" fill="#7e8192"/>
      <path id="Trazado_18675" data-name="Trazado 18675" d="M2000.009,866.4l44.4-.029,7.062,124.935-19.727.61v-4.275l5.061-3.94-12.563-98.648-2.759-1.538-22.134,108.013-13.194.146s-2.719-6.218-1.09-6.218,1.642-3.644,1.642-3.644Z" transform="translate(-336.273 -245.096)" fill="#4f5e8a"/>
      <path id="Trazado_18676" data-name="Trazado 18676" d="M1588.414,865.613l-48.366-.1L1529.2,989.735l20.833,1.792,1.408-4.354-3.941-4.1,18.581-96.831,3.1-.256,19.567,102.852,17.44,1.3s-.54-6.147-2.229-6.147-1.961-3.759-1.961-3.759Z" transform="translate(-78.279 -244.606)" fill="#4f5e8a"/>
      <path id="Trazado_18677" data-name="Trazado 18677" d="M1583.8,688.464l-11-5.7a14.383,14.383,0,0,1-9.913,2.445c-2.748-.241-6.076-1.625-7.6-1.223-12.9,3.394-17.925,10.592-17.925,10.592l7.74,38.3,1.222,12.629V762.61l44.406.407V729.2l8.555,6.518,17.537,3.621,10.705-10.327-25.8-8.368Z" transform="translate(-82.902 -141.061)" fill="#dde8fb"/>
      <path id="Trazado_18678" data-name="Trazado 18678" d="M2052.317,697.039s5.3-1.651,6.727-2.059c1.121.509,4.052,2.481,4.052,2.481l-2.4,5.927,1.938,33.083-7.242,5.222-5.173-8.279,3.664-31.463Z" transform="translate(-373.49 -147.985)" fill="#419edd"/>
      <path id="Trazado_18679" data-name="Trazado 18679" d="M1590.63,594.375s-5.907-6.195-9.578-6.5c-4.106-.342-8.212.342-12.66,4.789-2.994,2.995-1.381,18.124-1.381,18.124l6.866-2.609s.175-7.268,3.938-6.926,9.012-.934,11.407-2.987S1590.63,594.375,1590.63,594.375Z" transform="translate(-99.456 -87.256)" fill="#ffa111"/>
      <path id="Trazado_18680" data-name="Trazado 18680" d="M1575.584,603.233c3.421-6.157,9.322-2.322,13.09-5.988,1.324-.611,1.97-4.822,2.343-5.194a7.934,7.934,0,0,1,3.361,3.972s2.4,2.326,0,4.379-8.31,4.26-12.074,3.917-5.226,5.16-5.226,5.16l-3.259-.543C1574.658,606.925,1574.215,606.312,1575.584,603.233Z" transform="translate(-103.559 -89.665)" fill="#f8690a"/>
      <path id="Trazado_18681" data-name="Trazado 18681" d="M2063.322,604.371c-3.421-6.157-7.341-2.206-11.109-5.873-1.324-.611-1.97-4.822-2.343-5.194a13.259,13.259,0,0,0-4.2,4.277s-2.8,2.293-.407,4.346,8.051,3.33,11.814,2.987,4.21,6.518,4.21,6.518l3.531-.271A13.808,13.808,0,0,0,2063.322,604.371Z" transform="translate(-370.129 -90.376)" fill="#525468" opacity="0.72"/>
      <path id="Trazado_18682" data-name="Trazado 18682" d="M1531.215,1140.034l-.866,4.994,18.7.354,1.768-3.2-6.386-2.777S1536.452,1139.679,1531.215,1140.034Z" transform="translate(-78.93 -399.796)" fill="#a4a1a5"/>
      <path id="Trazado_18683" data-name="Trazado 18683" d="M1664.685,1142.018l-.229,4.263,18.7.353,1.768-3.2-6.386-2.777S1669.922,1141.663,1664.685,1142.018Z" transform="translate(-154.915 -400.507)" fill="#a4a1a5"/>
      <path id="Trazado_18684" data-name="Trazado 18684" d="M1994.267,1140.766l.229,4.263-18.7.353-1.768-3.2,6.386-2.777S1989.03,1140.411,1994.267,1140.766Z" transform="translate(-330.318 -399.797)" fill="#a4a1a5"/>
      <path id="Trazado_18685" data-name="Trazado 18685" d="M2109.573,1140.766l.229,4.263-18.7.353-1.768-3.2,6.386-2.777S2104.335,1140.411,2109.573,1140.766Z" transform="translate(-395.65 -399.797)" fill="#a4a1a5"/>
      <path id="Trazado_18686" data-name="Trazado 18686" d="M2090.123,636.883a3.935,3.935,0,1,1-3.936-3.934A3.935,3.935,0,0,1,2090.123,636.883Z" transform="translate(-391.637 -112.838)" fill="#f9b6b2"/>
      <path id="Trazado_18687" data-name="Trazado 18687" d="M1577.823,638.763a3.935,3.935,0,1,1-3.936-3.934A3.935,3.935,0,0,1,1577.823,638.763Z" transform="translate(-101.369 -113.903)" fill="#f9b6b2"/>
      <path id="Trazado_18688" data-name="Trazado 18688" d="M1672.6,652.191l1.68-97.586,38.745-13.737,1.238-26.9,17.118-1.231-2.44-29.336,36.666-11,1.1,62.328,36.721,12.549-.183,32.958,10.03-1.511-1.222,90.437s-25.328,37-53.032,9.3c-10.135-10.135-23.26-54.441-45.962-32.518C1688.95,669.22,1681.888,661.615,1672.6,652.191Z" transform="translate(-159.531 -21.869)" fill="#70ccc7"/>
      <path id="Trazado_18689" data-name="Trazado 18689" d="M1655.251,815.921l-3.211,12.485,11,2.648,5.3-3.667,1.019-2.648.815-2.648s-5.74-2.177-6.722-2.444,2.93-5.53-1.018-5.3c-.733.043-3.266,1.623-4,1.676S1655.251,815.921,1655.251,815.921Z" transform="translate(-147.88 -215.615)" fill="#ffd4cd"/>
      <g id="Grupo_9233" data-name="Grupo 9233" transform="translate(1734.644 606.482)">
        <path id="Trazado_18690" data-name="Trazado 18690" d="M2185,848.755a1.163,1.163,0,0,1,0-2.326l12.307-.017h0a1.163,1.163,0,0,1,0,2.327l-12.306.017Z" transform="translate(-2183.84 -840.268)" fill="#17202e"/>
        <path id="Trazado_18691" data-name="Trazado 18691" d="M2199.2,846.867a1.163,1.163,0,0,1-1.164-1.162l-.014-12.306a1.163,1.163,0,0,1,1.162-1.165h0a1.162,1.162,0,0,1,1.162,1.161l.014,12.306a1.163,1.163,0,0,1-1.162,1.165Z" transform="translate(-2191.875 -832.235)" fill="#17202e"/>
      </g>
      <g id="Grupo_9235" data-name="Grupo 9235" transform="translate(1433.814 534.891)">
        <path id="Trazado_18692" data-name="Trazado 18692" d="M1501.908,731.055a1.62,1.62,0,0,1-1.63-1.551V670.571a1.632,1.632,0,0,1,3.259,0V729.5A1.62,1.62,0,0,1,1501.908,731.055Z" transform="translate(-1495.705 -668.167)" fill="#17202e"/>
        <g id="Grupo_9234" data-name="Grupo 9234">
          <path id="Trazado_18693" data-name="Trazado 18693" d="M1489.728,673.872l1.136,1.058,5.206-5.6,5.207,5.6,1.136-1.058-6.343-6.821Z" transform="translate(-1489.728 -667.052)" fill="#17202e"/>
        </g>
      </g>
      <g id="Grupo_9237" data-name="Grupo 9237" transform="translate(1533.882 451.732)">
        <path id="Trazado_18694" data-name="Trazado 18694" d="M1733.148,513.352a1.62,1.62,0,0,1-1.63-1.551V480.008a1.632,1.632,0,0,1,3.259,0V511.8A1.62,1.62,0,0,1,1733.148,513.352Z" transform="translate(-1726.794 -477.035)" fill="#17202e"/>
        <g id="Grupo_9236" data-name="Grupo 9236" transform="translate(0 0)">
          <path id="Trazado_18695" data-name="Trazado 18695" d="M1720.619,482l1.136,1.058,5.205-5.6,5.207,5.6L1733.3,482l-6.343-6.821Z" transform="translate(-1720.619 -475.176)" fill="#17202e"/>
        </g>
      </g>
      <g id="Grupo_9239" data-name="Grupo 9239" transform="translate(1624.282 477.932)">
        <path id="Trazado_18696" data-name="Trazado 18696" d="M1941.827,562.243a1.62,1.62,0,0,1-1.629-1.551V540.531a1.632,1.632,0,0,1,3.259,0v20.161A1.621,1.621,0,0,1,1941.827,562.243Z" transform="translate(-1935.432 -537.528)" fill="#17202e"/>
        <g id="Grupo_9238" data-name="Grupo 9238" transform="translate(0 0)">
          <path id="Trazado_18697" data-name="Trazado 18697" d="M1929.2,542.45l1.136,1.058,5.206-5.6,5.207,5.6,1.135-1.058-6.342-6.821Z" transform="translate(-1929.2 -535.629)" fill="#17202e"/>
        </g>
      </g>
      <g id="Grupo_9240" data-name="Grupo 9240" transform="translate(1495.358 466.814)">
        <path id="Trazado_18698" data-name="Trazado 18698" d="M1632.892,526.5a1.163,1.163,0,0,1,0-2.326l12.306-.016h0a1.163,1.163,0,0,1,0,2.326l-12.306.016Z" transform="translate(-1631.729 -518.01)" fill="#17202e"/>
        <path id="Trazado_18699" data-name="Trazado 18699" d="M1647.086,524.608a1.163,1.163,0,0,1-1.163-1.162l-.015-12.306a1.163,1.163,0,0,1,1.161-1.165h0a1.163,1.163,0,0,1,1.164,1.162l.015,12.306a1.163,1.163,0,0,1-1.161,1.164Z" transform="translate(-1639.763 -509.976)" fill="#17202e"/>
      </g>
      <path id="Trazado_18700" data-name="Trazado 18700" d="M1478.634,925a6.273,6.273,0,1,1,6.274-6.272A6.278,6.278,0,0,1,1478.634,925Zm0-10.656a4.383,4.383,0,1,0,4.384,4.384A4.386,4.386,0,0,0,1478.634,914.339Z" transform="translate(-46.076 -271.202)" fill="#17202e"/>
      <path id="Trazado_18701" data-name="Trazado 18701" d="M1780.148,452.171a1.62,1.62,0,0,1-1.63-1.551V439.764a1.632,1.632,0,0,1,3.259,0V450.62A1.621,1.621,0,0,1,1780.148,452.171Z" transform="translate(-219.542 -2.501)" fill="#17202e"/>
      <path id="Trazado_18702" data-name="Trazado 18702" d="M1945.181,973.007c-.857,0-1.223-.695-1.223-1.551V944.316c0-.856.366-1.551,1.223-1.551s1.221.695,1.221,1.551v27.141C1946.4,972.313,1946.037,973.007,1945.181,973.007Z" transform="translate(-313.28 -288.379)" fill="#17202e"/>
      <path id="Trazado_18703" data-name="Trazado 18703" d="M1740.068,1044.669a2.323,2.323,0,1,1-2.324-2.324A2.324,2.324,0,0,1,1740.068,1044.669Z" transform="translate(-195.123 -344.801)" fill="#17202e"/>
      <path id="Trazado_18704" data-name="Trazado 18704" d="M2192.3,772.411a1.888,1.888,0,1,1-1.888-1.888A1.889,1.889,0,0,1,2192.3,772.411Z" transform="translate(-451.852 -190.787)" fill="#17202e"/>
      <path id="Trazado_18705" data-name="Trazado 18705" d="M1642.925,756.424h-7.754a1.632,1.632,0,0,1,0-3.259h7.754a1.632,1.632,0,0,1,0,3.259Z" transform="translate(-137.443 -180.952)" fill="#17202e"/>
      <path id="Trazado_18706" data-name="Trazado 18706" d="M1623.482,724.464h-6.2a1.632,1.632,0,0,1,0-3.259h6.2a1.632,1.632,0,0,1,0,3.259Z" transform="translate(-127.305 -162.844)" fill="#17202e"/>
      <path id="Trazado_18707" data-name="Trazado 18707" d="M1595.651,756.842a1.632,1.632,0,0,1-.247-.02l-5.793-.938-43.12-8.991a1.551,1.551,0,0,1-1.174-1.091c-.079-.275-7.943-27.73-12.114-46.564-.934-4.218,2.845-8.97,5.815-10.641.935-.526,2.073-1.215,3.278-1.944a61.261,61.261,0,0,1,8.44-4.578,1.551,1.551,0,1,1,1.089,2.9,59.964,59.964,0,0,0-7.923,4.327c-1.227.743-2.385,1.444-3.362,1.994-2.119,1.193-4.862,4.77-4.308,7.268,3.726,16.822,10.421,40.588,11.811,45.48l42.134,8.787,5.335.863,2.922-1.022c.542-1.118,1.405-2.973,1.918-4.343a14.31,14.31,0,0,0-1.895-.62,1.551,1.551,0,1,1,.751-3.009c.707.176,3.09.83,4.1,1.834a1.552,1.552,0,0,1,.408,1.472,47.219,47.219,0,0,1-2.779,6.613,1.546,1.546,0,0,1-.875.77l-3.894,1.363A1.551,1.551,0,0,1,1595.651,756.842Z" transform="translate(-80.465 -140.616)" fill="#17202e"/>
      <path id="Trazado_18708" data-name="Trazado 18708" d="M1625.573,685.174a1.551,1.551,0,0,1-.517-.089l-9.637-3.407a1.551,1.551,0,0,1,1.033-2.925l9.637,3.406a1.551,1.551,0,0,1-.517,3.013Z" transform="translate(-126.544 -138.741)" fill="#17202e"/>
      <path id="Trazado_18709" data-name="Trazado 18709" d="M2049.256,735.883a1.577,1.577,0,0,1-.222-.016,1.551,1.551,0,0,1-1.316-1.754l4.246-29.824c-.321-.629-.93-1.81-1.389-2.6a1.551,1.551,0,1,1,2.679-1.564c.7,1.2,1.662,3.122,1.7,3.2l.217.432-4.383,30.786A1.553,1.553,0,0,1,2049.256,735.883Z" transform="translate(-372.061 -150.467)" fill="#17202e"/>
      <path id="Trazado_18710" data-name="Trazado 18710" d="M2074.717,736.382a1.447,1.447,0,0,1-1.551-1.42c0-.225-.062-22.537.137-30.573l.008-.33,2.212-4.2a1.554,1.554,0,0,1,2.746,1.454l-1.874,3.573c-.188,8.282-.128,29.844-.127,30.065a1.446,1.446,0,0,1-1.546,1.429Z" transform="translate(-386.483 -150.283)" fill="#17202e"/>
      <path id="Trazado_18711" data-name="Trazado 18711" d="M1605,980.474c-3.445,0-17.336.064-17.477.062l-1.292.084-.222-1.226c-.128-.734-12.747-72.872-21.164-105.523-1.609,12.364-8.256,44.775-13.635,70.986-2.05,9.988-3.991,19.457-5.345,26.32.29.149.563.289.832.422.644.322,1.253.626,1.892,1.023a4.788,4.788,0,0,1,1.918,5.063,3.381,3.381,0,0,1-2.926,2.775c-2.8.388-17.019,0-18.63-.042l-1.663-.046.164-1.656s6.011-60.868,10.682-108.1l1.109-23.967a1.551,1.551,0,1,1,3.1.144l-1.116,24.087c-4.218,42.649-9.53,96.43-10.523,106.484,5.093.125,14.55.291,16.518.019l.082-.01a1.111,1.111,0,0,0,.229-.766,1.571,1.571,0,0,0-.577-1.345c-.516-.32-1.037-.58-1.64-.88-.559-.28-1.192-.595-1.952-1.022l-.977-.55.216-1.1c1.361-6.945,3.406-16.909,5.57-27.46,5.56-27.1,12.48-60.821,13.745-71.959l.083-.727.614-.4a4.809,4.809,0,0,1,2.851-.439c.164.009.3.02.406.016l1.371-.2.285,1.348c7.833,29.826,19.553,95.759,21.314,105.751,3.429.03,12.718.112,15.862.117a1.593,1.593,0,0,0,.186-.854,2.068,2.068,0,0,0-.86-1.611,8.981,8.981,0,0,0-2.258-1.265c-.343-.156-.754-.345-1.262-.582l-.748-.348-.128-.816c-2.955-18.763-7.211-51.411-10.319-75.251-1.52-11.663-2.721-20.874-3.406-25.7a1.551,1.551,0,1,1,3.071-.436c.688,4.84,1.89,14.06,3.411,25.733,3.061,23.478,7.236,55.508,10.179,74.35l.492.226a11.967,11.967,0,0,1,2.831,1.6,5.166,5.166,0,0,1,1.969,5.3,3.134,3.134,0,0,1-2.523,2.53l-.277-.167Z" transform="translate(-77.195 -233.081)" fill="#17202e"/>
      <path id="Trazado_18712" data-name="Trazado 18712" d="M1604.167,641.711a1.551,1.551,0,0,1-.974-2.759l4.318-3.477-.392-6.761,1.13-.374c.031-.011,3.613-1.255,3.7-3.8a70.936,70.936,0,0,0-2.366-19.391,1.551,1.551,0,0,1,2.98-.861,73.023,73.023,0,0,1,2.487,20.359c-.12,3.436-3.039,5.351-4.7,6.166l.352,6.079-5.561,4.478A1.543,1.543,0,0,1,1604.167,641.711Z" transform="translate(-119.875 -95.963)" fill="#17202e"/>
      <path id="Trazado_18713" data-name="Trazado 18713" d="M1564.947,604.905a1.549,1.549,0,0,1-1.516-1.234,18.078,18.078,0,0,1,1.436-10.6c2.544-5.052,8.864-7.9,15.373-6.947a12.258,12.258,0,0,1,9.874,7.981l.195.49-.143.506c-1.268,4.474-7.577,5.915-13.392,6.915a2.532,2.532,0,0,0-1.748,1.009,1.54,1.54,0,0,1-1.763,1.289,1.561,1.561,0,0,1-1.3-1.778c.257-1.691,2.058-3.2,4.284-3.578,3.1-.534,9.386-1.614,10.752-4.251a9.067,9.067,0,0,0-7.21-5.515c-5.207-.763-10.2,1.4-12.143,5.251a15.12,15.12,0,0,0-1.179,8.6,1.553,1.553,0,0,1-1.21,1.828A1.569,1.569,0,0,1,1564.947,604.905Z" transform="translate(-97.533 -86.205)" fill="#17202e"/>
      <path id="Trazado_18715" data-name="Trazado 18715" d="M1605.658,905.782a1.551,1.551,0,0,1-.142-3.094l8.371-.779a1.551,1.551,0,1,1,.287,3.088l-8.372.779Q1605.73,905.782,1605.658,905.782Z" transform="translate(-120.722 -265.226)" fill="#17202e"/>
      <path id="Trazado_18716" data-name="Trazado 18716" d="M2065,904.444a1.509,1.509,0,0,1-.232-.018l-5.19-.779a1.551,1.551,0,1,1,.46-3.067l5.191.779a1.551,1.551,0,0,1-.229,3.085Z" transform="translate(-378.043 -264.467)" fill="#17202e"/>
      <path id="Trazado_18717" data-name="Trazado 18717" d="M1568.828,667.76a1.551,1.551,0,0,1-.736-2.917l3.666-1.972-.43-11.435a1.551,1.551,0,0,1,3.1-.117l.5,13.367-5.37,2.887A1.541,1.541,0,0,1,1568.828,667.76Z" transform="translate(-99.852 -122.402)" fill="#17202e"/>
      <path id="Trazado_18718" data-name="Trazado 18718" d="M1571.606,641.292c-.04,0-.081,0-.123,0-2.97-.233-5.285-1.738-6.191-4.026a5.25,5.25,0,0,1,7.65-6.392,1.551,1.551,0,1,1-1.637,2.635,2.128,2.128,0,0,0-1.924-.171,2.15,2.15,0,0,0-1.206,2.787c.542,1.367,2.189,1.969,3.55,2.076a1.551,1.551,0,0,1-.12,3.1Z" transform="translate(-98.52 -111.214)" fill="#17202e"/>
      <path id="Trazado_18719" data-name="Trazado 18719" d="M1577.383,867.344h-20.937a1.631,1.631,0,0,1,0-3.259h20.937a1.631,1.631,0,0,1,0,3.259Z" transform="translate(-92.838 -243.799)" fill="#17202e"/>
      <path id="Trazado_18720" data-name="Trazado 18720" d="M2120.514,882.623a1.551,1.551,0,0,1-1.547-1.472l-.778-15.313a1.55,1.55,0,1,1,3.1-.157l.779,15.313a1.548,1.548,0,0,1-1.47,1.627Z" transform="translate(-411.997 -243.868)" fill="#17202e"/>
      <path id="Trazado_18721" data-name="Trazado 18721" d="M1987.348,766.075a1.561,1.561,0,0,1-.749-.193l-4.374-2.414a1.551,1.551,0,1,1,1.5-2.715l3.862,2.131,51.8-11.345c1.216-5.5,7.252-33.007,9.109-46.03.476-3.333.174-7-8.985-11.961-.351-.19-1.054-.59-1.908-1.075-1.839-1.045-4.618-2.626-5.555-3.052a1.551,1.551,0,1,1,1.284-2.823c1.064.484,3.8,2.041,5.8,3.178.828.471,1.513.86,1.853,1.044,8.4,4.548,11.463,8.931,10.577,15.127-2.075,14.555-9.293,46.908-9.365,47.233a1.553,1.553,0,0,1-1.183,1.177l-53.342,11.681A1.561,1.561,0,0,1,1987.348,766.075Z" transform="translate(-334.508 -143.157)" fill="#17202e"/>
      <path id="Trazado_18722" data-name="Trazado 18722" d="M2004.744,707.352a1.554,1.554,0,0,1-1.532-1.8c.333-2.04,2.2-12.332,6.222-14.6,5.117-2.888,14.385-6.2,14.777-6.34a1.551,1.551,0,0,1,1.041,2.922c-.093.034-9.409,3.362-14.294,6.12-2.019,1.138-3.954,7.933-4.684,12.4A1.551,1.551,0,0,1,2004.744,707.352Z" transform="translate(-346.841 -142.061)" fill="#17202e"/>
      <path id="Trazado_18723" data-name="Trazado 18723" d="M2032.273,1009.162a55.426,55.426,0,0,1-5.568-.176,3.52,3.52,0,0,1-2.974-2.879,4.592,4.592,0,0,1,1.757-4.938,21,21,0,0,1,1.849-1.025c.283-.146.573-.294.881-.457-1.6-14.036-3.715-30.24-6.151-48.929-1.945-14.922-4.142-31.791-6.272-49.136-6.868,32.718-19.527,104.843-19.656,105.578l-.223,1.27-1.291-.178c-.14,0-14.022-.062-17.47-.062h-.058l-.276.167a3.418,3.418,0,0,1-2.633-2.73,4.919,4.919,0,0,1,1.785-5.133,11.33,11.33,0,0,1,2.773-1.593c.132-.062.274-.116.429-.189,1.607-14.763,4.787-37.563,7.6-57.731,2.611-18.717,4.865-34.877,5.5-41.836a1.551,1.551,0,1,1,3.088.285c-.642,7.031-2.9,23.23-5.517,41.986-2.865,20.543-6.111,43.826-7.681,58.5l-.091.861-.781.374c-.5.237-.9.424-1.232.582a8.341,8.341,0,0,0-2.179,1.253,1.852,1.852,0,0,0-.738,1.554,1.637,1.637,0,0,0,.275.927c3.111,0,12.449-.087,15.889-.117,1.757-9.983,13.407-75.909,19.725-105.7l.3-1.418,1.435.2c.046,0,.191-.01.36-.016a5.007,5.007,0,0,1,2.882.446l.625.393.09.732c2.175,17.76,4.332,34.317,6.418,50.328,2.5,19.162,4.653,35.711,6.273,50.007l.115,1.009-.878.508c-.74.428-1.359.745-1.905,1.023-.586.3-1.09.559-1.587.876a1.575,1.575,0,0,0-.416,1.6c.068.285.209.517.318.527,2.042.28,11.07.113,15.9-.012-.38-10.271-2.622-68.828-5.663-110.076a1.549,1.549,0,0,1,1.432-1.66,1.531,1.531,0,0,1,1.661,1.431c3.332,45.189,5.7,111.1,5.727,111.756l.055,1.559-1.559.046C2043.6,1008.981,2037.244,1009.162,2032.273,1009.162Z" transform="translate(-330.325 -260.835)" fill="#17202e"/>
      <path id="Trazado_18724" data-name="Trazado 18724" d="M2047.673,644.122c-.425,0-.735-.327-1.153-.514-1.68-.751-2.872-1.33-2.89-1.337l-1.163-.434.163-1.233a38.241,38.241,0,0,0,.22-5.648c-3.049-2.117-4.8-6.347-5.222-12.593-.858-12.84.761-16.309.948-16.663a1.551,1.551,0,1,1,2.741,1.452h0s-1.381,3.222-.6,15c.26,3.869,1.231,8.84,4.385,10.551l.765.416.043.87a44.429,44.429,0,0,1-.092,5.886,26.07,26.07,0,0,1,3,1.653c.715.472.522,1.617-.115,2.19A1.542,1.542,0,0,1,2047.673,644.122Z" transform="translate(-366.211 -96.932)" fill="#17202e"/>
      <path id="Trazado_18725" data-name="Trazado 18725" d="M2056.962,604.682a1.55,1.55,0,0,1-1.548-1.476c-.024-.164-.287-1.25-2.734-1.25-.7,0-1.391.008-2.055.016-5.237.061-9.758.116-11.464-4.321l-.164-.428.094-.449a13.092,13.092,0,0,1,9.958-9.635c7.246-1.764,13.408,1.919,15.519,6.282a17.7,17.7,0,0,1,1.5,9.192A1.551,1.551,0,0,1,2063,602.2a14.767,14.767,0,0,0-1.221-7.424c-1.262-2.608-5.634-6.166-11.994-4.62a10.2,10.2,0,0,0-7.54,6.791c1.041,1.917,3.66,1.982,8.345,1.926.675-.008,1.374-.016,2.092-.016,4.454,0,5.762,2.749,5.833,4.2a1.55,1.55,0,0,1-1.476,1.623Z" transform="translate(-367.129 -86.628)" fill="#17202e"/>
      <path id="Trazado_18726" data-name="Trazado 18726" d="M2093.729,669.322a1.545,1.545,0,0,1-.759-.2l-3.866-2.176-.3-14.85a1.551,1.551,0,0,1,3.1-.062l.261,13.078,2.322,1.306a1.551,1.551,0,0,1-.762,2.9Z" transform="translate(-395.35 -122.791)" fill="#17202e"/>
      <path id="Trazado_18727" data-name="Trazado 18727" d="M2084.689,641.952a1.551,1.551,0,0,1-.191-3.09c2.293-.289,2.823-1.23,3.024-1.914a2.327,2.327,0,0,0-1.541-2.794,2.068,2.068,0,0,0-1.879.243,1.551,1.551,0,0,1-1.8-2.53,5.21,5.21,0,0,1,4.666-.652,5.457,5.457,0,0,1,3.525,6.606c-.472,1.615-1.831,3.642-5.612,4.118A1.508,1.508,0,0,1,2084.689,641.952Z" transform="translate(-391.298 -111.698)" fill="#17202e"/>
      <path id="Trazado_18728" data-name="Trazado 18728" d="M2003.04,776.25a1.553,1.553,0,0,1-.746-.191l-4.584-2.519a1.551,1.551,0,1,1,1.494-2.718l4.031,2.214,33.692-9.358,5.8-33.556a1.551,1.551,0,0,1,3.056.528l-5.969,34.523a1.552,1.552,0,0,1-1.113,1.23l-35.245,9.79A1.545,1.545,0,0,1,2003.04,776.25Z" transform="translate(-343.279 -167.167)" fill="#17202e"/>
      <path id="Trazado_18729" data-name="Trazado 18729" d="M1978.787,843a1.551,1.551,0,0,1-.335-3.065l4.671-1.039a1.551,1.551,0,1,1,.674,3.027l-4.672,1.039A1.541,1.541,0,0,1,1978.787,843Z" transform="translate(-332.136 -229.507)" fill="#17202e"/>
      <path id="Trazado_18730" data-name="Trazado 18730" d="M2018.1,853.461a1.55,1.55,0,0,1-1.532-1.324l-.784-5.325a1.551,1.551,0,1,1,3.068-.451l.784,5.325a1.551,1.551,0,0,1-1.308,1.759A1.51,1.51,0,0,1,2018.1,853.461Z" transform="translate(-353.97 -233.005)" fill="#17202e"/>
      <path id="Trazado_18731" data-name="Trazado 18731" d="M1653.147,837.1a1.583,1.583,0,0,1-.349-.039,1.551,1.551,0,0,1-1.164-1.859l.907-3.957a1.551,1.551,0,1,1,3.023.693l-.908,3.957A1.551,1.551,0,0,1,1653.147,837.1Z" transform="translate(-147.627 -224.511)" fill="#17202e"/>
      <path id="Trazado_18732" data-name="Trazado 18732" d="M2054.181,671.281a11.266,11.266,0,0,1-3.183-.442,1.551,1.551,0,1,1,.95-2.953,7.675,7.675,0,0,0,5.492-.513,1.551,1.551,0,0,1,1.564,2.68A9.532,9.532,0,0,1,2054.181,671.281Z" transform="translate(-373.318 -132.223)" fill="#17202e"/>
      <path id="Trazado_18733" data-name="Trazado 18733" d="M1612.838,772.255a1.551,1.551,0,0,1-.339-.037l-31.539-7.074a1.551,1.551,0,0,1-1.166-1.141l-7.082-28.622a1.551,1.551,0,1,1,3.011-.745l6.851,27.691,30.134,6.759,4.1-1.64a1.551,1.551,0,0,1,1.153,2.88l-4.542,1.818A1.552,1.552,0,0,1,1612.838,772.255Z" transform="translate(-102.906 -169.785)" fill="#17202e"/>
      <path id="Trazado_18734" data-name="Trazado 18734" d="M1674.868,652.05a1.62,1.62,0,0,1-1.63-1.551V606.663l39.925-15.574V565.165h15.021a1.632,1.632,0,0,1,0,3.259h-11.761v24.792L1676.5,608.79V650.5A1.62,1.62,0,0,1,1674.868,652.05Z" transform="translate(-159.89 -74.432)" fill="#17202e"/>
      <path id="Trazado_18735" data-name="Trazado 18735" d="M1933.187,667.782a1.62,1.62,0,0,1-1.63-1.551V638.524h-44v-64.57a1.632,1.632,0,0,1,3.259,0v61.31h44v30.967A1.62,1.62,0,0,1,1933.187,667.782Z" transform="translate(-281.324 -78.533)" fill="#17202e"/>
      <path id="Trazado_18736" data-name="Trazado 18736" d="M1839.123,516.234a1.62,1.62,0,0,1-1.63-1.551V474.038l-35.036,8.175V499.6a1.632,1.632,0,0,1-3.259,0V480.984a1.723,1.723,0,0,1,1.375-1.51l38.085-8.9a1.764,1.764,0,0,1,1.412.295,1.65,1.65,0,0,1,.683,1.215v42.6A1.621,1.621,0,0,1,1839.123,516.234Z" transform="translate(-231.259 -20.813)" fill="#17202e"/>
      <path id="Trazado_18737" data-name="Trazado 18737" d="M1932.085,656.673a1.62,1.62,0,0,1-1.63-1.551V632.114l-29.283-7.84a1.571,1.571,0,0,1-1.127-1.9,1.687,1.687,0,0,1,2.026-1.1l31.644,8.456v25.387A1.62,1.62,0,0,1,1932.085,656.673Z" transform="translate(-288.37 -106.196)" fill="#17202e"/>
      <path id="Trazado_18738" data-name="Trazado 18738" d="M1770.748,730.223a1.62,1.62,0,0,1-1.63-1.551V652.679a1.632,1.632,0,0,1,3.259,0v75.993A1.621,1.621,0,0,1,1770.748,730.223Z" transform="translate(-214.216 -123.138)" fill="#17202e"/>
      <g id="Grupo_9241" data-name="Grupo 9241" transform="translate(1594.827 587.699)">
        <path id="Trazado_18739" data-name="Trazado 18739" d="M1862.868,795.875a1.62,1.62,0,0,1-1.63-1.551v-3.877a1.632,1.632,0,0,1,3.259,0v3.877A1.62,1.62,0,0,1,1862.868,795.875Z" transform="translate(-1861.238 -788.896)" fill="#17202e"/>
      </g>
      <g id="Grupo_9242" data-name="Grupo 9242" transform="translate(1567.939 587.699)">
        <path id="Trazado_18740" data-name="Trazado 18740" d="M1800.828,795.875a1.62,1.62,0,0,1-1.63-1.551v-3.877a1.632,1.632,0,0,1,3.259,0v3.877A1.62,1.62,0,0,1,1800.828,795.875Z" transform="translate(-1799.198 -788.896)" fill="#17202e"/>
      </g>
      <g id="Grupo_9243" data-name="Grupo 9243" transform="translate(1594.827 565.211)">
        <path id="Trazado_18741" data-name="Trazado 18741" d="M1862.868,744.763a1.62,1.62,0,0,1-1.63-1.551V738.56a1.632,1.632,0,0,1,3.259,0v4.653A1.621,1.621,0,0,1,1862.868,744.763Z" transform="translate(-1861.238 -737.009)" fill="#17202e"/>
      </g>
      <g id="Grupo_9244" data-name="Grupo 9244" transform="translate(1567.939 565.211)">
        <path id="Trazado_18742" data-name="Trazado 18742" d="M1800.828,744.763a1.62,1.62,0,0,1-1.63-1.551V738.56a1.632,1.632,0,0,1,3.259,0v4.653A1.62,1.62,0,0,1,1800.828,744.763Z" transform="translate(-1799.198 -737.009)" fill="#17202e"/>
      </g>
      <g id="Grupo_9245" data-name="Grupo 9245" transform="translate(1594.827 545.049)">
        <path id="Trazado_18743" data-name="Trazado 18743" d="M1862.868,699.02a1.62,1.62,0,0,1-1.63-1.552v-5.428a1.632,1.632,0,0,1,3.259,0v5.428A1.621,1.621,0,0,1,1862.868,699.02Z" transform="translate(-1861.238 -690.49)" fill="#17202e"/>
      </g>
      <g id="Grupo_9246" data-name="Grupo 9246" transform="translate(1567.939 545.049)">
        <path id="Trazado_18744" data-name="Trazado 18744" d="M1800.828,699.02a1.62,1.62,0,0,1-1.63-1.552v-5.428a1.632,1.632,0,0,1,3.259,0v5.428A1.62,1.62,0,0,1,1800.828,699.02Z" transform="translate(-1799.198 -690.49)" fill="#17202e"/>
      </g>
      <g id="Grupo_9247" data-name="Grupo 9247" transform="translate(1594.827 523.337)">
        <path id="Trazado_18745" data-name="Trazado 18745" d="M1862.868,648.146a1.62,1.62,0,0,1-1.63-1.551v-4.653a1.632,1.632,0,0,1,3.259,0V646.6A1.62,1.62,0,0,1,1862.868,648.146Z" transform="translate(-1861.238 -640.392)" fill="#17202e"/>
      </g>
      <g id="Grupo_9248" data-name="Grupo 9248" transform="translate(1567.939 523.337)">
        <path id="Trazado_18746" data-name="Trazado 18746" d="M1800.828,648.146a1.62,1.62,0,0,1-1.63-1.551v-4.653a1.632,1.632,0,0,1,3.259,0V646.6A1.62,1.62,0,0,1,1800.828,648.146Z" transform="translate(-1799.198 -640.392)" fill="#17202e"/>
      </g>
      <g id="Grupo_9249" data-name="Grupo 9249" transform="translate(1594.827 503.175)">
        <path id="Trazado_18747" data-name="Trazado 18747" d="M1862.868,601.627a1.62,1.62,0,0,1-1.63-1.551v-4.653a1.632,1.632,0,0,1,3.259,0v4.653A1.62,1.62,0,0,1,1862.868,601.627Z" transform="translate(-1861.238 -593.873)" fill="#17202e"/>
      </g>
      <g id="Grupo_9250" data-name="Grupo 9250" transform="translate(1567.939 503.175)">
        <path id="Trazado_18748" data-name="Trazado 18748" d="M1800.828,601.627a1.62,1.62,0,0,1-1.63-1.551v-4.653a1.632,1.632,0,0,1,3.259,0v4.653A1.62,1.62,0,0,1,1800.828,601.627Z" transform="translate(-1799.198 -593.873)" fill="#17202e"/>
      </g>
      <g id="Grupo_9251" data-name="Grupo 9251" transform="translate(1594.827 486.116)">
        <path id="Trazado_18749" data-name="Trazado 18749" d="M1862.868,562.265a1.62,1.62,0,0,1-1.63-1.551v-4.652a1.632,1.632,0,0,1,3.259,0v4.652A1.62,1.62,0,0,1,1862.868,562.265Z" transform="translate(-1861.238 -554.511)" fill="#17202e"/>
      </g>
      <g id="Grupo_9252" data-name="Grupo 9252" transform="translate(1594.827 469.056)">
        <path id="Trazado_18750" data-name="Trazado 18750" d="M1862.868,522.9a1.62,1.62,0,0,1-1.63-1.551V516.7a1.632,1.632,0,0,1,3.259,0v4.653A1.621,1.621,0,0,1,1862.868,522.9Z" transform="translate(-1861.238 -515.149)" fill="#17202e"/>
      </g>
      <g id="Grupo_9253" data-name="Grupo 9253" transform="translate(1581.791 587.699)">
        <path id="Trazado_18751" data-name="Trazado 18751" d="M1832.788,795.875a1.62,1.62,0,0,1-1.63-1.551v-3.877a1.632,1.632,0,0,1,3.259,0v3.877A1.62,1.62,0,0,1,1832.788,795.875Z" transform="translate(-1831.158 -788.896)" fill="#17202e"/>
      </g>
      <g id="Grupo_9254" data-name="Grupo 9254" transform="translate(1581.791 565.211)">
        <path id="Trazado_18752" data-name="Trazado 18752" d="M1832.788,744.763a1.621,1.621,0,0,1-1.63-1.551V738.56a1.632,1.632,0,0,1,3.259,0v4.653A1.621,1.621,0,0,1,1832.788,744.763Z" transform="translate(-1831.158 -737.009)" fill="#17202e"/>
      </g>
      <g id="Grupo_9255" data-name="Grupo 9255" transform="translate(1581.791 545.049)">
        <path id="Trazado_18753" data-name="Trazado 18753" d="M1832.788,699.02a1.621,1.621,0,0,1-1.63-1.552v-5.428a1.632,1.632,0,0,1,3.259,0v5.428A1.621,1.621,0,0,1,1832.788,699.02Z" transform="translate(-1831.158 -690.49)" fill="#17202e"/>
      </g>
      <g id="Grupo_9256" data-name="Grupo 9256" transform="translate(1581.791 523.337)">
        <path id="Trazado_18754" data-name="Trazado 18754" d="M1832.788,648.146a1.62,1.62,0,0,1-1.63-1.551v-4.653a1.632,1.632,0,0,1,3.259,0V646.6A1.62,1.62,0,0,1,1832.788,648.146Z" transform="translate(-1831.158 -640.392)" fill="#17202e"/>
      </g>
      <g id="Grupo_9257" data-name="Grupo 9257" transform="translate(1581.791 503.175)">
        <path id="Trazado_18755" data-name="Trazado 18755" d="M1832.788,601.627a1.62,1.62,0,0,1-1.63-1.551v-4.653a1.632,1.632,0,0,1,3.259,0v4.653A1.62,1.62,0,0,1,1832.788,601.627Z" transform="translate(-1831.158 -593.873)" fill="#17202e"/>
      </g>
      <g id="Grupo_9258" data-name="Grupo 9258" transform="translate(1581.791 486.116)">
        <path id="Trazado_18756" data-name="Trazado 18756" d="M1832.788,562.265a1.62,1.62,0,0,1-1.63-1.551v-4.652a1.632,1.632,0,0,1,3.259,0v4.652A1.62,1.62,0,0,1,1832.788,562.265Z" transform="translate(-1831.158 -554.511)" fill="#17202e"/>
      </g>
      <g id="Grupo_9259" data-name="Grupo 9259" transform="translate(1581.791 469.056)">
        <path id="Trazado_18757" data-name="Trazado 18757" d="M1832.788,522.9a1.621,1.621,0,0,1-1.63-1.551V516.7a1.632,1.632,0,0,1,3.259,0v4.653A1.621,1.621,0,0,1,1832.788,522.9Z" transform="translate(-1831.158 -515.149)" fill="#17202e"/>
      </g>
      <g id="Grupo_9267" data-name="Grupo 9267" transform="translate(1525.049 546.139)">
        <g id="Grupo_9260" data-name="Grupo 9260" transform="translate(0 73.331)">
          <path id="Trazado_18758" data-name="Trazado 18758" d="M1721,864.648h-19.209c-.856,0-1.551-.366-1.551-1.222s.694-1.222,1.551-1.222H1721c.856,0,1.551.366,1.551,1.222S1721.851,864.648,1721,864.648Z" transform="translate(-1700.236 -862.204)" fill="#17202e"/>
        </g>
        <g id="Grupo_9261" data-name="Grupo 9261" transform="translate(0 61.11)">
          <path id="Trazado_18759" data-name="Trazado 18759" d="M1721,836.449h-19.209c-.856,0-1.551-.365-1.551-1.222s.694-1.222,1.551-1.222H1721c.856,0,1.551.366,1.551,1.222S1721.851,836.449,1721,836.449Z" transform="translate(-1700.236 -834.005)" fill="#17202e"/>
        </g>
        <g id="Grupo_9262" data-name="Grupo 9262" transform="translate(0 48.888)">
          <path id="Trazado_18760" data-name="Trazado 18760" d="M1721,808.249h-19.209c-.856,0-1.551-.365-1.551-1.222s.694-1.222,1.551-1.222H1721c.856,0,1.551.366,1.551,1.222S1721.851,808.249,1721,808.249Z" transform="translate(-1700.236 -805.805)" fill="#17202e"/>
        </g>
        <g id="Grupo_9263" data-name="Grupo 9263" transform="translate(0 36.666)">
          <path id="Trazado_18761" data-name="Trazado 18761" d="M1721,780.049h-19.209c-.856,0-1.551-.365-1.551-1.222s.694-1.222,1.551-1.222H1721c.856,0,1.551.366,1.551,1.222S1721.851,780.049,1721,780.049Z" transform="translate(-1700.236 -777.605)" fill="#17202e"/>
        </g>
        <g id="Grupo_9264" data-name="Grupo 9264" transform="translate(0 24.444)">
          <path id="Trazado_18762" data-name="Trazado 18762" d="M1721,751.849h-19.209c-.856,0-1.551-.365-1.551-1.222s.694-1.222,1.551-1.222H1721c.856,0,1.551.366,1.551,1.222S1721.851,751.849,1721,751.849Z" transform="translate(-1700.236 -749.405)" fill="#17202e"/>
        </g>
        <g id="Grupo_9265" data-name="Grupo 9265" transform="translate(0 12.222)">
          <path id="Trazado_18763" data-name="Trazado 18763" d="M1721,723.649h-19.209c-.856,0-1.551-.365-1.551-1.222s.694-1.222,1.551-1.222H1721c.856,0,1.551.366,1.551,1.222S1721.851,723.649,1721,723.649Z" transform="translate(-1700.236 -721.205)" fill="#17202e"/>
        </g>
        <g id="Grupo_9266" data-name="Grupo 9266" transform="translate(0)">
          <path id="Trazado_18764" data-name="Trazado 18764" d="M1721,695.449h-19.209c-.856,0-1.551-.365-1.551-1.222s.694-1.222,1.551-1.222H1721c.856,0,1.551.366,1.551,1.222S1721.851,695.449,1721,695.449Z" transform="translate(-1700.236 -693.005)" fill="#17202e"/>
        </g>
      </g>
      <g id="Grupo_9270" data-name="Grupo 9270" transform="translate(1613.862 532.288)">
        <g id="Grupo_9268" data-name="Grupo 9268" transform="translate(0 12.222)">
          <path id="Trazado_18765" data-name="Trazado 18765" d="M1925.916,691.689h-19.209c-.857,0-1.55-.365-1.55-1.222s.694-1.222,1.55-1.222h19.209c.856,0,1.551.366,1.551,1.222S1926.772,691.689,1925.916,691.689Z" transform="translate(-1905.157 -689.245)" fill="#17202e"/>
        </g>
        <g id="Grupo_9269" data-name="Grupo 9269" transform="translate(0 0)">
          <path id="Trazado_18766" data-name="Trazado 18766" d="M1925.916,663.489h-19.209c-.857,0-1.55-.365-1.55-1.222s.694-1.222,1.55-1.222h19.209c.856,0,1.551.366,1.551,1.222S1926.772,663.489,1925.916,663.489Z" transform="translate(-1905.157 -661.045)" fill="#17202e"/>
        </g>
      </g>
      <g id="Grupo_9272" data-name="Grupo 9272" transform="translate(1582.186 619.642)">
        <path id="Trazado_18767" data-name="Trazado 18767" d="M1845.8,943.375a1.62,1.62,0,0,1-1.656-1.522l-1.295-74.431a1.632,1.632,0,0,1,3.259-.057l1.293,74.432A1.621,1.621,0,0,1,1845.8,943.375Z" transform="translate(-1838.18 -864.437)" fill="#17202e"/>
        <g id="Grupo_9271" data-name="Grupo 9271" transform="translate(0)">
          <path id="Trazado_18768" data-name="Trazado 18768" d="M1832.07,869.529l1.154,1.038,5.107-5.691,5.3,5.509,1.117-1.077-6.461-6.709Z" transform="translate(-1832.07 -862.599)" fill="#17202e"/>
        </g>
      </g>
      <g id="Grupo_9274" data-name="Grupo 9274" transform="translate(1535.676 640.72)">
        <path id="Trazado_18769" data-name="Trazado 18769" d="M1760.944,1008.742c-.856,0-1.222-.694-1.222-1.551V947.828l-24.444-12.347V915.689a1.632,1.632,0,0,1,3.259,0v17.9l23.629,12.346v61.256C1762.166,1008.048,1761.8,1008.742,1760.944,1008.742Z" transform="translate(-1730.718 -912.879)" fill="#17202e"/>
        <g id="Grupo_9273" data-name="Grupo 9273" transform="translate(0 0)">
          <path id="Trazado_18770" data-name="Trazado 18770" d="M1724.757,918.054l1.136,1.057,5.205-5.6,5.207,5.6,1.136-1.057-6.343-6.821Z" transform="translate(-1724.757 -911.233)" fill="#17202e"/>
        </g>
      </g>
      <g id="Grupo_9276" data-name="Grupo 9276" transform="translate(1616.827 582.11)">
        <path id="Trazado_18771" data-name="Trazado 18771" d="M1913.628,914.1a1.62,1.62,0,0,1-1.63-1.551V814.572l8.148-9.928V781.5a1.632,1.632,0,0,1,3.259,0v24.21l-8.148,9.928V912.55A1.619,1.619,0,0,1,1913.628,914.1Z" transform="translate(-1911.998 -778.238)" fill="#17202e"/>
        <g id="Grupo_9275" data-name="Grupo 9275" transform="translate(1.959)">
          <path id="Trazado_18772" data-name="Trazado 18772" d="M1916.518,784.186l1.363,1.27,6.246-6.722,6.249,6.722,1.363-1.27L1924.127,776Z" transform="translate(-1916.518 -776.001)" fill="#17202e"/>
        </g>
      </g>
    </g>
  </g>
</svg>
